<svg width="328" height="82" viewBox="0 0 328 82" fill="none" xmlns="http://www.w3.org/2000/svg">
<rect x="154" y="4.58203" width="75.5407" height="30.6814" rx="5" transform="rotate(-1.98019 154 4.58203)" fill="#0D8972"/>
<rect x="188" y="48.8445" width="82.3194" height="30.6814" rx="5" transform="rotate(-1.98019 188 48.8445)" fill="#22D197"/>
<path d="M111.903 24.1877C111.903 26.1493 112.234 27.6525 112.895 28.6972C113.577 29.742 114.792 30.2644 116.541 30.2644C118.289 30.2644 119.633 29.7207 120.571 28.6333C121.509 27.5459 121.978 25.8934 121.978 23.676V9.21982H119.899V8.61215H124.569V9.21982H122.809V23.4521C122.809 26.096 122.223 28.0683 121.05 29.3689C119.878 30.6695 117.799 31.3198 114.814 31.3198C111.85 31.3198 109.579 30.7015 108.002 29.4648C106.445 28.2282 105.667 26.1067 105.667 23.1003V9.21982H103.908V8.61215H113.982V9.21982H111.903V24.1877ZM125.139 15.7763H132.847V18.7187C133.188 17.7379 133.711 16.949 134.414 16.3519C135.118 15.7549 136.184 15.4564 137.613 15.4564C140.918 15.4564 142.57 17.2368 142.57 20.7975V30.4243H144.361V31H135.31V30.4243H136.621V20.03C136.621 18.7506 136.536 17.9298 136.365 17.5673C136.195 17.1835 135.886 16.9916 135.438 16.9916C134.756 16.9916 134.148 17.4394 133.615 18.3349C133.103 19.2304 132.847 20.3178 132.847 21.5971V30.4243H134.223V31H125.139V30.4243H126.899V16.3519H125.139V15.7763ZM149.485 13.5695C148.355 13.5695 147.545 13.2816 147.054 12.7059C146.585 12.1302 146.351 11.416 146.351 10.5631C146.351 9.71022 146.607 9.0066 147.118 8.45223C147.651 7.89787 148.451 7.62069 149.517 7.62069C150.583 7.62069 151.393 7.87655 151.948 8.38827C152.502 8.87867 152.779 9.59295 152.779 10.5311C152.779 11.4479 152.513 12.1835 151.98 12.7379C151.447 13.2923 150.615 13.5695 149.485 13.5695ZM144.656 15.7763H152.491V30.4243H154.282V31H144.784V30.4243H146.543V16.3519H144.656V15.7763ZM80.7218 51.6121H89.2612V52.2198H87.5021V73.3923H89.2612V74H79.5065V73.3923H81.2655V53.4032H81.1376L76.3402 74H72.3424L66.7134 53.3072H66.5855V73.3923H68.3445V74H63.9949V73.3923H65.7539V52.2198H63.9949V51.6121H72.6302L76.8839 68.0832L80.7218 51.6121ZM98.0514 66.4841H98.9789V64.0214C98.9789 61.9958 98.8616 60.6419 98.6271 59.9596C98.4139 59.256 97.9875 58.9042 97.3478 58.9042C96.964 58.9042 96.6122 59.0108 96.2924 59.224C95.9939 59.4159 95.8446 59.6931 95.8446 60.0556C95.8446 60.3967 95.9086 60.7485 96.0365 61.111H96.8361C97.0067 61.5588 97.0919 62.1025 97.0919 62.7421C97.0919 63.3604 96.8254 63.9041 96.2924 64.3732C95.7593 64.821 95.0877 65.0449 94.2775 65.0449C92.4438 65.0449 91.527 64.16 91.527 62.3903C91.527 59.7677 93.7551 58.4564 98.2113 58.4564C100.749 58.4564 102.497 58.8935 103.456 59.7677C104.437 60.6206 104.928 62.1984 104.928 64.5012V70.9936C104.928 72.1024 105.237 72.6567 105.855 72.6567C106.58 72.6567 107.007 71.5587 107.134 69.3625L107.614 69.3945C107.529 71.2708 107.177 72.5608 106.559 73.2644C105.94 73.968 104.928 74.3198 103.52 74.3198C100.962 74.3198 99.4906 73.5309 99.1068 71.9531C98.8297 72.7633 98.4139 73.3603 97.8595 73.7441C97.3052 74.1279 96.4949 74.3198 95.4288 74.3198C92.2732 74.3198 90.6954 73.0299 90.6954 70.4499C90.6954 68.9361 91.2924 67.902 92.4864 67.3476C93.7018 66.7719 95.5568 66.4841 98.0514 66.4841ZM96.7721 70.4179C96.7721 71.5267 96.8254 72.241 96.932 72.5608C97.06 72.8806 97.2838 73.0405 97.6037 73.0405C97.9448 73.0405 98.254 72.774 98.5312 72.241C98.8297 71.6866 98.9789 70.9297 98.9789 69.9702V66.9958H98.755C97.4331 66.9958 96.7721 67.9659 96.7721 69.9062V70.4179ZM109.059 69.4265V59.3519H107.3V58.7763H109.059V54.6505L115.008 53.1793V58.7763H119.166V59.3519H115.008V70.1301C115.008 71.1322 115.104 71.8678 115.296 72.3369C115.509 72.806 115.935 73.0405 116.575 73.0405C117.215 73.0405 117.769 72.7207 118.238 72.081C118.729 71.4414 119.048 70.5672 119.198 69.4585L119.741 69.5224C119.571 70.9936 119.102 72.1663 118.334 73.0405C117.567 73.8934 116.298 74.3198 114.528 74.3198C112.759 74.3198 111.405 73.968 110.466 73.2644C109.528 72.5608 109.059 71.2815 109.059 69.4265ZM129.002 59.0321C128.064 59.0321 127.392 59.5438 126.987 60.5673C126.582 61.5907 126.38 63.2858 126.38 65.6525V67.3156C126.38 69.4265 126.614 70.9403 127.083 71.8572C127.552 72.774 128.416 73.2324 129.674 73.2324C130.932 73.2324 131.934 72.806 132.68 71.9531C133.426 71.1002 133.906 70.1301 134.119 69.0427L134.695 69.1067C134.29 70.9403 133.544 72.2623 132.456 73.0725C131.348 73.9041 129.823 74.3198 127.883 74.3198C125.409 74.3198 123.512 73.6589 122.19 72.3369C120.868 70.9936 120.207 69.0427 120.207 66.4841C120.207 63.9041 120.953 61.9212 122.446 60.5353C123.96 59.1494 126.06 58.4564 128.746 58.4564C130.644 58.4564 132.094 58.8296 133.096 59.5758C134.098 60.3008 134.599 61.2176 134.599 62.3263C134.599 63.4351 134.354 64.2453 133.863 64.757C133.394 65.2687 132.733 65.5246 131.881 65.5246C131.049 65.5246 130.377 65.3007 129.866 64.853C129.354 64.4052 129.098 63.7442 129.098 62.87C129.098 62.4862 129.151 62.1025 129.258 61.7187H130.313C130.463 61.2922 130.537 60.9084 130.537 60.5673C130.537 59.5438 130.026 59.0321 129.002 59.0321ZM135.195 50.013H142.903V61.7187C143.244 60.7379 143.766 59.949 144.47 59.3519C145.174 58.7549 146.24 58.4564 147.668 58.4564C150.973 58.4564 152.626 60.2368 152.626 63.7975V73.4243H154.417V74H145.365V73.4243H146.677V63.03C146.677 61.7506 146.591 60.9298 146.421 60.5673C146.25 60.1835 145.941 59.9916 145.493 59.9916C144.811 59.9916 144.203 60.4394 143.67 61.3349C143.159 62.2304 142.903 63.3178 142.903 64.5971V73.4243H144.278V74H135.195V73.4243H136.954V50.5887H135.195V50.013ZM176.801 81.2281C177.846 81.2281 178.646 80.727 179.2 79.7249C179.776 78.7228 180.063 77.4861 180.063 76.0149C180.063 74.5437 179.498 73.0512 178.368 71.5373C176.748 73.3923 174.52 74.3198 171.684 74.3198C168.848 74.3198 166.588 73.8401 164.904 72.8806C163.241 71.9211 162.409 70.4073 162.409 68.3391C162.409 66.9105 162.793 65.7591 163.56 64.8849C164.328 64.0108 165.618 63.3711 167.43 62.966C165.554 61.2602 164.616 59.4053 164.616 57.401C164.616 55.3754 165.319 53.8509 166.727 52.8275C168.155 51.7827 169.925 51.2603 172.036 51.2603C174.147 51.2603 175.724 51.6441 176.769 52.4117C177.835 53.1793 178.368 54.2134 178.368 55.514C178.368 57.7741 176.652 59.5012 173.219 60.6952C173.646 60.9724 174.424 61.4628 175.554 62.1664C177.921 63.7016 179.594 64.9383 180.575 65.8764C180.895 64.3626 181.076 62.8061 181.119 61.2069H178.592V60.5673H184.157V61.2069H181.918C181.876 63.2112 181.673 65.0129 181.311 66.612C182.228 67.6355 182.921 68.6163 183.39 69.5544C183.859 70.4926 184.093 71.6759 184.093 73.1045C184.093 75.4072 183.283 77.4648 181.663 79.2771C180.042 81.0895 178.198 81.9957 176.13 81.9957C174.744 81.9957 173.667 81.7078 172.899 81.1321C172.132 80.5564 171.748 79.8208 171.748 78.9253C171.748 78.0298 171.993 77.3262 172.484 76.8145C172.995 76.3241 173.635 76.0789 174.402 76.0789C176.108 76.0789 176.961 76.8465 176.961 78.3816C176.961 78.7014 176.897 79.0852 176.769 79.533H175.65C175.266 80.6631 175.65 81.2281 176.801 81.2281ZM172.452 73.4883C174.712 73.4883 176.503 72.6141 177.825 70.8657C176.844 69.8423 175.469 68.7335 173.699 67.5395C170.65 65.5353 168.71 64.1707 167.878 63.4457C167.558 64.128 167.398 65.5139 167.398 67.6035C167.398 69.693 167.814 71.1962 168.646 72.113C169.477 73.0299 170.746 73.4883 172.452 73.4883ZM171.876 51.932C171.066 51.932 170.373 52.1878 169.797 52.6996C169.221 53.19 168.933 53.9789 168.933 55.0663C168.933 56.1537 169.189 57.0492 169.701 57.7528C170.213 58.4564 171.194 59.3093 172.643 60.3114C173.539 59.8423 174.093 59.2773 174.307 58.6163C174.541 57.9554 174.658 56.9852 174.658 55.7059C174.658 53.19 173.731 51.932 171.876 51.932Z" fill="#070F26"/>
<path d="M177.45 19.4223C177.45 23.8146 176.213 26.8742 173.74 28.6013C171.459 30.2004 168.324 31 164.337 31H155.286V30.3923H157.397V9.21982H155.286V8.61215H165.169C169.263 8.61215 172.333 9.45436 174.38 11.1388C176.427 12.8019 177.45 15.563 177.45 19.4223ZM163.634 30.3923H164.849C167.002 30.3923 168.538 29.6354 169.454 28.1216C170.393 26.5864 170.862 24.0278 170.862 20.4457V18.5907C170.862 13.7933 169.945 10.9042 168.111 9.92344C167.237 9.45436 166 9.21982 164.401 9.21982H163.634V30.3923ZM186.597 23.4841H187.525V21.0214C187.525 18.9958 187.407 17.6419 187.173 16.9596C186.96 16.256 186.533 15.9042 185.893 15.9042C185.51 15.9042 185.158 16.0108 184.838 16.224C184.54 16.4159 184.39 16.6931 184.39 17.0556C184.39 17.3967 184.454 17.7485 184.582 18.111H185.382C185.552 18.5588 185.638 19.1025 185.638 19.7421C185.638 20.3604 185.371 20.9041 184.838 21.3732C184.305 21.821 183.633 22.0449 182.823 22.0449C180.989 22.0449 180.073 21.16 180.073 19.3903C180.073 16.7677 182.301 15.4564 186.757 15.4564C189.294 15.4564 191.043 15.8935 192.002 16.7677C192.983 17.6206 193.473 19.1984 193.473 21.5012V27.9936C193.473 29.1024 193.783 29.6567 194.401 29.6567C195.126 29.6567 195.552 28.5587 195.68 26.3625L196.16 26.3945C196.075 28.2708 195.723 29.5608 195.105 30.2644C194.486 30.968 193.473 31.3198 192.066 31.3198C189.508 31.3198 188.036 30.5309 187.653 28.9531C187.375 29.7633 186.96 30.3603 186.405 30.7441C185.851 31.1279 185.041 31.3198 183.975 31.3198C180.819 31.3198 179.241 30.0299 179.241 27.4499C179.241 25.9361 179.838 24.902 181.032 24.3476C182.247 23.7719 184.102 23.4841 186.597 23.4841ZM185.318 27.4179C185.318 28.5267 185.371 29.241 185.478 29.5608C185.606 29.8806 185.83 30.0405 186.149 30.0405C186.491 30.0405 186.8 29.774 187.077 29.241C187.375 28.6866 187.525 27.9297 187.525 26.9702V23.9958H187.301C185.979 23.9958 185.318 24.9659 185.318 26.9062V27.4179ZM197.605 26.4265V16.3519H195.846V15.7763H197.605V11.6505L203.554 10.1793V15.7763H207.711V16.3519H203.554V27.1301C203.554 28.1322 203.65 28.8678 203.842 29.3369C204.055 29.806 204.481 30.0405 205.121 30.0405C205.76 30.0405 206.315 29.7207 206.784 29.081C207.274 28.4414 207.594 27.5672 207.743 26.4585L208.287 26.5224C208.117 27.9936 207.647 29.1663 206.88 30.0405C206.112 30.8934 204.844 31.3198 203.074 31.3198C201.304 31.3198 199.95 30.968 199.012 30.2644C198.074 29.5608 197.605 28.2815 197.605 26.4265ZM217.004 31.3198C214.254 31.3198 212.185 30.6162 210.799 29.209C209.435 27.7804 208.753 25.8082 208.753 23.2922C208.753 20.7549 209.52 18.8146 211.055 17.4713C212.612 16.1281 214.584 15.4564 216.972 15.4564C221.812 15.4564 224.136 17.8871 223.944 22.7485H214.925V23.9958C214.925 26.0853 215.192 27.6631 215.725 28.7292C216.258 29.7953 217.185 30.3284 218.507 30.3284C220.981 30.3284 222.601 29.0064 223.369 26.3625L223.944 26.4585C223.539 27.9936 222.804 29.1877 221.738 30.0405C220.693 30.8934 219.115 31.3198 217.004 31.3198ZM214.957 22.1088H218.251V20.5417C218.251 18.8146 218.145 17.6419 217.932 17.0236C217.74 16.3839 217.335 16.0641 216.716 16.0641C216.119 16.0641 215.672 16.4053 215.373 17.0875C215.096 17.7485 214.957 18.8999 214.957 20.5417V22.1088ZM209.902 51.6121H218.441V52.2198H216.682V73.3923H218.441V74H208.686V73.3923H210.445V53.4032H210.317L205.52 74H201.522L195.893 53.3072H195.765V73.3923H197.524V74H193.175V73.3923H194.934V52.2198H193.175V51.6121H201.81L206.064 68.0832L209.902 51.6121ZM227.967 74.3198C225.216 74.3198 223.148 73.6162 221.762 72.209C220.398 70.7804 219.715 68.8082 219.715 66.2922C219.715 63.7549 220.483 61.8146 222.018 60.4713C223.575 59.1281 225.547 58.4564 227.935 58.4564C232.775 58.4564 235.099 60.8871 234.907 65.7485H225.888V66.9958C225.888 69.0853 226.155 70.6631 226.688 71.7292C227.221 72.7953 228.148 73.3284 229.47 73.3284C231.943 73.3284 233.564 72.0064 234.331 69.3625L234.907 69.4585C234.502 70.9936 233.766 72.1877 232.7 73.0405C231.656 73.8934 230.078 74.3198 227.967 74.3198ZM225.92 65.1088H229.214V63.5417C229.214 61.8146 229.108 60.6419 228.894 60.0236C228.703 59.3839 228.297 59.0641 227.679 59.0641C227.082 59.0641 226.634 59.4053 226.336 60.0875C226.059 60.7485 225.92 61.8999 225.92 63.5417V65.1088ZM244.458 74.3198C241.707 74.3198 239.639 73.6162 238.253 72.209C236.889 70.7804 236.206 68.8082 236.206 66.2922C236.206 63.7549 236.974 61.8146 238.509 60.4713C240.066 59.1281 242.038 58.4564 244.426 58.4564C249.266 58.4564 251.59 60.8871 251.398 65.7485H242.379V66.9958C242.379 69.0853 242.646 70.6631 243.179 71.7292C243.712 72.7953 244.639 73.3284 245.961 73.3284C248.434 73.3284 250.055 72.0064 250.823 69.3625L251.398 69.4585C250.993 70.9936 250.257 72.1877 249.191 73.0405C248.147 73.8934 246.569 74.3198 244.458 74.3198ZM242.411 65.1088H245.705V63.5417C245.705 61.8146 245.599 60.6419 245.385 60.0236C245.194 59.3839 244.788 59.0641 244.17 59.0641C243.573 59.0641 243.125 59.4053 242.827 60.0875C242.55 60.7485 242.411 61.8999 242.411 63.5417V65.1088ZM254.137 69.4265V59.3519H252.378V58.7763H254.137V54.6505L260.085 53.1793V58.7763H264.243V59.3519H260.085V70.1301C260.085 71.1322 260.181 71.8678 260.373 72.3369C260.587 72.806 261.013 73.0405 261.653 73.0405C262.292 73.0405 262.847 72.7207 263.316 72.081C263.806 71.4414 264.126 70.5672 264.275 69.4585L264.819 69.5224C264.648 70.9936 264.179 72.1663 263.412 73.0405C262.644 73.8934 261.375 74.3198 259.606 74.3198C257.836 74.3198 256.482 73.968 255.544 73.2644C254.606 72.5608 254.137 71.2815 254.137 69.4265Z" fill="white"/>
</svg>
