<svg width="141" height="122" viewBox="0 0 141 122" fill="none" xmlns="http://www.w3.org/2000/svg">
<path d="M122.177 69.9023C122.177 88.0434 112.712 104.016 98.3177 112.889C97.5289 113.283 96.7402 113.875 96.1486 114.269C88.8527 118.41 80.3737 120.776 71.5003 120.776C63.2185 120.776 55.331 118.804 48.4295 115.255C31.8659 106.776 20.6262 89.6209 20.6262 69.9023C20.6262 41.9018 43.3027 19.2253 71.3031 19.2253C80.5709 19.2253 89.0499 21.5916 96.543 25.9297C101.67 28.6903 106.008 32.4368 109.754 36.9721C110.543 37.7609 111.332 38.7468 111.924 39.7327C118.431 48.0146 122.177 58.4654 122.177 69.9023Z" fill="#F1F3F9" stroke="#D6DCE8" stroke-width="2" stroke-miterlimit="10"/>
<path d="M61.0495 103.818C60.0636 104.607 58.8804 105.199 57.6973 105.593C53.9508 106.579 49.8099 105.199 47.2464 102.044L20.6263 67.1416C17.2741 62.8035 18.0628 56.4935 22.5981 53.1413L22.7953 52.9441C24.57 51.761 26.5419 51.1695 28.5137 51.1695C31.4715 51.1695 34.4293 52.5498 36.4012 55.1132L62.8242 90.0152C66.1763 94.3533 65.3876 100.663 61.0495 103.818Z" fill="#7F3F98"/>
<path d="M58.6832 18.8308V41.399C59.461 37.7435 62.4561 34.916 66.1763 34.4087C66.3536 34.4087 66.5308 34.3688 66.726 34.325C66.965 34.2712 67.2309 34.2115 67.5566 34.2115C70.12 34.2115 72.2891 35.1974 73.8666 36.7749C75.4441 38.5496 76.43 40.7186 76.43 43.2821V47.3248C77.2077 43.7072 80.2029 41.0006 83.9231 40.3242C83.9647 40.3283 84.0063 40.3329 84.0477 40.3377L84.1202 40.3243C84.2975 40.3243 84.4748 40.2844 84.6699 40.2406C84.909 40.1868 85.1749 40.1271 85.5005 40.1271C88.064 40.1271 90.233 41.113 91.8105 42.6905C93.1908 44.4652 94.3739 46.6342 94.3739 49.1977V55.3104L94.374 31.8451C94.374 29.4789 95.36 27.3098 96.7403 25.7323C98.1206 24.1548 100.092 23.1689 102.261 22.9717H103.445C108.177 22.9717 112.121 26.9154 112.121 31.8451V71.0852C112.121 86.395 105.718 92.6498 101.634 96.6396C99.7218 98.508 98.3177 99.8797 98.3177 101.452V112.889C97.7152 113.19 97.1126 113.606 96.5979 113.962L96.5958 113.964C96.4376 114.073 96.2877 114.176 96.1487 114.269C88.8528 118.41 80.3738 120.776 71.5004 120.776C63.2186 120.776 55.3311 118.804 48.4296 115.255V103.28C48.0071 102.905 47.6108 102.492 47.2464 102.043L40.7393 93.5118V93.7618L20.6263 67.1416C19.7882 66.057 19.209 64.8492 18.8824 63.5952C18.3723 61.6364 18.4786 59.5648 19.1778 57.6741C19.8216 55.9335 20.9678 54.3463 22.5981 53.1412L22.7953 52.944C22.7955 52.944 22.7952 52.944 22.7953 52.944C24.5699 51.7611 26.542 51.1695 28.5137 51.1695C31.4715 51.1695 34.4293 52.5498 36.4012 55.1132L40.5421 60.5717V18.8309C40.5421 14.2956 43.8943 10.549 48.2324 9.95747C48.2502 9.95925 48.2679 9.96109 48.2857 9.963C48.3052 9.9651 48.3247 9.96727 48.3442 9.96952C48.3726 9.96536 48.401 9.96134 48.4295 9.95746H49.8098C52.3733 9.95746 54.5423 10.9434 56.1198 12.5209C57.6973 14.0984 58.6832 16.2674 58.6832 18.8308Z" fill="white"/>
<path d="M22.7953 52.944L22.5981 53.1412C20.9678 54.3463 19.8216 55.9335 19.1778 57.6741C18.4786 59.5648 18.3723 61.6364 18.8824 63.5952C19.209 64.8492 19.7882 66.057 20.6263 67.1416L40.7393 93.7618V93.5118L47.2464 102.043C47.6108 102.492 48.0071 102.905 48.4296 103.28V115.255C55.3311 118.804 63.2186 120.776 71.5004 120.776C80.3738 120.776 88.8528 118.41 96.1487 114.269C96.2877 114.176 96.4376 114.073 96.5958 113.964L96.5979 113.962C97.1126 113.606 97.7152 113.19 98.3177 112.889V101.452C98.3177 99.8797 99.7218 98.508 101.634 96.6396C105.718 92.6498 112.121 86.395 112.121 71.0852V31.8451C112.121 26.9154 108.177 22.9717 103.445 22.9717H102.261C100.092 23.1689 98.1206 24.1548 96.7403 25.7323C95.36 27.3098 94.374 29.4789 94.374 31.8451L94.3739 55.3104V49.1977C94.3739 46.6342 93.1908 44.4652 91.8105 42.6905C90.233 41.113 88.064 40.1271 85.5005 40.1271C85.1749 40.1271 84.909 40.1868 84.6699 40.2406C84.4748 40.2844 84.2975 40.3243 84.1202 40.3243L84.0477 40.3377C84.0063 40.3329 83.9647 40.3283 83.9231 40.3242C80.2029 41.0006 77.2077 43.7072 76.43 47.3248V43.2821C76.43 40.7186 75.4441 38.5496 73.8666 36.7749C72.2891 35.1974 70.12 34.2115 67.5566 34.2115C67.2309 34.2115 66.965 34.2712 66.726 34.325C66.5308 34.3688 66.3536 34.4087 66.1763 34.4087C62.4561 34.916 59.461 37.7435 58.6832 41.399V18.8308C58.6832 16.2674 57.6973 14.0984 56.1198 12.5209C54.5423 10.9434 52.3733 9.95746 49.8098 9.95746H48.4295C48.401 9.96134 48.3726 9.96536 48.3442 9.96952C48.3247 9.96727 48.3052 9.9651 48.2857 9.963C48.2679 9.96109 48.2502 9.95925 48.2324 9.95747C43.8943 10.549 40.5421 14.2956 40.5421 18.8309V60.5717L36.4012 55.1132C34.4293 52.5498 31.4715 51.1695 28.5137 51.1695C26.542 51.1695 24.5699 51.7611 22.7953 52.944ZM22.7953 52.944C22.7952 52.944 22.7955 52.944 22.7953 52.944Z" stroke="#D6DCE8" stroke-width="2" stroke-miterlimit="10"/>
<path d="M76.8802 14.6332C79.4939 14.6332 81.6127 12.5144 81.6127 9.90069C81.6127 7.28701 79.4939 5.16821 76.8802 5.16821C74.2665 5.16821 72.1477 7.28701 72.1477 9.90069C72.1477 12.5144 74.2665 14.6332 76.8802 14.6332Z" fill="#F1F3F9"/>
<path d="M135.389 61.4232C138.002 61.4232 140.121 59.3044 140.121 56.6907C140.121 54.077 138.002 51.9582 135.389 51.9582C132.775 51.9582 130.656 54.077 130.656 56.6907C130.656 59.3044 132.775 61.4232 135.389 61.4232Z" fill="#F1F3F9"/>
<path d="M126.493 5.72897H121.531V0.767822H117.279V5.72897H112.318V10.1231H117.279V15.0843H121.531V10.1231H126.493V5.72897Z" fill="url(#paint0_linear)"/>
<path d="M13.8956 29.3284H9.07327V24.506H4.93981V29.3284H0.289673V33.4619H4.93981V38.112H9.07327V33.4619H13.8956V29.3284Z" fill="url(#paint1_linear)"/>
<path d="M58.7153 39.6151V50.9063" stroke="#D6DCE8" stroke-width="2" stroke-miterlimit="10"/>
<path d="M76.4163 45.7066V56.9979" stroke="#D6DCE8" stroke-width="2" stroke-miterlimit="10"/>
<defs>
<linearGradient id="paint0_linear" x1="119.406" y1="1.26516" x2="119.406" y2="9.30084" gradientUnits="userSpaceOnUse">
<stop stop-color="#B0BACC"/>
<stop offset="1" stop-color="#969EAE"/>
</linearGradient>
<linearGradient id="paint1_linear" x1="7.09373" y1="24.9787" x2="7.09373" y2="32.6156" gradientUnits="userSpaceOnUse">
<stop stop-color="#B0BACC"/>
<stop offset="1" stop-color="#969EAE"/>
</linearGradient>
</defs>
</svg>
