<svg width="282" height="80" viewBox="0 0 282 80" fill="none" xmlns="http://www.w3.org/2000/svg">
<path opacity="0.7" d="M82.7616 20.1387C79.1141 17.9004 52.238 19.5418 50.3183 18.7957C48.7825 17.9004 51.6621 2.82906 53.1979 0.739968C53.7738 -0.00613534 54.3497 -0.155356 55.6935 0.292306C57.8052 1.03841 86.0251 0.590748 86.0251 0.590748C86.4091 1.03841 87.5609 -0.453798 87.7529 0.143085C88.3288 1.33685 134.21 0.889189 138.05 0.889189C140.353 0.889189 138.434 1.78451 141.313 1.48607C147.264 0.889189 160.126 2.08295 164.734 1.33685C168.381 0.739968 169.149 0.739968 172.605 1.33685C176.06 1.93373 194.873 1.78451 196.985 0.739968C197.561 0.441527 197.945 0.590748 197.945 0.889189C197.945 0.889189 211.191 1.63529 211.191 1.78451C211.191 2.08295 211.767 2.23218 212.151 2.08295C212.919 1.78451 226.933 0.889189 227.125 1.93373C227.701 4.76893 225.589 16.5574 223.861 19.3926C222.133 22.377 212.919 18.6465 205.624 20.2879L171.261 19.3926L163.774 20.2879C163.006 19.2433 159.742 21.6309 157.631 19.8402C156.863 19.0941 150.912 18.7957 149.568 19.5418C148.416 20.1387 118.468 17.7511 115.397 19.691C110.214 18.1988 87.9449 19.9894 82.7616 20.1387Z" fill="#FF4AA1"/>
<path opacity="0.7" d="M183.355 5.66383C188.538 7.15603 222.901 0.888765 225.397 1.33643C227.701 1.93331 227.509 17.303 225.973 19.6906C225.397 20.5859 224.629 20.7351 222.901 20.5859C220.022 20.2875 183.547 25.6594 183.547 25.6594C182.971 25.2117 181.819 27.0024 181.435 26.4055C180.284 25.2117 121.348 33.7173 116.357 34.3142C113.285 34.7619 115.589 33.5681 111.942 34.3142C104.263 35.9556 87.3691 37.1494 81.8019 38.6416C77.1946 39.8354 76.2347 39.9846 71.6274 39.9846C67.02 39.9846 42.8315 43.5659 40.1439 44.9089C39.568 45.2073 38.9921 45.2073 38.9921 44.9089C38.9921 44.9089 21.7146 46.5503 21.7146 46.2519C21.5226 45.9534 20.9467 45.8042 20.5628 46.1026C19.7949 46.5503 1.74948 49.8332 1.17356 48.9378C-0.362216 46.2519 -0.362216 34.165 1.17356 31.1806C2.70934 27.8977 15.3795 29.9868 24.5942 27.0024L69.1317 21.6304L78.5384 19.3921C79.8822 20.2875 83.5296 17.303 86.4092 18.7952C87.5611 19.3921 95.24 18.646 96.7757 17.7507C98.1195 17.0046 137.282 14.0202 140.929 11.6327C148.416 12.3788 176.636 6.70837 183.355 5.66383Z" fill="#FF4AA1"/>
<path opacity="0.7" d="M49.3586 49.3855C43.2154 46.998 3.47719 49.684 0.789577 49.0871C-1.51409 48.341 1.74944 33.1205 3.86113 30.8822C4.62902 30.1361 5.58888 29.8376 7.70058 30.2853C8.46847 30.4345 11.924 30.4345 16.3393 30.4345C22.4824 30.2853 23.0584 30.2853 53.9659 29.6884C54.5418 30.1361 56.2696 28.6439 56.4615 29.2407C56.6535 29.5392 61.2608 29.6884 67.9799 29.8376C74.6989 29.9868 131.331 30.7329 132.866 30.8822C136.514 31.0314 133.634 31.7775 137.858 31.6283C146.88 31.3298 166.462 33.1205 173.373 32.822C178.94 32.5236 180.092 32.5236 185.275 33.4189C189.498 34.165 218.87 35.8065 222.326 35.0603C223.093 34.9111 223.669 35.0603 223.669 35.3588C223.669 35.3588 224.053 35.3588 224.437 35.508C224.821 35.6572 238.451 37.1494 240.371 37.2987C242.291 37.5971 243.443 37.7463 243.443 37.7463C243.634 38.0448 244.21 38.3432 244.786 38.194C245.938 37.8955 267.247 38.9401 267.439 39.8354C268.015 42.6706 263.024 54.1606 260.144 56.8466C257.073 59.6818 244.402 54.7575 232.884 55.5036C177.02 50.5793 180.476 51.4746 170.685 51.9223C169.533 50.8777 164.542 52.9668 161.662 51.027C160.51 50.2809 151.68 49.684 149.76 50.2809C147.84 50.8777 103.879 47.1472 98.6954 49.2363C91.4005 47.5949 67.02 48.6394 59.3411 48.9379C54.7338 49.0871 51.2783 49.2363 49.3586 49.3855Z" fill="#FF4AA1"/>
<path opacity="0.7" d="M222.517 36.5527C223.669 37.1496 227.124 37.5973 231.348 38.0449C233.46 38.1942 235.955 38.3434 238.451 38.4926C244.018 38.9403 266.095 40.134 268.015 40.8801C270.126 41.9247 263.983 56.5483 261.679 58.6374C260.912 59.3835 259.952 59.3835 258.224 58.7866C255.344 57.8913 231.156 56.3991 217.142 56.2499C216.758 55.8022 215.03 57.2944 214.838 56.6975C214.646 56.3991 210.615 55.9514 204.664 55.8022C198.713 55.653 190.65 55.5038 182.395 55.5038C180.283 55.5038 178.364 55.5038 176.252 55.5038C174.14 55.5038 162.622 55.8022 159.358 56.1007C152.831 56.3991 147.84 56.6975 146.688 56.6975C143.425 56.8468 145.92 55.9514 142.273 56.3991C134.21 57.4436 116.74 57.7421 110.789 59.0851C105.99 60.1296 105.03 60.1296 100.231 60.1296C99.079 60.1296 96.5834 60.2788 93.5118 60.7265C90.4403 61.0249 86.7928 61.4726 83.1453 62.0695C79.4978 62.6664 76.0423 63.2632 73.1628 63.7109C70.2832 64.3078 68.3635 64.7555 67.5956 65.2031C67.0196 65.6508 66.4437 65.5016 66.2518 65.2031C66.2518 65.2031 66.0598 65.2031 65.4839 65.2031C64.908 65.2031 59.5327 65.9492 57.421 66.0984C53.0057 66.6953 48.5903 67.2922 48.3983 67.143C48.2064 66.8445 47.6305 66.6953 47.2465 67.143C46.2867 67.5906 28.2413 72.0673 27.4734 71.1719C25.7456 68.6352 24.4018 56.6975 25.7456 53.4147C26.5135 51.7733 30.161 51.1764 34.9603 50.5795C39.7596 49.9826 45.5188 49.5349 50.51 47.7443C50.51 47.7443 51.2779 47.5951 52.6217 47.4458C53.9655 47.2966 55.6933 46.9982 57.997 46.6997C97.3513 41.0294 87.1767 44.0138 108.486 39.8356C109.829 40.7309 114.053 37.8957 116.932 39.5371C118.084 40.134 126.339 39.6864 128.067 38.9403C128.451 38.791 131.33 38.6418 135.554 38.4926C157.823 37.5973 173.18 37.8957 176.06 36.5527C182.203 37.7465 208.503 36.5527 222.517 36.5527Z" fill="#FF4AA1"/>
<path opacity="0.7" d="M91.0163 76.3948C86.601 74.4549 61.0686 80.4238 59.1489 79.9761C57.4212 79.3792 55.8854 64.1587 56.8453 61.7712C57.2292 60.8758 57.8051 60.7266 59.1489 60.8758C59.7248 61.0251 62.0285 60.7266 64.9081 60.279C67.9796 59.8313 89.8645 56.3992 89.8645 56.3992C90.2484 56.8469 91.2083 55.2054 91.4002 55.6531C91.5922 55.9516 94.6638 55.8023 99.2711 55.3547C103.878 54.907 141.889 51.0273 142.849 51.0273C145.344 50.878 143.425 51.9226 146.304 51.3257C152.255 50.2812 165.693 50.4304 170.301 49.5351C173.948 48.789 174.716 48.789 178.364 49.2366C180.283 49.5351 185.851 49.2366 191.418 49.0874C196.985 48.789 202.36 48.3413 203.512 47.8936C204.088 47.5952 204.472 47.7444 204.472 48.0429C204.472 48.0429 204.664 48.0429 205.048 48.0429C205.432 48.0429 209.655 48.1921 211.191 48.3413C214.646 48.4905 218.102 48.789 218.102 48.789C218.294 49.0874 218.678 49.2366 219.062 49.0874C219.83 48.6397 234.228 47.8936 234.42 48.9382C234.995 51.7734 232.5 63.5618 230.964 66.397C229.236 69.3814 220.214 65.6509 212.727 67.4415C199.097 67.2923 196.025 67.2923 178.364 67.5908L171.069 68.9338C170.109 67.8892 167.229 70.5752 164.926 68.7845C163.966 68.0384 158.207 68.1876 157.055 68.9338C156.863 69.083 154.751 69.2322 151.68 69.3814C148.416 69.5306 125.571 70.1275 123.268 72.0674C117.316 70.8736 96.9674 75.201 91.0163 76.3948Z" fill="#FF4AA1"/>
<path opacity="0.7" d="M249.394 13.5728C252.657 15.6618 279.341 14.9157 281.645 15.6618C283.181 16.5572 279.341 31.4792 277.613 33.7176C277.038 34.4637 276.462 34.6129 275.118 34.1652C272.814 33.2699 250.929 33.2699 246.898 33.2699C246.13 33.2699 245.746 33.2699 245.746 33.2699C245.362 32.8222 244.21 34.3144 244.018 33.7176C243.634 32.9715 232.5 32.8222 220.79 32.9715C212.727 33.1207 202.936 33.5683 195.257 33.8668C192.954 34.016 194.681 32.9715 191.994 33.4191C186.235 34.3144 173.756 33.8668 169.533 34.9113C166.078 35.8066 165.31 35.8066 162.046 35.359C160.318 35.2098 154.943 35.5082 149.76 36.1051C144.577 36.702 139.585 37.4481 138.626 38.045C138.242 38.3434 137.858 38.3434 137.666 37.8957C137.666 37.8957 137.474 37.8957 137.09 37.8957C136.706 37.8957 132.866 38.045 131.331 38.1942C128.067 38.3434 124.996 38.4926 124.804 38.3434C124.612 38.045 124.228 37.8957 123.844 38.1942C123.268 38.4926 110.022 41.1786 109.638 40.2833C108.486 37.5973 107.91 25.6596 108.87 22.6752C109.446 21.0338 112.133 20.8846 115.589 20.7353C119.044 20.5861 123.268 20.7354 126.723 19.3924C170.493 15.6618 154.559 18.1986 168.189 15.3634C169.149 16.2587 172.029 13.722 174.332 15.3634C175.292 16.1095 181.051 15.9603 182.395 15.2142C182.587 15.065 184.699 15.065 187.77 14.9157C194.681 14.7665 198.905 14.9157 204.664 14.7665C206.584 14.7665 208.503 14.7665 210.039 14.6173C213.303 14.4681 215.798 14.1696 216.566 13.722C219.254 14.6173 226.165 14.4681 233.076 14.1696C239.987 14.1696 246.706 13.722 249.394 13.5728Z" fill="#FF4AA1"/>
</svg>
