<svg width="375" height="812" viewBox="0 0 375 812" fill="none" xmlns="http://www.w3.org/2000/svg">
<g clip-path="url(#clip0_1_4099)">
<rect width="375" height="812" fill="#DD88CF"/>
<path opacity="0.08" d="M667.999 345.334C668.114 389.329 657.835 432.73 637.999 472C614.48 519.058 578.324 558.639 533.581 586.309C488.838 613.98 437.274 628.646 384.666 628.667C340.671 628.781 297.27 618.502 258 598.667L68 662L131.333 472C111.498 432.73 101.219 389.329 101.333 345.334C101.354 292.726 116.02 241.162 143.691 196.419C171.361 151.676 210.942 115.52 258 92.0009C297.27 72.1653 340.671 61.8862 384.666 62.0009H401.333C470.811 65.834 536.434 95.1596 585.637 144.363C634.84 193.566 664.166 259.189 667.999 328.667V345.334Z" fill="white"/>
<path d="M153.637 393.352L150.121 392.844V391.809H159.047V392.844L155.688 393.352V408.996C155.688 412.134 154.822 414.484 153.09 416.047C151.371 417.609 148.871 418.391 145.59 418.391C142.113 418.391 139.509 417.609 137.777 416.047C136.059 414.471 135.199 412.245 135.199 409.367V393.352L131.84 392.844V391.809H142.309V392.844L138.949 393.352V409.074C138.949 413.827 141.26 416.203 145.883 416.203C148.383 416.203 150.297 415.611 151.625 414.426C152.966 413.241 153.637 411.483 153.637 409.152V393.352ZM166.234 401.125C167.237 400.552 168.305 400.083 169.438 399.719C170.57 399.341 171.514 399.152 172.27 399.152C173.858 399.152 175.056 399.615 175.863 400.539C176.671 401.464 177.074 402.805 177.074 404.562V416.633L179.301 417.121V418H171.391V417.121L173.832 416.633V404.914C173.832 403.833 173.565 402.987 173.031 402.375C172.51 401.75 171.697 401.438 170.59 401.438C169.418 401.438 167.979 401.626 166.273 402.004V416.633L168.754 417.121V418H160.824V417.121L163.031 416.633V401.008L160.824 400.52V399.641H166.059L166.234 401.125ZM187.309 393.645C187.309 394.217 187.1 394.712 186.684 395.129C186.267 395.546 185.766 395.754 185.18 395.754C184.607 395.754 184.112 395.546 183.695 395.129C183.279 394.712 183.07 394.217 183.07 393.645C183.07 393.059 183.279 392.557 183.695 392.141C184.112 391.724 184.607 391.516 185.18 391.516C185.766 391.516 186.267 391.724 186.684 392.141C187.1 392.557 187.309 393.059 187.309 393.645ZM187.113 416.633L190.258 417.121V418H180.746V417.121L183.871 416.633V401.008L181.273 400.52V399.641H187.113V416.633ZM214.242 404.719C214.242 401.06 213.253 398.286 211.273 396.398C209.307 394.51 206.495 393.566 202.836 393.566H199.32V416.164C200.883 416.268 202.738 416.32 204.887 416.32C208.09 416.32 210.447 415.376 211.957 413.488C213.48 411.6 214.242 408.677 214.242 404.719ZM204.086 391.809C208.917 391.809 212.497 392.889 214.828 395.051C217.159 397.199 218.324 400.435 218.324 404.758C218.324 409.133 217.198 412.447 214.945 414.699C212.706 416.952 209.353 418.078 204.887 418.078L195.551 418H192.191V416.965L195.551 416.438V393.352L192.191 392.844V391.809H204.086ZM229.027 399.23C231.033 399.23 232.504 399.641 233.441 400.461C234.392 401.281 234.867 402.538 234.867 404.23V416.633L237.152 417.121V418H232.113L231.742 416.164C230.258 417.648 228.363 418.391 226.059 418.391C222.921 418.391 221.352 416.568 221.352 412.922C221.352 411.698 221.586 410.689 222.055 409.895C222.536 409.087 223.298 408.475 224.34 408.059C225.382 407.629 226.892 407.395 228.871 407.355L231.625 407.277V404.406C231.625 403.143 231.391 402.212 230.922 401.613C230.466 401.014 229.757 400.715 228.793 400.715C227.491 400.715 226.299 401.021 225.219 401.633L224.555 403.918H223.461V399.914C225.57 399.458 227.426 399.23 229.027 399.23ZM231.625 408.645L229.066 408.723C227.322 408.788 226.137 409.126 225.512 409.738C224.9 410.35 224.594 411.372 224.594 412.805C224.594 415.096 225.525 416.242 227.387 416.242C228.272 416.242 229.034 416.145 229.672 415.949C230.323 415.741 230.974 415.48 231.625 415.168V408.645ZM244.242 418.391C242.992 418.391 242.055 418.02 241.43 417.277C240.818 416.535 240.512 415.493 240.512 414.152V401.281H238.109V400.402L240.551 399.641L242.523 395.48H243.754V399.641H247.953V401.281H243.754V413.801C243.754 414.647 243.943 415.285 244.32 415.715C244.711 416.145 245.219 416.359 245.844 416.359C246.599 416.359 247.517 416.255 248.598 416.047V417.316C248.142 417.629 247.484 417.883 246.625 418.078C245.766 418.286 244.971 418.391 244.242 418.391ZM253.93 408.762V409.113C253.93 410.91 254.125 412.31 254.516 413.312C254.919 414.302 255.531 415.057 256.352 415.578C257.185 416.099 258.272 416.359 259.613 416.359C260.316 416.359 261.15 416.301 262.113 416.184C263.077 416.066 263.871 415.936 264.496 415.793V416.887C263.871 417.29 263.018 417.642 261.938 417.941C260.87 418.241 259.776 418.391 258.656 418.391C255.805 418.391 253.715 417.622 252.387 416.086C251.072 414.549 250.414 412.082 250.414 408.684C250.414 405.48 251.085 403.091 252.426 401.516C253.767 399.94 255.681 399.152 258.168 399.152C262.868 399.152 265.219 401.822 265.219 407.16V408.762H253.93ZM258.168 400.715C256.814 400.715 255.772 401.262 255.043 402.355C254.327 403.449 253.969 405.064 253.969 407.199H261.82C261.82 404.868 261.521 403.208 260.922 402.219C260.323 401.216 259.405 400.715 258.168 400.715Z" fill="white"/>
<path d="M119 405.111C119.006 407.458 118.458 409.772 117.4 411.867C116.146 414.376 114.217 416.487 111.831 417.963C109.445 419.439 106.695 420.221 103.889 420.222C101.542 420.228 99.2277 419.68 97.1333 418.622L87 422L90.3778 411.867C89.3199 409.772 88.7717 407.458 88.7778 405.111C88.7789 402.305 89.5611 399.555 91.0368 397.169C92.5126 394.783 94.6236 392.854 97.1333 391.6C99.2277 390.542 101.542 389.994 103.889 390H104.778C108.483 390.204 111.983 391.769 114.607 394.393C117.231 397.017 118.796 400.517 119 404.222V405.111Z" fill="#DD88CF" stroke="white" stroke-width="4" stroke-linecap="round" stroke-linejoin="round"/>
<path d="M112 406C112 408.122 111.157 410.157 109.657 411.657C108.157 413.157 106.122 414 104 414C101.878 414 99.8434 413.157 98.3431 411.657C96.8429 410.157 96 408.122 96 406L104 406H112Z" fill="white"/>
<circle cx="110" cy="400" r="2" fill="white"/>
<circle cx="104" cy="400" r="2" fill="white"/>
<circle cx="98" cy="400" r="2" fill="white"/>
<g opacity="0.08">
<rect x="121" y="799" width="134" height="5" rx="2.5" fill="white"/>
</g>
</g>
<defs>
<clipPath id="clip0_1_4099">
<rect width="375" height="812" fill="white"/>
</clipPath>
</defs>
</svg>
