<svg width="343" height="96" viewBox="0 0 343 96" fill="none" xmlns="http://www.w3.org/2000/svg">
<g filter="url(#filter0_b_634_10580)">
<path opacity="0.7" d="M113.762 24.1663C110.114 21.4804 83.238 23.4501 81.3183 22.5548C79.7825 21.4804 82.6621 3.39486 84.1979 0.88796C84.7738 -0.0073624 85.3497 -0.186427 86.6935 0.350767C88.8052 1.24609 117.025 0.708896 117.025 0.708896C117.409 1.24609 118.561 -0.544556 118.753 0.171702C119.329 1.60422 165.21 1.06702 169.05 1.06702C171.353 1.06702 169.434 2.14141 172.313 1.78328C178.264 1.06702 191.127 2.49954 195.734 1.60422C199.381 0.88796 200.149 0.88796 203.605 1.60422C207.06 2.32048 225.874 2.14141 227.985 0.88796C228.561 0.529831 228.945 0.708896 228.945 1.06702C228.945 1.06702 242.191 1.96235 242.191 2.14141C242.191 2.49954 242.767 2.67861 243.151 2.49954C243.919 2.14141 257.933 1.06702 258.125 2.32048C258.701 5.7227 256.589 19.8688 254.861 23.271C253.134 26.8523 243.919 22.3757 236.624 24.3454L202.261 23.271L194.774 24.3454C194.006 23.092 190.743 25.957 188.631 23.8082C187.863 22.9129 181.912 22.5548 180.568 23.4501C179.416 24.1663 149.468 21.3013 146.397 23.6292C141.214 21.8385 118.945 23.9873 113.762 24.1663Z" fill="white"/>
<path opacity="0.7" d="M214.355 6.79658C219.538 8.58723 253.901 1.06652 256.397 1.60371C258.701 2.31997 258.509 20.7636 256.973 23.6286C256.397 24.703 255.629 24.8821 253.901 24.703C251.022 24.3449 214.547 30.7912 214.547 30.7912C213.971 30.254 212.819 32.4028 212.435 31.6865C211.284 30.254 152.348 40.4607 147.357 41.177C144.285 41.7142 146.589 40.2816 142.941 41.177C135.262 43.1467 118.369 44.5792 112.802 46.3698C108.194 47.8024 107.235 47.9814 102.627 47.9814C98.0198 47.9814 73.8313 52.279 71.1437 53.8905C70.5678 54.2487 69.9919 54.2487 69.9919 53.8905C69.9919 53.8905 52.7144 55.8603 52.7144 55.5021C52.5224 55.144 51.9465 54.9649 51.5625 55.3231C50.7946 55.8603 32.7492 59.7997 32.1733 58.7253C30.6375 55.5021 30.6375 40.9979 32.1733 37.4166C33.7091 33.4772 46.3793 35.9841 55.5939 32.4028L100.132 25.9565L109.538 23.2705C110.882 24.3449 114.529 20.7636 117.409 22.5543C118.561 23.2705 126.24 22.3752 127.776 21.3008C129.119 20.4055 168.282 16.8242 171.929 13.9592C179.416 14.8545 207.636 8.05003 214.355 6.79658Z" fill="white"/>
<path opacity="0.7" d="M80.3586 59.2624C74.2155 56.3974 34.4772 59.6205 31.7896 58.9043C29.4859 58.0089 32.7494 39.7444 34.8611 37.0584C35.629 36.1631 36.5889 35.805 38.7006 36.3421C39.4685 36.5212 42.924 36.5212 47.3393 36.5212C53.4825 36.3421 54.0584 36.3421 84.9659 35.6259C85.5418 36.1631 87.2696 34.3724 87.4616 35.0887C87.6535 35.4468 92.2609 35.6259 98.9799 35.805C105.699 35.984 162.331 36.8793 163.867 37.0584C167.514 37.2375 164.634 38.1328 168.858 37.9537C177.881 37.5956 197.462 39.7444 204.373 39.3862C209.94 39.0281 211.092 39.0281 216.275 40.1025C220.498 40.9978 249.87 42.9675 253.326 42.0722C254.094 41.8931 254.669 42.0722 254.669 42.4303C254.669 42.4303 255.053 42.4303 255.437 42.6094C255.821 42.7885 269.451 44.5791 271.371 44.7582C273.291 45.1163 274.443 45.2954 274.443 45.2954C274.635 45.6535 275.211 46.0116 275.786 45.8326C276.938 45.4744 298.247 46.7279 298.439 47.8023C299.015 51.2045 294.024 64.9925 291.144 68.2156C288.073 71.6179 275.402 65.7087 263.884 66.604C208.02 60.6949 211.476 61.7693 201.685 62.3065C200.533 61.053 195.542 63.5599 192.662 61.2321C191.511 60.3368 182.68 59.6205 180.76 60.3368C178.84 61.053 134.879 56.5764 129.695 59.0833C122.401 57.1136 98.02 58.3671 90.3411 58.7252C85.7338 58.9043 82.2783 59.0833 80.3586 59.2624Z" fill="white"/>
<path opacity="0.7" d="M253.518 43.8633C254.669 44.5795 258.125 45.1167 262.348 45.6539C264.46 45.833 266.956 46.0121 269.451 46.1911C275.018 46.7283 297.095 48.1608 299.015 49.0562C301.127 50.3096 294.984 67.8579 292.68 70.3648C291.912 71.2602 290.952 71.2602 289.224 70.5439C286.345 69.4695 262.156 67.6789 248.142 67.4998C247.758 66.9626 246.031 68.7532 245.839 68.037C245.647 67.6789 241.615 67.1417 235.664 66.9626C229.713 66.7835 221.65 66.6045 213.395 66.6045C211.284 66.6045 209.364 66.6045 207.252 66.6045C205.141 66.6045 193.622 66.9626 190.359 67.3207C183.832 67.6789 178.84 68.037 177.688 68.037C174.425 68.2161 176.921 67.1417 173.273 67.6789C165.21 68.9323 147.741 69.2904 141.79 70.902C136.99 72.1555 136.03 72.1555 131.231 72.1555C130.079 72.1555 127.584 72.3345 124.512 72.8717C121.441 73.2299 117.793 73.7671 114.146 74.4833C110.498 75.1996 107.043 75.9158 104.163 76.453C101.283 77.1693 99.3637 77.7065 98.5958 78.2437C98.0199 78.7809 97.444 78.6018 97.252 78.2437C97.252 78.2437 97.0601 78.2437 96.4841 78.2437C95.9082 78.2437 90.533 79.139 88.4213 79.3181C84.0059 80.0343 79.5906 80.7506 79.3986 80.5715C79.2066 80.2134 78.6307 80.0343 78.2468 80.5715C77.2869 81.1087 59.2415 86.4806 58.4736 85.4062C56.7459 82.3621 55.4021 68.037 56.7459 64.0976C57.5138 62.1279 61.1612 61.4116 65.9605 60.6953C70.7598 59.9791 76.519 59.4419 81.5103 57.2931C81.5103 57.2931 82.2782 57.1141 83.622 56.935C84.9658 56.7559 86.6936 56.3978 88.9972 56.0397C128.352 49.2352 118.177 52.8165 139.486 47.8027C140.83 48.8771 145.053 45.4749 147.933 47.4446C149.085 48.1608 157.339 47.6236 159.067 46.7283C159.451 46.5492 162.331 46.3702 166.554 46.1911C188.823 45.1167 204.181 45.4749 207.06 43.8633C213.203 45.2958 239.504 43.8633 253.518 43.8633Z" fill="white"/>
<path opacity="0.7" d="M122.016 91.6734C117.601 89.3455 92.0684 96.5081 90.1487 95.9709C88.4209 95.2547 86.8852 76.9901 87.845 74.1251C88.229 73.0507 88.8049 72.8716 90.1487 73.0507C90.7246 73.2297 93.0283 72.8716 95.9078 72.3344C98.9794 71.7972 120.864 67.6787 120.864 67.6787C121.248 68.2159 122.208 66.2462 122.4 66.7834C122.592 67.1416 125.664 66.9625 130.271 66.4253C134.878 65.8881 172.889 61.2324 173.849 61.2324C176.344 61.0534 174.425 62.3068 177.304 61.5905C183.255 60.3371 196.693 60.5162 201.301 59.4418C204.948 58.5465 205.716 58.5465 209.364 59.0836C211.283 59.4418 216.85 59.0836 222.418 58.9046C227.985 58.5465 233.36 58.0093 234.512 57.4721C235.088 57.1139 235.472 57.293 235.472 57.6511C235.472 57.6511 235.664 57.6511 236.048 57.6511C236.432 57.6511 240.655 57.8302 242.191 58.0093C245.646 58.1883 249.102 58.5465 249.102 58.5465C249.294 58.9046 249.678 59.0836 250.062 58.9046C250.83 58.3674 265.227 57.4721 265.419 58.7255C265.995 62.1277 263.5 76.2738 261.964 79.6761C260.236 83.2574 251.213 78.7807 243.727 80.9295C230.097 80.7505 227.025 80.7505 209.364 81.1086L202.069 82.7202C201.109 81.4667 198.229 84.6899 195.925 82.5411C194.966 81.6458 189.206 81.8248 188.055 82.7202C187.863 82.8992 185.751 83.0783 182.679 83.2574C179.416 83.4364 156.571 84.1527 154.267 86.4805C148.316 85.048 127.967 90.2409 122.016 91.6734Z" fill="white"/>
<path opacity="0.7" d="M280.394 16.2871C283.657 18.794 310.341 17.8987 312.645 18.794C314.181 19.8684 310.341 37.7749 308.614 40.4608C308.038 41.3561 307.462 41.5352 306.118 40.998C303.814 39.9236 281.929 39.9236 277.898 39.9236C277.13 39.9236 276.746 39.9236 276.746 39.9236C276.362 39.3864 275.21 41.1771 275.018 40.4608C274.634 39.5655 263.5 39.3864 251.79 39.5655C243.727 39.7446 233.936 40.2818 226.257 40.6399C223.954 40.8189 225.682 39.5655 222.994 40.1027C217.235 41.1771 204.757 40.6399 200.533 41.8933C197.078 42.9677 196.31 42.9677 193.046 42.4305C191.318 42.2515 185.943 42.6096 180.76 43.3259C175.577 44.0421 170.585 44.9374 169.626 45.6537C169.242 46.0118 168.858 46.0118 168.666 45.4746C168.666 45.4746 168.474 45.4746 168.09 45.4746C167.706 45.4746 163.866 45.6537 162.331 45.8328C159.067 46.0118 155.996 46.1909 155.804 46.0118C155.612 45.6537 155.228 45.4746 154.844 45.8328C154.268 46.1909 141.022 49.414 140.638 48.3397C139.486 45.1165 138.91 30.7913 139.87 27.21C140.446 25.2403 143.133 25.0613 146.589 24.8822C150.044 24.7031 154.268 24.8822 157.723 23.2706C201.493 18.794 185.559 21.8381 199.189 18.4359C200.149 19.5103 203.029 16.4662 205.332 18.4359C206.292 19.3312 212.051 19.1521 213.395 18.2568C213.587 18.0778 215.699 18.0778 218.771 17.8987C225.682 17.7196 229.905 17.8987 235.664 17.7196C237.584 17.7196 239.504 17.7196 241.039 17.5406C244.303 17.3615 246.798 17.0034 247.566 16.4662C250.254 17.5406 257.165 17.3615 264.076 17.0034C270.987 17.0034 277.706 16.4662 280.394 16.2871Z" fill="white"/>
</g>
<path d="M125.156 20.96L126.816 15.2L125.616 11.38H124.476V11H130.676V11.38H129.496L132.476 20.84L134.876 11.38H132.856V11H136.856V11.38H135.536L131.856 25.2H130.076L127.116 16.16L124.516 25.2H122.776L117.736 11.38H116.796V11H123.296V11.38H121.896L125.156 20.96ZM137.169 10H141.989V17.32C142.202 16.7067 142.529 16.2133 142.969 15.84C143.409 15.4667 144.075 15.28 144.969 15.28C147.035 15.28 148.069 16.3933 148.069 18.62V24.64H149.189V25H143.529V24.64H144.349V18.14C144.349 17.34 144.295 16.8267 144.189 16.6C144.082 16.36 143.889 16.24 143.609 16.24C143.182 16.24 142.802 16.52 142.469 17.08C142.149 17.64 141.989 18.32 141.989 19.12V24.64H142.849V25H137.169V24.64H138.269V10.36H137.169V10ZM154.293 20.3H154.873V18.76C154.873 17.4933 154.8 16.6467 154.653 16.22C154.52 15.78 154.253 15.56 153.853 15.56C153.613 15.56 153.393 15.6267 153.193 15.76C153.006 15.88 152.913 16.0533 152.913 16.28C152.913 16.4933 152.953 16.7133 153.033 16.94H153.533C153.64 17.22 153.693 17.56 153.693 17.96C153.693 18.3467 153.526 18.6867 153.193 18.98C152.86 19.26 152.44 19.4 151.933 19.4C150.786 19.4 150.213 18.8467 150.213 17.74C150.213 16.1 151.606 15.28 154.393 15.28C155.98 15.28 157.073 15.5533 157.673 16.1C158.286 16.6333 158.593 17.62 158.593 19.06V23.12C158.593 23.8133 158.786 24.16 159.173 24.16C159.626 24.16 159.893 23.4733 159.973 22.1L160.273 22.12C160.22 23.2933 160 24.1 159.613 24.54C159.226 24.98 158.593 25.2 157.713 25.2C156.113 25.2 155.193 24.7067 154.953 23.72C154.78 24.2267 154.52 24.6 154.173 24.84C153.826 25.08 153.32 25.2 152.653 25.2C150.68 25.2 149.693 24.3933 149.693 22.78C149.693 21.8333 150.066 21.1867 150.813 20.84C151.573 20.48 152.733 20.3 154.293 20.3ZM153.493 22.76C153.493 23.4533 153.526 23.9 153.593 24.1C153.673 24.3 153.813 24.4 154.013 24.4C154.226 24.4 154.42 24.2333 154.593 23.9C154.78 23.5533 154.873 23.08 154.873 22.48V20.62H154.733C153.906 20.62 153.493 21.2267 153.493 22.44V22.76ZM161.177 22.14V15.84H160.077V15.48H161.177V12.9L164.897 11.98V15.48H167.497V15.84H164.897V22.58C164.897 23.2067 164.957 23.6667 165.077 23.96C165.21 24.2533 165.477 24.4 165.877 24.4C166.277 24.4 166.623 24.2 166.917 23.8C167.223 23.4 167.423 22.8533 167.517 22.16L167.857 22.2C167.75 23.12 167.457 23.8533 166.977 24.4C166.497 24.9333 165.703 25.2 164.597 25.2C163.49 25.2 162.643 24.98 162.057 24.54C161.47 24.1 161.177 23.3 161.177 22.14ZM169.117 15.96L168.937 15.68C170.177 14.8667 170.797 14.0533 170.797 13.24C170.797 12.8133 170.617 12.5733 170.257 12.52L169.417 13.3C169.15 13.2067 168.904 13.04 168.677 12.8C168.464 12.5467 168.357 12.2267 168.357 11.84C168.357 11.4533 168.51 11.1267 168.817 10.86C169.124 10.58 169.524 10.44 170.017 10.44C170.524 10.44 170.937 10.6133 171.257 10.96C171.59 11.2933 171.757 11.76 171.757 12.36C171.757 13.6667 170.877 14.8667 169.117 15.96ZM171.711 25.2V21.62H171.951C172.297 22.78 172.764 23.5933 173.351 24.06C173.937 24.5267 174.671 24.76 175.551 24.76C176.911 24.76 177.591 24.3267 177.591 23.46C177.591 23.0867 177.424 22.8067 177.091 22.62C176.571 22.3267 175.904 22.1 175.091 21.94C174.184 21.7 173.424 21.38 172.811 20.98C172.077 20.5 171.711 19.74 171.711 18.7C171.711 17.66 172.031 16.8333 172.671 16.22C173.311 15.5933 174.164 15.28 175.231 15.28C175.884 15.28 176.557 15.4333 177.251 15.74C177.504 15.8467 177.697 15.9 177.831 15.9C177.964 15.9 178.077 15.8533 178.171 15.76C178.264 15.6667 178.377 15.4933 178.511 15.24H178.731V18.3H178.491C177.811 16.5667 176.757 15.7 175.331 15.7C174.704 15.7 174.237 15.8133 173.931 16.04C173.624 16.2533 173.471 16.5267 173.471 16.86C173.471 17.06 173.517 17.22 173.611 17.34C173.704 17.4467 173.777 17.5267 173.831 17.58C173.884 17.6333 173.971 17.6933 174.091 17.76C174.211 17.8133 174.311 17.86 174.391 17.9C174.471 17.9267 174.591 17.9667 174.751 18.02C174.924 18.0733 175.051 18.1067 175.131 18.12C176.037 18.3467 176.691 18.5467 177.091 18.72C177.491 18.88 177.871 19.08 178.231 19.32C178.964 19.8267 179.331 20.6467 179.331 21.78C179.331 22.9 178.997 23.7533 178.331 24.34C177.664 24.9133 176.751 25.2 175.591 25.2C174.764 25.2 173.964 25.0067 173.191 24.62C173.031 24.5133 172.904 24.46 172.811 24.46C172.517 24.46 172.231 24.7067 171.951 25.2H171.711ZM183.416 15.84V15.48H189.216V15.84H188.136L190.316 22.48L192.636 15.84H191.296V15.48H194.116V15.84H193.116L189.376 26.62C188.936 27.8733 188.443 28.7467 187.896 29.24C187.35 29.7467 186.683 30 185.896 30C185.11 30 184.49 29.82 184.036 29.46C183.583 29.1 183.356 28.64 183.356 28.08C183.356 27.52 183.503 27.0933 183.796 26.8C184.09 26.5067 184.476 26.36 184.956 26.36C186.063 26.36 186.616 26.82 186.616 27.74C186.616 27.94 186.576 28.18 186.496 28.46H185.796C185.69 28.7667 185.676 29.02 185.756 29.22C185.836 29.42 186.016 29.52 186.296 29.52C186.843 29.52 187.33 29.2467 187.756 28.7C188.183 28.1667 188.59 27.3467 188.976 26.24L189.416 25H187.656L184.236 15.84H183.416ZM200.113 21.06V19.36C200.113 18.0667 200.04 17.1267 199.893 16.54C199.76 15.94 199.44 15.64 198.933 15.64C198.64 15.64 198.4 15.7267 198.213 15.9C198.04 16.06 197.913 16.3333 197.833 16.72C197.713 17.32 197.653 18.2333 197.653 19.46V21.02C197.653 22.4733 197.693 23.3467 197.773 23.64C197.866 23.9333 197.96 24.1733 198.053 24.36C198.2 24.68 198.486 24.84 198.913 24.84C199.433 24.84 199.773 24.54 199.933 23.94C200.053 23.5133 200.113 22.5533 200.113 21.06ZM198.873 25.2C197.206 25.2 195.946 24.7733 195.093 23.92C194.24 23.0667 193.813 21.8467 193.813 20.26C193.813 18.66 194.266 17.4333 195.173 16.58C196.093 15.7133 197.38 15.28 199.033 15.28C200.686 15.28 201.92 15.68 202.733 16.48C203.546 17.2667 203.953 18.4733 203.953 20.1C203.953 23.5 202.26 25.2 198.873 25.2ZM216.213 25H211.653L211.433 23.54C211.219 24.0733 210.899 24.4867 210.473 24.78C210.059 25.06 209.439 25.2 208.613 25.2C206.546 25.2 205.513 24.0867 205.513 21.86V15.84H204.393V15.48H209.233V22.34C209.233 23.14 209.286 23.6667 209.393 23.92C209.513 24.1733 209.739 24.3 210.073 24.3C210.419 24.3 210.726 24.0933 210.993 23.68C211.259 23.2667 211.393 22.6933 211.393 21.96V15.84H210.473V15.48H215.113V24.64H216.213V25ZM223.302 16.04C222.809 16.04 222.375 16.36 222.002 17C221.629 17.64 221.442 18.4 221.442 19.28V24.64H222.862V25H216.622V24.64H217.722V15.84H216.622V15.48H221.442V17.4C221.615 16.72 221.949 16.2 222.442 15.84C222.935 15.4667 223.495 15.28 224.122 15.28C224.749 15.28 225.255 15.46 225.642 15.82C226.042 16.1667 226.242 16.6667 226.242 17.32C226.242 17.96 226.095 18.4533 225.802 18.8C225.509 19.1467 225.055 19.32 224.442 19.32C223.842 19.32 223.395 19.12 223.102 18.72C222.822 18.32 222.789 17.7667 223.002 17.06H223.722C224.055 16.38 223.915 16.04 223.302 16.04Z" fill="black"/>
<path d="M146.445 73.0625C146.195 70.1875 145.867 67.3438 145.461 64.5312C145.07 61.7188 144.594 58.8828 144.031 56.0234C143.984 55.8359 143.922 55.6875 143.844 55.5781C143.781 55.4531 143.688 55.3906 143.562 55.3906C143.469 55.3906 143.359 55.3984 143.234 55.4141C143.125 55.4297 143.008 55.4375 142.883 55.4375C142.289 55.4375 141.828 55.2891 141.5 54.9922C141.172 54.6953 141.008 54.3203 141.008 53.8672C141.008 53.3516 141.219 52.8516 141.641 52.3672C142.078 51.8828 142.648 51.4297 143.352 51.0078C144.055 50.5703 144.859 50.1719 145.766 49.8125C146.672 49.4531 147.602 49.1484 148.555 48.8984C149.523 48.6328 150.477 48.4297 151.414 48.2891C152.352 48.1328 153.203 48.0547 153.969 48.0547C155.359 48.0547 156.555 48.2266 157.555 48.5703C158.57 48.9141 159.398 49.3672 160.039 49.9297C160.695 50.4922 161.172 51.1406 161.469 51.875C161.781 52.6094 161.938 53.3672 161.938 54.1484C161.938 54.9297 161.766 55.7891 161.422 56.7266C161.094 57.6484 160.531 58.5312 159.734 59.375C159.641 59.4844 159.578 59.5781 159.547 59.6562C159.516 59.7188 159.5 59.7891 159.5 59.8672C159.5 60.0078 159.656 60.1016 159.969 60.1484C160.875 60.2266 161.75 60.4453 162.594 60.8047C163.453 61.1641 164.203 61.6328 164.844 62.2109C165.484 62.7734 166 63.4375 166.391 64.2031C166.781 64.9688 166.977 65.7812 166.977 66.6406C166.977 67.8438 166.742 68.8984 166.273 69.8047C165.82 70.6953 165.188 71.4375 164.375 72.0312C163.562 72.625 162.594 73.0625 161.469 73.3438C160.359 73.6406 159.156 73.7891 157.859 73.7891C156.844 73.7891 155.82 73.6953 154.789 73.5078C153.773 73.3359 152.781 73.1094 151.812 72.8281C151.75 72.7969 151.656 72.7812 151.531 72.7812C151.266 72.7812 151.055 72.9375 150.898 73.25C150.633 73.7812 150.25 74.1953 149.75 74.4922C149.266 74.7891 148.773 74.9375 148.273 74.9375C147.82 74.9375 147.422 74.7891 147.078 74.4922C146.734 74.2109 146.523 73.7344 146.445 73.0625ZM150.992 64.1328C150.648 64.2578 150.477 64.5 150.477 64.8594C150.477 64.9062 150.492 65.0781 150.523 65.375C150.57 65.6719 150.625 65.9922 150.688 66.3359C150.75 66.7422 150.82 67.1797 150.898 67.6484C150.945 68.0547 151.156 68.3047 151.531 68.3984C152.016 68.5391 152.547 68.6875 153.125 68.8438C153.703 68.9844 154.305 69.1172 154.93 69.2422C155.555 69.3672 156.188 69.4688 156.828 69.5469C157.469 69.625 158.086 69.6641 158.68 69.6641C159.133 69.6641 159.57 69.6172 159.992 69.5234C160.414 69.4141 160.789 69.25 161.117 69.0312C161.445 68.8125 161.703 68.5391 161.891 68.2109C162.094 67.8672 162.195 67.4531 162.195 66.9688C162.195 66.2656 162 65.6719 161.609 65.1875C161.219 64.7031 160.727 64.3125 160.133 64.0156C159.539 63.7188 158.891 63.5078 158.188 63.3828C157.484 63.2422 156.82 63.1719 156.195 63.1719C155.352 63.1719 154.492 63.2656 153.617 63.4531C152.758 63.6406 151.883 63.8672 150.992 64.1328ZM149.188 52.9531C149.016 53 148.883 53.0547 148.789 53.1172C148.695 53.1797 148.648 53.2969 148.648 53.4688C148.648 53.6406 148.68 53.9531 148.742 54.4062C148.82 54.8438 148.906 55.3438 149 55.9062C149.109 56.4688 149.219 57.0547 149.328 57.6641C149.453 58.2578 149.562 58.7969 149.656 59.2812C149.688 59.5781 149.75 59.7812 149.844 59.8906C149.953 60 150.086 60.0547 150.242 60.0547C150.336 60.0547 150.453 60.0391 150.594 60.0078C150.75 59.9609 150.953 59.8984 151.203 59.8203C151.844 59.6172 152.516 59.3906 153.219 59.1406C153.938 58.875 154.586 58.5625 155.164 58.2031C155.758 57.8438 156.242 57.4219 156.617 56.9375C157.008 56.4375 157.203 55.8594 157.203 55.2031C157.203 54.6875 157.094 54.2578 156.875 53.9141C156.656 53.5547 156.352 53.2656 155.961 53.0469C155.57 52.8125 155.117 52.6484 154.602 52.5547C154.086 52.4609 153.523 52.4141 152.914 52.4141C152.289 52.4141 151.656 52.4609 151.016 52.5547C150.391 52.6484 149.781 52.7812 149.188 52.9531ZM171.57 47.0938C171.117 47.0938 170.688 47.0312 170.281 46.9062C169.891 46.7656 169.547 46.5781 169.25 46.3438C168.969 46.0938 168.742 45.8047 168.57 45.4766C168.398 45.1484 168.312 44.7891 168.312 44.3984C168.312 43.7422 168.57 43.2109 169.086 42.8047C169.617 42.3984 170.32 42.1953 171.195 42.1953C171.602 42.1953 171.992 42.2734 172.367 42.4297C172.742 42.5703 173.07 42.7656 173.352 43.0156C173.648 43.2656 173.883 43.5625 174.055 43.9062C174.227 44.2344 174.312 44.5781 174.312 44.9375C174.312 45.6094 174.062 46.1406 173.562 46.5312C173.078 46.9062 172.414 47.0938 171.57 47.0938ZM168.359 54.2422C168.359 53.6953 168.594 53.25 169.062 52.9062C169.547 52.5469 170.18 52.3672 170.961 52.3672C172.367 52.3672 173.117 52.8516 173.211 53.8203C173.273 54.4922 173.336 55.25 173.398 56.0938C173.477 56.9375 173.547 57.8359 173.609 58.7891C173.688 59.7266 173.75 60.7031 173.797 61.7188C173.859 62.7188 173.914 63.7109 173.961 64.6953C174.008 65.6641 174.047 66.6016 174.078 67.5078C174.109 68.4141 174.125 69.2422 174.125 69.9922C174.125 70.7734 173.844 71.3594 173.281 71.75C172.734 72.1406 171.93 72.3359 170.867 72.3359C170.383 72.3359 170 72.2188 169.719 71.9844C169.453 71.7656 169.32 71.4375 169.32 71C169.32 68.8438 169.266 66.8281 169.156 64.9531C169.062 63.0625 168.953 61.3828 168.828 59.9141C168.719 58.4453 168.609 57.2266 168.5 56.2578C168.406 55.2734 168.359 54.6016 168.359 54.2422ZM178.766 63.2188C178.766 62.9531 178.797 62.6562 178.859 62.3281C178.922 62 178.953 61.6406 178.953 61.25C178.953 60.9844 178.836 60.7812 178.602 60.6406C178.383 60.5 178.133 60.3438 177.852 60.1719C177.57 60 177.312 59.7812 177.078 59.5156C176.859 59.25 176.75 58.8672 176.75 58.3672C176.75 58.0078 176.844 57.6484 177.031 57.2891C177.234 56.9297 177.523 56.6016 177.898 56.3047C178.82 55.6172 179.773 55 180.758 54.4531C181.758 53.9062 182.75 53.4453 183.734 53.0703C184.734 52.6953 185.719 52.4062 186.688 52.2031C187.656 52 188.586 51.8984 189.477 51.8984C190.977 51.8984 192.383 52.1797 193.695 52.7422C195.023 53.2891 196.172 54.0469 197.141 55.0156C198.125 55.9688 198.898 57.0938 199.461 58.3906C200.039 59.6719 200.328 61.0469 200.328 62.5156C200.328 63.9531 200.023 65.3203 199.414 66.6172C198.82 67.8984 198.016 69.0234 197 69.9922C195.984 70.9609 194.789 71.7266 193.414 72.2891C192.055 72.8672 190.617 73.1562 189.102 73.1562C187.617 73.1562 186.242 72.9062 184.977 72.4062C183.711 71.9062 182.617 71.2188 181.695 70.3438C180.773 69.4531 180.055 68.4062 179.539 67.2031C179.023 65.9844 178.766 64.6562 178.766 63.2188ZM189.617 68.9375C190.273 68.9375 190.953 68.8047 191.656 68.5391C192.359 68.2734 193 67.8906 193.578 67.3906C194.172 66.875 194.656 66.25 195.031 65.5156C195.422 64.7812 195.617 63.9531 195.617 63.0312C195.617 62.0938 195.445 61.2188 195.102 60.4062C194.758 59.5938 194.281 58.8906 193.672 58.2969C193.078 57.6875 192.367 57.2109 191.539 56.8672C190.727 56.5234 189.844 56.3516 188.891 56.3516C187.156 56.3516 185.828 56.8047 184.906 57.7109C183.984 58.6016 183.523 59.9766 183.523 61.8359C183.523 62.8516 183.672 63.7969 183.969 64.6719C184.281 65.5312 184.711 66.2812 185.258 66.9219C185.805 67.5469 186.445 68.0391 187.18 68.3984C187.93 68.7578 188.742 68.9375 189.617 68.9375Z" fill="#583A73"/>
<defs>
<filter id="filter0_b_634_10580" x="1" y="-30" width="342" height="156" filterUnits="userSpaceOnUse" color-interpolation-filters="sRGB">
<feFlood flood-opacity="0" result="BackgroundImageFix"/>
<feGaussianBlur in="BackgroundImageFix" stdDeviation="15"/>
<feComposite in2="SourceAlpha" operator="in" result="effect1_backgroundBlur_634_10580"/>
<feBlend mode="normal" in="SourceGraphic" in2="effect1_backgroundBlur_634_10580" result="shape"/>
</filter>
</defs>
</svg>
