<svg width="343" height="96" viewBox="0 0 343 96" fill="none" xmlns="http://www.w3.org/2000/svg">
<g filter="url(#filter0_b_634_10580)">
<path opacity="0.7" d="M113.762 24.1663C110.114 21.4804 83.238 23.4501 81.3183 22.5548C79.7825 21.4804 82.6621 3.39486 84.1979 0.88796C84.7738 -0.0073624 85.3497 -0.186427 86.6935 0.350767C88.8052 1.24609 117.025 0.708896 117.025 0.708896C117.409 1.24609 118.561 -0.544556 118.753 0.171702C119.329 1.60422 165.21 1.06702 169.05 1.06702C171.353 1.06702 169.434 2.14141 172.313 1.78328C178.264 1.06702 191.127 2.49954 195.734 1.60422C199.381 0.88796 200.149 0.88796 203.605 1.60422C207.06 2.32048 225.874 2.14141 227.985 0.88796C228.561 0.529831 228.945 0.708896 228.945 1.06702C228.945 1.06702 242.191 1.96235 242.191 2.14141C242.191 2.49954 242.767 2.67861 243.151 2.49954C243.919 2.14141 257.933 1.06702 258.125 2.32048C258.701 5.7227 256.589 19.8688 254.861 23.271C253.134 26.8523 243.919 22.3757 236.624 24.3454L202.261 23.271L194.774 24.3454C194.006 23.092 190.743 25.957 188.631 23.8082C187.863 22.9129 181.912 22.5548 180.568 23.4501C179.416 24.1663 149.468 21.3013 146.397 23.6292C141.214 21.8385 118.945 23.9873 113.762 24.1663Z" fill="white"/>
<path opacity="0.7" d="M214.355 6.79658C219.538 8.58723 253.901 1.06652 256.397 1.60371C258.701 2.31997 258.509 20.7636 256.973 23.6286C256.397 24.703 255.629 24.8821 253.901 24.703C251.022 24.3449 214.547 30.7912 214.547 30.7912C213.971 30.254 212.819 32.4028 212.435 31.6865C211.284 30.254 152.348 40.4607 147.357 41.177C144.285 41.7142 146.589 40.2816 142.941 41.177C135.262 43.1467 118.369 44.5792 112.802 46.3698C108.194 47.8024 107.235 47.9814 102.627 47.9814C98.0198 47.9814 73.8313 52.279 71.1437 53.8905C70.5678 54.2487 69.9919 54.2487 69.9919 53.8905C69.9919 53.8905 52.7144 55.8603 52.7144 55.5021C52.5224 55.144 51.9465 54.9649 51.5625 55.3231C50.7946 55.8603 32.7492 59.7997 32.1733 58.7253C30.6375 55.5021 30.6375 40.9979 32.1733 37.4166C33.7091 33.4772 46.3793 35.9841 55.5939 32.4028L100.132 25.9565L109.538 23.2705C110.882 24.3449 114.529 20.7636 117.409 22.5543C118.561 23.2705 126.24 22.3752 127.776 21.3008C129.119 20.4055 168.282 16.8242 171.929 13.9592C179.416 14.8545 207.636 8.05003 214.355 6.79658Z" fill="white"/>
<path opacity="0.7" d="M80.3586 59.2624C74.2155 56.3974 34.4772 59.6205 31.7896 58.9043C29.4859 58.0089 32.7494 39.7444 34.8611 37.0584C35.629 36.1631 36.5889 35.805 38.7006 36.3421C39.4685 36.5212 42.924 36.5212 47.3393 36.5212C53.4825 36.3421 54.0584 36.3421 84.9659 35.6259C85.5418 36.1631 87.2696 34.3724 87.4616 35.0887C87.6535 35.4468 92.2609 35.6259 98.9799 35.805C105.699 35.984 162.331 36.8793 163.867 37.0584C167.514 37.2375 164.634 38.1328 168.858 37.9537C177.881 37.5956 197.462 39.7444 204.373 39.3862C209.94 39.0281 211.092 39.0281 216.275 40.1025C220.498 40.9978 249.87 42.9675 253.326 42.0722C254.094 41.8931 254.669 42.0722 254.669 42.4303C254.669 42.4303 255.053 42.4303 255.437 42.6094C255.821 42.7885 269.451 44.5791 271.371 44.7582C273.291 45.1163 274.443 45.2954 274.443 45.2954C274.635 45.6535 275.211 46.0116 275.786 45.8326C276.938 45.4744 298.247 46.7279 298.439 47.8023C299.015 51.2045 294.024 64.9925 291.144 68.2156C288.073 71.6179 275.402 65.7087 263.884 66.604C208.02 60.6949 211.476 61.7693 201.685 62.3065C200.533 61.053 195.542 63.5599 192.662 61.2321C191.511 60.3368 182.68 59.6205 180.76 60.3368C178.84 61.053 134.879 56.5764 129.695 59.0833C122.401 57.1136 98.02 58.3671 90.3411 58.7252C85.7338 58.9043 82.2783 59.0833 80.3586 59.2624Z" fill="white"/>
<path opacity="0.7" d="M253.518 43.8633C254.669 44.5795 258.125 45.1167 262.348 45.6539C264.46 45.833 266.956 46.0121 269.451 46.1911C275.018 46.7283 297.095 48.1608 299.015 49.0562C301.127 50.3096 294.984 67.8579 292.68 70.3648C291.912 71.2602 290.952 71.2602 289.224 70.5439C286.345 69.4695 262.156 67.6789 248.142 67.4998C247.758 66.9626 246.031 68.7532 245.839 68.037C245.647 67.6789 241.615 67.1417 235.664 66.9626C229.713 66.7835 221.65 66.6045 213.395 66.6045C211.284 66.6045 209.364 66.6045 207.252 66.6045C205.141 66.6045 193.622 66.9626 190.359 67.3207C183.832 67.6789 178.84 68.037 177.688 68.037C174.425 68.2161 176.921 67.1417 173.273 67.6789C165.21 68.9323 147.741 69.2904 141.79 70.902C136.99 72.1555 136.03 72.1555 131.231 72.1555C130.079 72.1555 127.584 72.3345 124.512 72.8717C121.441 73.2299 117.793 73.7671 114.146 74.4833C110.498 75.1996 107.043 75.9158 104.163 76.453C101.283 77.1693 99.3637 77.7065 98.5958 78.2437C98.0199 78.7809 97.444 78.6018 97.252 78.2437C97.252 78.2437 97.0601 78.2437 96.4841 78.2437C95.9082 78.2437 90.533 79.139 88.4213 79.3181C84.0059 80.0343 79.5906 80.7506 79.3986 80.5715C79.2066 80.2134 78.6307 80.0343 78.2468 80.5715C77.2869 81.1087 59.2415 86.4806 58.4736 85.4062C56.7459 82.3621 55.4021 68.037 56.7459 64.0976C57.5138 62.1279 61.1612 61.4116 65.9605 60.6953C70.7598 59.9791 76.519 59.4419 81.5103 57.2931C81.5103 57.2931 82.2782 57.1141 83.622 56.935C84.9658 56.7559 86.6936 56.3978 88.9972 56.0397C128.352 49.2352 118.177 52.8165 139.486 47.8027C140.83 48.8771 145.053 45.4749 147.933 47.4446C149.085 48.1608 157.339 47.6236 159.067 46.7283C159.451 46.5492 162.331 46.3702 166.554 46.1911C188.823 45.1167 204.181 45.4749 207.06 43.8633C213.203 45.2958 239.504 43.8633 253.518 43.8633Z" fill="white"/>
<path opacity="0.7" d="M122.016 91.6734C117.601 89.3455 92.0684 96.5081 90.1487 95.9709C88.4209 95.2547 86.8852 76.9901 87.845 74.1251C88.229 73.0507 88.8049 72.8716 90.1487 73.0507C90.7246 73.2297 93.0283 72.8716 95.9078 72.3344C98.9794 71.7972 120.864 67.6787 120.864 67.6787C121.248 68.2159 122.208 66.2462 122.4 66.7834C122.592 67.1416 125.664 66.9625 130.271 66.4253C134.878 65.8881 172.889 61.2324 173.849 61.2324C176.344 61.0534 174.425 62.3068 177.304 61.5905C183.255 60.3371 196.693 60.5162 201.301 59.4418C204.948 58.5465 205.716 58.5465 209.364 59.0836C211.283 59.4418 216.85 59.0836 222.418 58.9046C227.985 58.5465 233.36 58.0093 234.512 57.4721C235.088 57.1139 235.472 57.293 235.472 57.6511C235.472 57.6511 235.664 57.6511 236.048 57.6511C236.432 57.6511 240.655 57.8302 242.191 58.0093C245.646 58.1883 249.102 58.5465 249.102 58.5465C249.294 58.9046 249.678 59.0836 250.062 58.9046C250.83 58.3674 265.227 57.4721 265.419 58.7255C265.995 62.1277 263.5 76.2738 261.964 79.6761C260.236 83.2574 251.213 78.7807 243.727 80.9295C230.097 80.7505 227.025 80.7505 209.364 81.1086L202.069 82.7202C201.109 81.4667 198.229 84.6899 195.925 82.5411C194.966 81.6458 189.206 81.8248 188.055 82.7202C187.863 82.8992 185.751 83.0783 182.679 83.2574C179.416 83.4364 156.571 84.1527 154.267 86.4805C148.316 85.048 127.967 90.2409 122.016 91.6734Z" fill="white"/>
<path opacity="0.7" d="M280.394 16.2871C283.657 18.794 310.341 17.8987 312.645 18.794C314.181 19.8684 310.341 37.7749 308.614 40.4608C308.038 41.3561 307.462 41.5352 306.118 40.998C303.814 39.9236 281.929 39.9236 277.898 39.9236C277.13 39.9236 276.746 39.9236 276.746 39.9236C276.362 39.3864 275.21 41.1771 275.018 40.4608C274.634 39.5655 263.5 39.3864 251.79 39.5655C243.727 39.7446 233.936 40.2818 226.257 40.6399C223.954 40.8189 225.682 39.5655 222.994 40.1027C217.235 41.1771 204.757 40.6399 200.533 41.8933C197.078 42.9677 196.31 42.9677 193.046 42.4305C191.318 42.2515 185.943 42.6096 180.76 43.3259C175.577 44.0421 170.585 44.9374 169.626 45.6537C169.242 46.0118 168.858 46.0118 168.666 45.4746C168.666 45.4746 168.474 45.4746 168.09 45.4746C167.706 45.4746 163.866 45.6537 162.331 45.8328C159.067 46.0118 155.996 46.1909 155.804 46.0118C155.612 45.6537 155.228 45.4746 154.844 45.8328C154.268 46.1909 141.022 49.414 140.638 48.3397C139.486 45.1165 138.91 30.7913 139.87 27.21C140.446 25.2403 143.133 25.0613 146.589 24.8822C150.044 24.7031 154.268 24.8822 157.723 23.2706C201.493 18.794 185.559 21.8381 199.189 18.4359C200.149 19.5103 203.029 16.4662 205.332 18.4359C206.292 19.3312 212.051 19.1521 213.395 18.2568C213.587 18.0778 215.699 18.0778 218.771 17.8987C225.682 17.7196 229.905 17.8987 235.664 17.7196C237.584 17.7196 239.504 17.7196 241.039 17.5406C244.303 17.3615 246.798 17.0034 247.566 16.4662C250.254 17.5406 257.165 17.3615 264.076 17.0034C270.987 17.0034 277.706 16.4662 280.394 16.2871Z" fill="white"/>
</g>
<path d="M157.545 17.58L160.385 11.32H158.365V11H162.305V11.32H160.985L157.965 18V24.62H159.185V25H152.845V24.62H154.065V18.38L150.665 11.32H149.725V11H156.125V11.32H154.825L157.545 17.58ZM167.183 21.06V19.36C167.183 18.0667 167.11 17.1267 166.963 16.54C166.83 15.94 166.51 15.64 166.003 15.64C165.71 15.64 165.47 15.7267 165.283 15.9C165.11 16.06 164.983 16.3333 164.903 16.72C164.783 17.32 164.723 18.2333 164.723 19.46V21.02C164.723 22.4733 164.763 23.3467 164.843 23.64C164.937 23.9333 165.03 24.1733 165.123 24.36C165.27 24.68 165.557 24.84 165.983 24.84C166.503 24.84 166.843 24.54 167.003 23.94C167.123 23.5133 167.183 22.5533 167.183 21.06ZM165.943 25.2C164.277 25.2 163.017 24.7733 162.163 23.92C161.31 23.0667 160.883 21.8467 160.883 20.26C160.883 18.66 161.337 17.4333 162.243 16.58C163.163 15.7133 164.45 15.28 166.103 15.28C167.757 15.28 168.99 15.68 169.803 16.48C170.617 17.2667 171.023 18.4733 171.023 20.1C171.023 23.5 169.33 25.2 165.943 25.2ZM183.283 25H178.723L178.503 23.54C178.289 24.0733 177.969 24.4867 177.543 24.78C177.129 25.06 176.509 25.2 175.683 25.2C173.616 25.2 172.583 24.0867 172.583 21.86V15.84H171.463V15.48H176.303V22.34C176.303 23.14 176.356 23.6667 176.463 23.92C176.583 24.1733 176.809 24.3 177.143 24.3C177.489 24.3 177.796 24.0933 178.063 23.68C178.329 23.2667 178.463 22.6933 178.463 21.96V15.84H177.543V15.48H182.183V24.64H183.283V25ZM190.372 16.04C189.879 16.04 189.446 16.36 189.072 17C188.699 17.64 188.512 18.4 188.512 19.28V24.64H189.932V25H183.692V24.64H184.792V15.84H183.692V15.48H188.512V17.4C188.686 16.72 189.019 16.2 189.512 15.84C190.006 15.4667 190.566 15.28 191.192 15.28C191.819 15.28 192.326 15.46 192.712 15.82C193.112 16.1667 193.312 16.6667 193.312 17.32C193.312 17.96 193.166 18.4533 192.872 18.8C192.579 19.1467 192.126 19.32 191.512 19.32C190.912 19.32 190.466 19.12 190.172 18.72C189.892 18.32 189.859 17.7667 190.072 17.06H190.792C191.126 16.38 190.986 16.04 190.372 16.04Z" fill="black"/>
<path d="M97.8828 72.5938C97.4297 72.6719 97.0234 72.7578 96.6641 72.8516C96.3047 72.9609 95.8594 73.0156 95.3281 73.0156C94.75 73.0156 94.3047 72.8516 93.9922 72.5234C93.6797 72.1953 93.5234 71.8281 93.5234 71.4219C93.5234 71.0938 93.5781 70.6719 93.6875 70.1562C93.7969 69.625 93.8516 69.0938 93.8516 68.5625C93.7422 66.5469 93.5938 64.5547 93.4062 62.5859C93.2344 60.6016 93.0625 58.7891 92.8906 57.1484C92.7188 55.5078 92.5703 54.1094 92.4453 52.9531C92.3203 51.7812 92.2578 50.9844 92.2578 50.5625C92.2578 50.2812 92.3281 50.0234 92.4688 49.7891C92.6094 49.5391 92.8047 49.3203 93.0547 49.1328C93.3047 48.9453 93.5938 48.8047 93.9219 48.7109C94.2656 48.6016 94.625 48.5469 95 48.5469C95.7344 48.5469 96.2734 48.6641 96.6172 48.8984C96.9609 49.1172 97.1719 49.4766 97.25 49.9766C97.6875 53.3359 98 56.4219 98.1875 59.2344C98.3906 62.0312 98.5312 64.6562 98.6094 67.1094C98.6094 67.4688 98.7031 67.7422 98.8906 67.9297C99.0938 68.1172 99.3516 68.2109 99.6641 68.2109C100.289 68.2109 100.922 68.1797 101.562 68.1172C102.203 68.0391 102.844 67.9609 103.484 67.8828C104.125 67.8047 104.758 67.7344 105.383 67.6719C106.023 67.5938 106.641 67.5547 107.234 67.5547C107.625 67.5547 107.938 67.6016 108.172 67.6953C108.422 67.7891 108.609 67.9141 108.734 68.0703C108.875 68.2266 108.961 68.4062 108.992 68.6094C109.039 68.7969 109.062 68.9844 109.062 69.1719C109.062 69.4688 109.031 69.7656 108.969 70.0625C108.906 70.3594 108.797 70.6328 108.641 70.8828C108.484 71.1172 108.273 71.3125 108.008 71.4688C107.742 71.6406 107.406 71.7422 107 71.7734C105.078 71.9609 103.32 72.1016 101.727 72.1953C100.148 72.2891 98.8672 72.4219 97.8828 72.5938ZM109.695 63.2188C109.695 62.9531 109.727 62.6562 109.789 62.3281C109.852 62 109.883 61.6406 109.883 61.25C109.883 60.9844 109.766 60.7812 109.531 60.6406C109.312 60.5 109.062 60.3438 108.781 60.1719C108.5 60 108.242 59.7812 108.008 59.5156C107.789 59.25 107.68 58.8672 107.68 58.3672C107.68 58.0078 107.773 57.6484 107.961 57.2891C108.164 56.9297 108.453 56.6016 108.828 56.3047C109.75 55.6172 110.703 55 111.688 54.4531C112.688 53.9062 113.68 53.4453 114.664 53.0703C115.664 52.6953 116.648 52.4062 117.617 52.2031C118.586 52 119.516 51.8984 120.406 51.8984C121.906 51.8984 123.312 52.1797 124.625 52.7422C125.953 53.2891 127.102 54.0469 128.07 55.0156C129.055 55.9688 129.828 57.0938 130.391 58.3906C130.969 59.6719 131.258 61.0469 131.258 62.5156C131.258 63.9531 130.953 65.3203 130.344 66.6172C129.75 67.8984 128.945 69.0234 127.93 69.9922C126.914 70.9609 125.719 71.7266 124.344 72.2891C122.984 72.8672 121.547 73.1562 120.031 73.1562C118.547 73.1562 117.172 72.9062 115.906 72.4062C114.641 71.9062 113.547 71.2188 112.625 70.3438C111.703 69.4531 110.984 68.4062 110.469 67.2031C109.953 65.9844 109.695 64.6562 109.695 63.2188ZM120.547 68.9375C121.203 68.9375 121.883 68.8047 122.586 68.5391C123.289 68.2734 123.93 67.8906 124.508 67.3906C125.102 66.875 125.586 66.25 125.961 65.5156C126.352 64.7812 126.547 63.9531 126.547 63.0312C126.547 62.0938 126.375 61.2188 126.031 60.4062C125.688 59.5938 125.211 58.8906 124.602 58.2969C124.008 57.6875 123.297 57.2109 122.469 56.8672C121.656 56.5234 120.773 56.3516 119.82 56.3516C118.086 56.3516 116.758 56.8047 115.836 57.7109C114.914 58.6016 114.453 59.9766 114.453 61.8359C114.453 62.8516 114.602 63.7969 114.898 64.6719C115.211 65.5312 115.641 66.2812 116.188 66.9219C116.734 67.5469 117.375 68.0391 118.109 68.3984C118.859 68.7578 119.672 68.9375 120.547 68.9375ZM142.602 51.6641C143.414 51.6641 144.203 51.7812 144.969 52.0156C145.734 52.25 146.406 52.5703 146.984 52.9766C147.578 53.3672 148.055 53.8203 148.414 54.3359C148.773 54.8359 148.953 55.3516 148.953 55.8828C148.953 56.2266 148.883 56.5625 148.742 56.8906C148.602 57.2031 148.414 57.4844 148.18 57.7344C147.945 57.9688 147.68 58.1641 147.383 58.3203C147.086 58.4609 146.773 58.5312 146.445 58.5312C146.086 58.5312 145.758 58.3984 145.461 58.1328C145.164 57.8516 144.844 57.5469 144.5 57.2188C144.172 56.875 143.797 56.5703 143.375 56.3047C142.969 56.0234 142.477 55.8828 141.898 55.8828C141.336 55.8828 140.828 56.0156 140.375 56.2812C139.922 56.5469 139.539 56.9219 139.227 57.4062C138.93 57.875 138.695 58.4375 138.523 59.0938C138.367 59.7344 138.289 60.4375 138.289 61.2031C138.289 63.3906 138.703 65.0625 139.531 66.2188C140.359 67.3594 141.547 67.9297 143.094 67.9297C143.828 67.9297 144.453 67.8125 144.969 67.5781C145.5 67.3438 145.961 67.0859 146.352 66.8047C146.758 66.5234 147.125 66.2656 147.453 66.0312C147.781 65.7969 148.117 65.6797 148.461 65.6797C148.648 65.6797 148.836 65.7422 149.023 65.8672C149.211 65.9766 149.375 66.125 149.516 66.3125C149.672 66.4844 149.797 66.6797 149.891 66.8984C150 67.1172 150.055 67.3359 150.055 67.5547C150.055 68.0703 149.797 68.6016 149.281 69.1484C148.781 69.6953 148.133 70.1953 147.336 70.6484C146.539 71.0859 145.648 71.4453 144.664 71.7266C143.695 72.0078 142.75 72.1484 141.828 72.1484C140.594 72.1484 139.461 71.9062 138.43 71.4219C137.398 70.9531 136.508 70.2969 135.758 69.4531C135.008 68.5938 134.422 67.5703 134 66.3828C133.594 65.1953 133.391 63.8828 133.391 62.4453C133.391 60.8828 133.617 59.4453 134.07 58.1328C134.539 56.8203 135.18 55.6875 135.992 54.7344C136.82 53.7656 137.797 53.0156 138.922 52.4844C140.047 51.9375 141.273 51.6641 142.602 51.6641ZM165.359 50.5156C166.219 50.5156 167.047 50.6484 167.844 50.9141C168.641 51.1797 169.344 51.5469 169.953 52.0156C170.562 52.4844 171.047 53.0469 171.406 53.7031C171.781 54.3594 171.969 55.0859 171.969 55.8828C171.969 56.2109 171.891 56.5312 171.734 56.8438C171.594 57.1406 171.398 57.4062 171.148 57.6406C170.898 57.8594 170.609 58.0391 170.281 58.1797C169.969 58.3047 169.641 58.3672 169.297 58.3672C169.266 58.3672 169.234 58.375 169.203 58.3906C169.188 58.3906 169.164 58.3906 169.133 58.3906C169.102 58.4062 169.07 58.4141 169.039 58.4141L169.133 60.2891C169.195 62.5234 169.508 64.1562 170.07 65.1875C170.648 66.2188 171.398 66.7344 172.32 66.7344C172.648 66.7344 172.938 66.7031 173.188 66.6406C173.453 66.5781 173.695 66.5078 173.914 66.4297C174.148 66.3359 174.367 66.2578 174.57 66.1953C174.773 66.1328 174.977 66.1016 175.18 66.1016C175.539 66.1016 175.852 66.2578 176.117 66.5703C176.398 66.8828 176.539 67.2578 176.539 67.6953C176.539 68.1328 176.367 68.5703 176.023 69.0078C175.695 69.4453 175.258 69.8438 174.711 70.2031C174.164 70.5469 173.547 70.8281 172.859 71.0469C172.172 71.2656 171.477 71.375 170.773 71.375C169.555 71.375 168.484 70.875 167.562 69.875C166.641 68.8594 165.984 67.375 165.594 65.4219C165.5 65.1094 165.375 64.9531 165.219 64.9531C165.031 64.9531 164.867 65.0469 164.727 65.2344C163.18 67.1875 161.531 68.6562 159.781 69.6406C158.031 70.6094 156.305 71.0938 154.602 71.0938C153.805 71.0938 153.086 70.9766 152.445 70.7422C151.805 70.5078 151.258 70.1797 150.805 69.7578C150.367 69.3203 150.023 68.7969 149.773 68.1875C149.539 67.5625 149.422 66.8672 149.422 66.1016C149.422 65.0234 149.656 63.8906 150.125 62.7031C150.609 61.5156 151.258 60.3438 152.07 59.1875C152.883 58.0312 153.82 56.9297 154.883 55.8828C155.961 54.8359 157.086 53.9141 158.258 53.1172C159.445 52.3203 160.648 51.6875 161.867 51.2188C163.086 50.75 164.25 50.5156 165.359 50.5156ZM164.586 58.625C164.867 58.0938 165.125 57.7109 165.359 57.4766C165.594 57.2266 165.93 57.0625 166.367 56.9844C166.711 56.9375 166.883 56.8281 166.883 56.6562C166.883 56.5312 166.836 56.3984 166.742 56.2578C166.445 55.8516 166.133 55.5 165.805 55.2031C165.477 54.8906 165.039 54.7344 164.492 54.7344C163.898 54.7344 163.234 54.9062 162.5 55.25C161.766 55.5938 161.016 56.0547 160.25 56.6328C159.5 57.1953 158.758 57.8438 158.023 58.5781C157.305 59.2969 156.664 60.0391 156.102 60.8047C155.539 61.5703 155.086 62.3281 154.742 63.0781C154.398 63.8281 154.227 64.5 154.227 65.0938C154.227 65.625 154.367 66.0391 154.648 66.3359C154.945 66.6328 155.344 66.7812 155.844 66.7812C157.125 66.7812 158.523 66.1016 160.039 64.7422C161.555 63.3828 163.07 61.3438 164.586 58.625ZM179.492 43.9297C179.492 43.1016 179.727 42.5234 180.195 42.1953C180.664 41.8516 181.438 41.6797 182.516 41.6797C182.906 41.6797 183.234 41.7188 183.5 41.7969C183.781 41.8594 184.016 41.9844 184.203 42.1719C184.406 42.3594 184.562 42.6094 184.672 42.9219C184.797 43.2188 184.898 43.6016 184.977 44.0703C185.164 45.5234 185.367 47.0234 185.586 48.5703C185.82 50.1172 186.062 51.6719 186.312 53.2344C186.406 53.9375 186.773 54.2891 187.414 54.2891C187.586 54.2891 187.867 54.2734 188.258 54.2422C188.664 54.1953 189.141 54.1484 189.688 54.1016C190.234 54.0391 190.82 53.9766 191.445 53.9141C192.086 53.8516 192.719 53.7969 193.344 53.75C193.984 53.6875 194.586 53.6406 195.148 53.6094C195.727 53.5625 196.234 53.5391 196.672 53.5391C197.016 53.5391 197.289 53.6094 197.492 53.75C197.695 53.875 197.852 54.0469 197.961 54.2656C198.086 54.4688 198.164 54.7031 198.195 54.9688C198.242 55.2188 198.266 55.4766 198.266 55.7422C198.266 55.9766 198.219 56.2188 198.125 56.4688C198.047 56.7188 197.93 56.9453 197.773 57.1484C197.633 57.3359 197.453 57.4922 197.234 57.6172C197.016 57.7422 196.766 57.8047 196.484 57.8047C195.125 57.8047 193.75 57.8516 192.359 57.9453C190.984 58.0234 189.609 58.1328 188.234 58.2734C187.531 58.3672 187.18 58.7188 187.18 59.3281C187.18 59.375 187.188 59.4375 187.203 59.5156C187.219 59.5781 187.227 59.6328 187.227 59.6797C187.414 61.0391 187.586 62.3125 187.742 63.5C187.914 64.6875 188.055 65.75 188.164 66.6875C188.289 67.6094 188.383 68.3828 188.445 69.0078C188.523 69.6172 188.562 70.0234 188.562 70.2266C188.562 70.7891 188.508 71.2578 188.398 71.6328C188.289 72.0234 188.109 72.3359 187.859 72.5703C187.609 72.8203 187.273 72.9922 186.852 73.0859C186.445 73.1953 185.93 73.25 185.305 73.25C184.711 73.25 184.273 73.1094 183.992 72.8281C183.711 72.5469 183.555 72.1172 183.523 71.5391C183.43 69.6953 183.281 67.8438 183.078 65.9844C182.875 64.1094 182.641 62.2422 182.375 60.3828C182.234 59.7109 181.883 59.375 181.32 59.375C181.273 59.375 181.219 59.3828 181.156 59.3984C181.094 59.4141 181.039 59.4219 180.992 59.4219C180.023 59.6406 179.109 59.8594 178.25 60.0781C177.391 60.2969 176.586 60.5312 175.836 60.7812C175.414 60.9219 175.039 61.0234 174.711 61.0859C174.383 61.1328 174.086 61.1562 173.82 61.1562C173.461 61.1562 173.195 61 173.023 60.6875C172.852 60.3594 172.766 59.9531 172.766 59.4688C172.766 59.2969 172.781 59.1016 172.812 58.8828C172.844 58.6484 172.906 58.4219 173 58.2031C173.078 57.9688 173.203 57.7578 173.375 57.5703C173.531 57.3672 173.75 57.2031 174.031 57.0781C174.688 56.8125 175.562 56.5391 176.656 56.2578C177.75 55.9609 178.984 55.6875 180.359 55.4375C180.672 55.3594 180.914 55.2344 181.086 55.0625C181.273 54.875 181.367 54.6016 181.367 54.2422C181.367 54.1641 181.367 54.0859 181.367 54.0078C181.367 53.9141 181.352 53.8203 181.32 53.7266C181.07 52.2891 180.828 50.9844 180.594 49.8125C180.375 48.625 180.18 47.6094 180.008 46.7656C179.852 45.9219 179.727 45.2578 179.633 44.7734C179.539 44.2891 179.492 44.0078 179.492 43.9297ZM200.422 47.0938C199.969 47.0938 199.539 47.0312 199.133 46.9062C198.742 46.7656 198.398 46.5781 198.102 46.3438C197.82 46.0938 197.594 45.8047 197.422 45.4766C197.25 45.1484 197.164 44.7891 197.164 44.3984C197.164 43.7422 197.422 43.2109 197.938 42.8047C198.469 42.3984 199.172 42.1953 200.047 42.1953C200.453 42.1953 200.844 42.2734 201.219 42.4297C201.594 42.5703 201.922 42.7656 202.203 43.0156C202.5 43.2656 202.734 43.5625 202.906 43.9062C203.078 44.2344 203.164 44.5781 203.164 44.9375C203.164 45.6094 202.914 46.1406 202.414 46.5312C201.93 46.9062 201.266 47.0938 200.422 47.0938ZM197.211 54.2422C197.211 53.6953 197.445 53.25 197.914 52.9062C198.398 52.5469 199.031 52.3672 199.812 52.3672C201.219 52.3672 201.969 52.8516 202.062 53.8203C202.125 54.4922 202.188 55.25 202.25 56.0938C202.328 56.9375 202.398 57.8359 202.461 58.7891C202.539 59.7266 202.602 60.7031 202.648 61.7188C202.711 62.7188 202.766 63.7109 202.812 64.6953C202.859 65.6641 202.898 66.6016 202.93 67.5078C202.961 68.4141 202.977 69.2422 202.977 69.9922C202.977 70.7734 202.695 71.3594 202.133 71.75C201.586 72.1406 200.781 72.3359 199.719 72.3359C199.234 72.3359 198.852 72.2188 198.57 71.9844C198.305 71.7656 198.172 71.4375 198.172 71C198.172 68.8438 198.117 66.8281 198.008 64.9531C197.914 63.0625 197.805 61.3828 197.68 59.9141C197.57 58.4453 197.461 57.2266 197.352 56.2578C197.258 55.2734 197.211 54.6016 197.211 54.2422ZM207.617 63.2188C207.617 62.9531 207.648 62.6562 207.711 62.3281C207.773 62 207.805 61.6406 207.805 61.25C207.805 60.9844 207.688 60.7812 207.453 60.6406C207.234 60.5 206.984 60.3438 206.703 60.1719C206.422 60 206.164 59.7812 205.93 59.5156C205.711 59.25 205.602 58.8672 205.602 58.3672C205.602 58.0078 205.695 57.6484 205.883 57.2891C206.086 56.9297 206.375 56.6016 206.75 56.3047C207.672 55.6172 208.625 55 209.609 54.4531C210.609 53.9062 211.602 53.4453 212.586 53.0703C213.586 52.6953 214.57 52.4062 215.539 52.2031C216.508 52 217.438 51.8984 218.328 51.8984C219.828 51.8984 221.234 52.1797 222.547 52.7422C223.875 53.2891 225.023 54.0469 225.992 55.0156C226.977 55.9688 227.75 57.0938 228.312 58.3906C228.891 59.6719 229.18 61.0469 229.18 62.5156C229.18 63.9531 228.875 65.3203 228.266 66.6172C227.672 67.8984 226.867 69.0234 225.852 69.9922C224.836 70.9609 223.641 71.7266 222.266 72.2891C220.906 72.8672 219.469 73.1562 217.953 73.1562C216.469 73.1562 215.094 72.9062 213.828 72.4062C212.562 71.9062 211.469 71.2188 210.547 70.3438C209.625 69.4531 208.906 68.4062 208.391 67.2031C207.875 65.9844 207.617 64.6562 207.617 63.2188ZM218.469 68.9375C219.125 68.9375 219.805 68.8047 220.508 68.5391C221.211 68.2734 221.852 67.8906 222.43 67.3906C223.023 66.875 223.508 66.25 223.883 65.5156C224.273 64.7812 224.469 63.9531 224.469 63.0312C224.469 62.0938 224.297 61.2188 223.953 60.4062C223.609 59.5938 223.133 58.8906 222.523 58.2969C221.93 57.6875 221.219 57.2109 220.391 56.8672C219.578 56.5234 218.695 56.3516 217.742 56.3516C216.008 56.3516 214.68 56.8047 213.758 57.7109C212.836 58.6016 212.375 59.9766 212.375 61.8359C212.375 62.8516 212.523 63.7969 212.82 64.6719C213.133 65.5312 213.562 66.2812 214.109 66.9219C214.656 67.5469 215.297 68.0391 216.031 68.3984C216.781 68.7578 217.594 68.9375 218.469 68.9375ZM232.648 52.0859C232.648 51.8516 232.75 51.625 232.953 51.4062C233.156 51.1719 233.422 50.9688 233.75 50.7969C234.078 50.6094 234.445 50.4609 234.852 50.3516C235.273 50.2266 235.695 50.1641 236.117 50.1641C236.352 50.1641 236.547 50.2266 236.703 50.3516C236.875 50.4766 237.023 50.7188 237.148 51.0781C237.273 51.4219 237.383 51.9141 237.477 52.5547C237.586 53.1797 237.688 54 237.781 55.0156C237.844 55.3281 237.898 55.5703 237.945 55.7422C238.008 55.8984 238.086 55.9766 238.18 55.9766C238.32 55.9766 238.461 55.7344 238.602 55.25C239.742 51.9531 241.391 50.3047 243.547 50.3047C244.547 50.3047 245.453 50.6172 246.266 51.2422C247.094 51.8672 247.859 52.8906 248.562 54.3125C249.281 55.7188 249.961 57.5781 250.602 59.8906C251.242 62.1875 251.883 65.0234 252.523 68.3984C252.555 68.5703 252.578 68.7266 252.594 68.8672C252.609 69.0078 252.617 69.1406 252.617 69.2656C252.617 69.625 252.531 69.9375 252.359 70.2031C252.203 70.4531 251.992 70.6641 251.727 70.8359C251.461 70.9922 251.164 71.1094 250.836 71.1875C250.508 71.2812 250.18 71.3281 249.852 71.3281C249.195 71.3281 248.719 71.2578 248.422 71.1172C248.141 70.9766 247.961 70.7109 247.883 70.3203C247.43 67.9453 246.984 65.8359 246.547 63.9922C246.125 62.1484 245.703 60.6016 245.281 59.3516C244.875 58.0859 244.469 57.125 244.062 56.4688C243.656 55.8125 243.25 55.4844 242.844 55.4844C242.438 55.4844 242.055 55.7422 241.695 56.2578C241.352 56.7578 241.016 57.5469 240.688 58.625C240.359 59.7031 240.039 61.0703 239.727 62.7266C239.43 64.3828 239.141 66.3594 238.859 68.6562C238.781 69.2812 238.469 69.7812 237.922 70.1562C237.375 70.5312 236.68 70.7188 235.836 70.7188C235.273 70.7188 234.844 70.6016 234.547 70.3672C234.25 70.1328 234.086 69.8125 234.055 69.4062C233.914 66.1562 233.758 63.4844 233.586 61.3906C233.43 59.2812 233.281 57.5938 233.141 56.3281C233 55.0469 232.883 54.0938 232.789 53.4688C232.695 52.8438 232.648 52.3828 232.648 52.0859Z" fill="#555555"/>
<defs>
<filter id="filter0_b_634_10580" x="1" y="-30" width="342" height="156" filterUnits="userSpaceOnUse" color-interpolation-filters="sRGB">
<feFlood flood-opacity="0" result="BackgroundImageFix"/>
<feGaussianBlur in="BackgroundImageFix" stdDeviation="15"/>
<feComposite in2="SourceAlpha" operator="in" result="effect1_backgroundBlur_634_10580"/>
<feBlend mode="normal" in="SourceGraphic" in2="effect1_backgroundBlur_634_10580" result="shape"/>
</filter>
</defs>
</svg>
