<svg width="343" height="96" viewBox="0 0 343 96" fill="none" xmlns="http://www.w3.org/2000/svg">
<g filter="url(#filter0_b_634_10580)">
<path opacity="0.7" d="M113.762 24.1663C110.114 21.4804 83.238 23.4501 81.3183 22.5548C79.7825 21.4804 82.6621 3.39486 84.1979 0.88796C84.7738 -0.0073624 85.3497 -0.186427 86.6935 0.350767C88.8052 1.24609 117.025 0.708896 117.025 0.708896C117.409 1.24609 118.561 -0.544556 118.753 0.171702C119.329 1.60422 165.21 1.06702 169.05 1.06702C171.353 1.06702 169.434 2.14141 172.313 1.78328C178.264 1.06702 191.127 2.49954 195.734 1.60422C199.381 0.88796 200.149 0.88796 203.605 1.60422C207.06 2.32048 225.874 2.14141 227.985 0.88796C228.561 0.529831 228.945 0.708896 228.945 1.06702C228.945 1.06702 242.191 1.96235 242.191 2.14141C242.191 2.49954 242.767 2.67861 243.151 2.49954C243.919 2.14141 257.933 1.06702 258.125 2.32048C258.701 5.7227 256.589 19.8688 254.861 23.271C253.134 26.8523 243.919 22.3757 236.624 24.3454L202.261 23.271L194.774 24.3454C194.006 23.092 190.743 25.957 188.631 23.8082C187.863 22.9129 181.912 22.5548 180.568 23.4501C179.416 24.1663 149.468 21.3013 146.397 23.6292C141.214 21.8385 118.945 23.9873 113.762 24.1663Z" fill="white"/>
<path opacity="0.7" d="M214.355 6.79658C219.538 8.58723 253.901 1.06652 256.397 1.60371C258.701 2.31997 258.509 20.7636 256.973 23.6286C256.397 24.703 255.629 24.8821 253.901 24.703C251.022 24.3449 214.547 30.7912 214.547 30.7912C213.971 30.254 212.819 32.4028 212.435 31.6865C211.284 30.254 152.348 40.4607 147.357 41.177C144.285 41.7142 146.589 40.2816 142.941 41.177C135.262 43.1467 118.369 44.5792 112.802 46.3698C108.194 47.8024 107.235 47.9814 102.627 47.9814C98.0198 47.9814 73.8313 52.279 71.1437 53.8905C70.5678 54.2487 69.9919 54.2487 69.9919 53.8905C69.9919 53.8905 52.7144 55.8603 52.7144 55.5021C52.5224 55.144 51.9465 54.9649 51.5625 55.3231C50.7946 55.8603 32.7492 59.7997 32.1733 58.7253C30.6375 55.5021 30.6375 40.9979 32.1733 37.4166C33.7091 33.4772 46.3793 35.9841 55.5939 32.4028L100.132 25.9565L109.538 23.2705C110.882 24.3449 114.529 20.7636 117.409 22.5543C118.561 23.2705 126.24 22.3752 127.776 21.3008C129.119 20.4055 168.282 16.8242 171.929 13.9592C179.416 14.8545 207.636 8.05003 214.355 6.79658Z" fill="white"/>
<path opacity="0.7" d="M80.3586 59.2624C74.2155 56.3974 34.4772 59.6205 31.7896 58.9043C29.4859 58.0089 32.7494 39.7444 34.8611 37.0584C35.629 36.1631 36.5889 35.805 38.7006 36.3421C39.4685 36.5212 42.924 36.5212 47.3393 36.5212C53.4825 36.3421 54.0584 36.3421 84.9659 35.6259C85.5418 36.1631 87.2696 34.3724 87.4616 35.0887C87.6535 35.4468 92.2609 35.6259 98.9799 35.805C105.699 35.984 162.331 36.8793 163.867 37.0584C167.514 37.2375 164.634 38.1328 168.858 37.9537C177.881 37.5956 197.462 39.7444 204.373 39.3862C209.94 39.0281 211.092 39.0281 216.275 40.1025C220.498 40.9978 249.87 42.9675 253.326 42.0722C254.094 41.8931 254.669 42.0722 254.669 42.4303C254.669 42.4303 255.053 42.4303 255.437 42.6094C255.821 42.7885 269.451 44.5791 271.371 44.7582C273.291 45.1163 274.443 45.2954 274.443 45.2954C274.635 45.6535 275.211 46.0116 275.786 45.8326C276.938 45.4744 298.247 46.7279 298.439 47.8023C299.015 51.2045 294.024 64.9925 291.144 68.2156C288.073 71.6179 275.402 65.7087 263.884 66.604C208.02 60.6949 211.476 61.7693 201.685 62.3065C200.533 61.053 195.542 63.5599 192.662 61.2321C191.511 60.3368 182.68 59.6205 180.76 60.3368C178.84 61.053 134.879 56.5764 129.695 59.0833C122.401 57.1136 98.02 58.3671 90.3411 58.7252C85.7338 58.9043 82.2783 59.0833 80.3586 59.2624Z" fill="white"/>
<path opacity="0.7" d="M253.518 43.8633C254.669 44.5795 258.125 45.1167 262.348 45.6539C264.46 45.833 266.956 46.0121 269.451 46.1911C275.018 46.7283 297.095 48.1608 299.015 49.0562C301.127 50.3096 294.984 67.8579 292.68 70.3648C291.912 71.2602 290.952 71.2602 289.224 70.5439C286.345 69.4695 262.156 67.6789 248.142 67.4998C247.758 66.9626 246.031 68.7532 245.839 68.037C245.647 67.6789 241.615 67.1417 235.664 66.9626C229.713 66.7835 221.65 66.6045 213.395 66.6045C211.284 66.6045 209.364 66.6045 207.252 66.6045C205.141 66.6045 193.622 66.9626 190.359 67.3207C183.832 67.6789 178.84 68.037 177.688 68.037C174.425 68.2161 176.921 67.1417 173.273 67.6789C165.21 68.9323 147.741 69.2904 141.79 70.902C136.99 72.1555 136.03 72.1555 131.231 72.1555C130.079 72.1555 127.584 72.3345 124.512 72.8717C121.441 73.2299 117.793 73.7671 114.146 74.4833C110.498 75.1996 107.043 75.9158 104.163 76.453C101.283 77.1693 99.3637 77.7065 98.5958 78.2437C98.0199 78.7809 97.444 78.6018 97.252 78.2437C97.252 78.2437 97.0601 78.2437 96.4841 78.2437C95.9082 78.2437 90.533 79.139 88.4213 79.3181C84.0059 80.0343 79.5906 80.7506 79.3986 80.5715C79.2066 80.2134 78.6307 80.0343 78.2468 80.5715C77.2869 81.1087 59.2415 86.4806 58.4736 85.4062C56.7459 82.3621 55.4021 68.037 56.7459 64.0976C57.5138 62.1279 61.1612 61.4116 65.9605 60.6953C70.7598 59.9791 76.519 59.4419 81.5103 57.2931C81.5103 57.2931 82.2782 57.1141 83.622 56.935C84.9658 56.7559 86.6936 56.3978 88.9972 56.0397C128.352 49.2352 118.177 52.8165 139.486 47.8027C140.83 48.8771 145.053 45.4749 147.933 47.4446C149.085 48.1608 157.339 47.6236 159.067 46.7283C159.451 46.5492 162.331 46.3702 166.554 46.1911C188.823 45.1167 204.181 45.4749 207.06 43.8633C213.203 45.2958 239.504 43.8633 253.518 43.8633Z" fill="white"/>
<path opacity="0.7" d="M122.016 91.6734C117.601 89.3455 92.0684 96.5081 90.1487 95.9709C88.4209 95.2547 86.8852 76.9901 87.845 74.1251C88.229 73.0507 88.8049 72.8716 90.1487 73.0507C90.7246 73.2297 93.0283 72.8716 95.9078 72.3344C98.9794 71.7972 120.864 67.6787 120.864 67.6787C121.248 68.2159 122.208 66.2462 122.4 66.7834C122.592 67.1416 125.664 66.9625 130.271 66.4253C134.878 65.8881 172.889 61.2324 173.849 61.2324C176.344 61.0534 174.425 62.3068 177.304 61.5905C183.255 60.3371 196.693 60.5162 201.301 59.4418C204.948 58.5465 205.716 58.5465 209.364 59.0836C211.283 59.4418 216.85 59.0836 222.418 58.9046C227.985 58.5465 233.36 58.0093 234.512 57.4721C235.088 57.1139 235.472 57.293 235.472 57.6511C235.472 57.6511 235.664 57.6511 236.048 57.6511C236.432 57.6511 240.655 57.8302 242.191 58.0093C245.646 58.1883 249.102 58.5465 249.102 58.5465C249.294 58.9046 249.678 59.0836 250.062 58.9046C250.83 58.3674 265.227 57.4721 265.419 58.7255C265.995 62.1277 263.5 76.2738 261.964 79.6761C260.236 83.2574 251.213 78.7807 243.727 80.9295C230.097 80.7505 227.025 80.7505 209.364 81.1086L202.069 82.7202C201.109 81.4667 198.229 84.6899 195.925 82.5411C194.966 81.6458 189.206 81.8248 188.055 82.7202C187.863 82.8992 185.751 83.0783 182.679 83.2574C179.416 83.4364 156.571 84.1527 154.267 86.4805C148.316 85.048 127.967 90.2409 122.016 91.6734Z" fill="white"/>
<path opacity="0.7" d="M280.394 16.2871C283.657 18.794 310.341 17.8987 312.645 18.794C314.181 19.8684 310.341 37.7749 308.614 40.4608C308.038 41.3561 307.462 41.5352 306.118 40.998C303.814 39.9236 281.929 39.9236 277.898 39.9236C277.13 39.9236 276.746 39.9236 276.746 39.9236C276.362 39.3864 275.21 41.1771 275.018 40.4608C274.634 39.5655 263.5 39.3864 251.79 39.5655C243.727 39.7446 233.936 40.2818 226.257 40.6399C223.954 40.8189 225.682 39.5655 222.994 40.1027C217.235 41.1771 204.757 40.6399 200.533 41.8933C197.078 42.9677 196.31 42.9677 193.046 42.4305C191.318 42.2515 185.943 42.6096 180.76 43.3259C175.577 44.0421 170.585 44.9374 169.626 45.6537C169.242 46.0118 168.858 46.0118 168.666 45.4746C168.666 45.4746 168.474 45.4746 168.09 45.4746C167.706 45.4746 163.866 45.6537 162.331 45.8328C159.067 46.0118 155.996 46.1909 155.804 46.0118C155.612 45.6537 155.228 45.4746 154.844 45.8328C154.268 46.1909 141.022 49.414 140.638 48.3397C139.486 45.1165 138.91 30.7913 139.87 27.21C140.446 25.2403 143.133 25.0613 146.589 24.8822C150.044 24.7031 154.268 24.8822 157.723 23.2706C201.493 18.794 185.559 21.8381 199.189 18.4359C200.149 19.5103 203.029 16.4662 205.332 18.4359C206.292 19.3312 212.051 19.1521 213.395 18.2568C213.587 18.0778 215.699 18.0778 218.771 17.8987C225.682 17.7196 229.905 17.8987 235.664 17.7196C237.584 17.7196 239.504 17.7196 241.039 17.5406C244.303 17.3615 246.798 17.0034 247.566 16.4662C250.254 17.5406 257.165 17.3615 264.076 17.0034C270.987 17.0034 277.706 16.4662 280.394 16.2871Z" fill="white"/>
</g>
<path d="M157.545 17.58L160.385 11.32H158.365V11H162.305V11.32H160.985L157.965 18V24.62H159.185V25H152.845V24.62H154.065V18.38L150.665 11.32H149.725V11H156.125V11.32H154.825L157.545 17.58ZM167.183 21.06V19.36C167.183 18.0667 167.11 17.1267 166.963 16.54C166.83 15.94 166.51 15.64 166.003 15.64C165.71 15.64 165.47 15.7267 165.283 15.9C165.11 16.06 164.983 16.3333 164.903 16.72C164.783 17.32 164.723 18.2333 164.723 19.46V21.02C164.723 22.4733 164.763 23.3467 164.843 23.64C164.937 23.9333 165.03 24.1733 165.123 24.36C165.27 24.68 165.557 24.84 165.983 24.84C166.503 24.84 166.843 24.54 167.003 23.94C167.123 23.5133 167.183 22.5533 167.183 21.06ZM165.943 25.2C164.277 25.2 163.017 24.7733 162.163 23.92C161.31 23.0667 160.883 21.8467 160.883 20.26C160.883 18.66 161.337 17.4333 162.243 16.58C163.163 15.7133 164.45 15.28 166.103 15.28C167.757 15.28 168.99 15.68 169.803 16.48C170.617 17.2667 171.023 18.4733 171.023 20.1C171.023 23.5 169.33 25.2 165.943 25.2ZM183.283 25H178.723L178.503 23.54C178.289 24.0733 177.969 24.4867 177.543 24.78C177.129 25.06 176.509 25.2 175.683 25.2C173.616 25.2 172.583 24.0867 172.583 21.86V15.84H171.463V15.48H176.303V22.34C176.303 23.14 176.356 23.6667 176.463 23.92C176.583 24.1733 176.809 24.3 177.143 24.3C177.489 24.3 177.796 24.0933 178.063 23.68C178.329 23.2667 178.463 22.6933 178.463 21.96V15.84H177.543V15.48H182.183V24.64H183.283V25ZM190.372 16.04C189.879 16.04 189.446 16.36 189.072 17C188.699 17.64 188.512 18.4 188.512 19.28V24.64H189.932V25H183.692V24.64H184.792V15.84H183.692V15.48H188.512V17.4C188.686 16.72 189.019 16.2 189.512 15.84C190.006 15.4667 190.566 15.28 191.192 15.28C191.819 15.28 192.326 15.46 192.712 15.82C193.112 16.1667 193.312 16.6667 193.312 17.32C193.312 17.96 193.166 18.4533 192.872 18.8C192.579 19.1467 192.126 19.32 191.512 19.32C190.912 19.32 190.466 19.12 190.172 18.72C189.892 18.32 189.859 17.7667 190.072 17.06H190.792C191.126 16.38 190.986 16.04 190.372 16.04Z" fill="black"/>
<path d="M109.625 73.6953C109.625 73.1797 109.602 72.5078 109.555 71.6797C109.523 70.8516 109.477 69.9375 109.414 68.9375C109.352 67.9375 109.281 66.875 109.203 65.75C109.125 64.625 109.039 63.5078 108.945 62.3984C108.852 61.2891 108.758 60.2188 108.664 59.1875C108.586 58.1406 108.508 57.1953 108.43 56.3516C108.305 55.1484 108.133 54.2656 107.914 53.7031C107.695 53.1406 107.336 52.8594 106.836 52.8594C106.367 52.8594 106.055 52.9922 105.898 53.2578C105.758 53.5234 105.672 53.8516 105.641 54.2422C105.625 54.6328 105.617 55.0625 105.617 55.5312C105.633 55.9844 105.562 56.4062 105.406 56.7969C105.266 57.1875 104.992 57.5156 104.586 57.7812C104.18 58.0469 103.555 58.1797 102.711 58.1797C102.117 58.1797 101.609 57.9375 101.188 57.4531C100.766 56.9531 100.555 56.2344 100.555 55.2969C100.555 53.9844 100.945 52.7969 101.727 51.7344C102.492 50.6562 103.578 49.7422 104.984 48.9922C106.391 48.2266 108.086 47.6328 110.07 47.2109C112.055 46.7891 114.258 46.5781 116.68 46.5781C118.414 46.5781 120.016 46.7734 121.484 47.1641C122.953 47.5391 124.219 48.0703 125.281 48.7578C126.359 49.4297 127.203 50.2344 127.812 51.1719C128.422 52.0938 128.727 53.1016 128.727 54.1953C128.727 55.4297 128.367 56.6094 127.648 57.7344C126.93 58.8594 125.938 59.8906 124.672 60.8281C123.422 61.7656 121.945 62.5859 120.242 63.2891C118.539 63.9766 116.711 64.5156 114.758 64.9062C114.211 65 113.938 65.3359 113.938 65.9141C113.938 66.3047 113.961 66.7969 114.008 67.3906C114.07 67.9688 114.125 68.5781 114.172 69.2188C114.234 69.8594 114.289 70.4922 114.336 71.1172C114.398 71.7422 114.43 72.2969 114.43 72.7812C114.43 73.6562 114.227 74.2812 113.82 74.6562C113.414 75.0312 112.812 75.2188 112.016 75.2188C111.266 75.2188 110.68 75.0859 110.258 74.8203C109.836 74.5703 109.625 74.1953 109.625 73.6953ZM123.875 54.875C123.875 54.3438 123.648 53.8359 123.195 53.3516C122.742 52.8672 122.133 52.4375 121.367 52.0625C120.602 51.6875 119.711 51.3906 118.695 51.1719C117.695 50.9531 116.641 50.8438 115.531 50.8438C114.984 50.8438 114.523 50.8672 114.148 50.9141C113.789 50.9453 113.5 51.0078 113.281 51.1016C113.062 51.1953 112.906 51.3203 112.812 51.4766C112.734 51.6172 112.695 51.8047 112.695 52.0391C112.695 52.1953 112.719 52.5625 112.766 53.1406C112.812 53.7031 112.875 54.3594 112.953 55.1094C113.031 55.8594 113.109 56.6484 113.188 57.4766C113.281 58.2891 113.375 59.0234 113.469 59.6797C113.516 60.1641 113.578 60.4844 113.656 60.6406C113.75 60.7969 113.891 60.875 114.078 60.875C114.609 60.875 115.219 60.7891 115.906 60.6172C116.594 60.4297 117.297 60.1875 118.016 59.8906C118.75 59.5781 119.461 59.2266 120.148 58.8359C120.852 58.4297 121.477 58.0078 122.023 57.5703C122.586 57.1172 123.031 56.6641 123.359 56.2109C123.703 55.7422 123.875 55.2969 123.875 54.875ZM129.57 48.4297C129.57 46.7422 130.664 45.8984 132.852 45.8984C133.227 45.8984 133.555 46 133.836 46.2031C134.117 46.4062 134.281 46.6875 134.328 47.0469C134.469 48 134.594 48.9453 134.703 49.8828C134.812 50.8203 134.914 51.875 135.008 53.0469C135.117 54.2031 135.219 55.5469 135.312 57.0781C135.422 58.5938 135.539 60.4062 135.664 62.5156C135.664 62.7344 135.695 62.8906 135.758 62.9844C135.836 63.0781 135.922 63.125 136.016 63.125C136.156 63.125 136.297 62.9844 136.438 62.7031C136.969 61.5312 137.562 60.4844 138.219 59.5625C138.875 58.625 139.578 57.8359 140.328 57.1953C141.078 56.5391 141.867 56.0469 142.695 55.7188C143.539 55.375 144.398 55.2031 145.273 55.2031C146.43 55.2031 147.477 55.5312 148.414 56.1875C149.352 56.8438 150.148 57.7734 150.805 58.9766C151.461 60.1797 151.969 61.6406 152.328 63.3594C152.688 65.0625 152.867 66.9688 152.867 69.0781C152.867 69.6562 152.82 70.1328 152.727 70.5078C152.648 70.8672 152.508 71.1562 152.305 71.375C152.102 71.5938 151.82 71.7422 151.461 71.8203C151.102 71.9141 150.656 71.9609 150.125 71.9609C149.391 71.9609 148.859 71.8203 148.531 71.5391C148.219 71.2578 148.062 70.8203 148.062 70.2266C148.062 68.7578 147.961 67.375 147.758 66.0781C147.57 64.7656 147.305 63.6172 146.961 62.6328C146.617 61.6484 146.211 60.8672 145.742 60.2891C145.289 59.7109 144.797 59.4219 144.266 59.4219C143.062 59.4219 141.859 60.3984 140.656 62.3516C139.469 64.3047 138.227 67.25 136.93 71.1875C136.805 71.5469 136.664 71.8438 136.508 72.0781C136.352 72.3125 136.164 72.5 135.945 72.6406C135.742 72.7812 135.492 72.875 135.195 72.9219C134.898 72.9844 134.547 73.0156 134.141 73.0156C133.312 73.0156 132.719 72.8594 132.359 72.5469C132.016 72.2344 131.828 71.7188 131.797 71C131.703 68.2812 131.531 65.6875 131.281 63.2188C131.047 60.7344 130.797 58.4922 130.531 56.4922C130.281 54.4766 130.055 52.7734 129.852 51.3828C129.664 49.9766 129.57 48.9922 129.57 48.4297ZM156.312 63.2188C156.312 62.9531 156.344 62.6562 156.406 62.3281C156.469 62 156.5 61.6406 156.5 61.25C156.5 60.9844 156.383 60.7812 156.148 60.6406C155.93 60.5 155.68 60.3438 155.398 60.1719C155.117 60 154.859 59.7812 154.625 59.5156C154.406 59.25 154.297 58.8672 154.297 58.3672C154.297 58.0078 154.391 57.6484 154.578 57.2891C154.781 56.9297 155.07 56.6016 155.445 56.3047C156.367 55.6172 157.32 55 158.305 54.4531C159.305 53.9062 160.297 53.4453 161.281 53.0703C162.281 52.6953 163.266 52.4062 164.234 52.2031C165.203 52 166.133 51.8984 167.023 51.8984C168.523 51.8984 169.93 52.1797 171.242 52.7422C172.57 53.2891 173.719 54.0469 174.688 55.0156C175.672 55.9688 176.445 57.0938 177.008 58.3906C177.586 59.6719 177.875 61.0469 177.875 62.5156C177.875 63.9531 177.57 65.3203 176.961 66.6172C176.367 67.8984 175.562 69.0234 174.547 69.9922C173.531 70.9609 172.336 71.7266 170.961 72.2891C169.602 72.8672 168.164 73.1562 166.648 73.1562C165.164 73.1562 163.789 72.9062 162.523 72.4062C161.258 71.9062 160.164 71.2188 159.242 70.3438C158.32 69.4531 157.602 68.4062 157.086 67.2031C156.57 65.9844 156.312 64.6562 156.312 63.2188ZM167.164 68.9375C167.82 68.9375 168.5 68.8047 169.203 68.5391C169.906 68.2734 170.547 67.8906 171.125 67.3906C171.719 66.875 172.203 66.25 172.578 65.5156C172.969 64.7812 173.164 63.9531 173.164 63.0312C173.164 62.0938 172.992 61.2188 172.648 60.4062C172.305 59.5938 171.828 58.8906 171.219 58.2969C170.625 57.6875 169.914 57.2109 169.086 56.8672C168.273 56.5234 167.391 56.3516 166.438 56.3516C164.703 56.3516 163.375 56.8047 162.453 57.7109C161.531 58.6016 161.07 59.9766 161.07 61.8359C161.07 62.8516 161.219 63.7969 161.516 64.6719C161.828 65.5312 162.258 66.2812 162.805 66.9219C163.352 67.5469 163.992 68.0391 164.727 68.3984C165.477 68.7578 166.289 68.9375 167.164 68.9375ZM183.125 43.9297C183.125 43.1016 183.359 42.5234 183.828 42.1953C184.297 41.8516 185.07 41.6797 186.148 41.6797C186.539 41.6797 186.867 41.7188 187.133 41.7969C187.414 41.8594 187.648 41.9844 187.836 42.1719C188.039 42.3594 188.195 42.6094 188.305 42.9219C188.43 43.2188 188.531 43.6016 188.609 44.0703C188.797 45.5234 189 47.0234 189.219 48.5703C189.453 50.1172 189.695 51.6719 189.945 53.2344C190.039 53.9375 190.406 54.2891 191.047 54.2891C191.219 54.2891 191.5 54.2734 191.891 54.2422C192.297 54.1953 192.773 54.1484 193.32 54.1016C193.867 54.0391 194.453 53.9766 195.078 53.9141C195.719 53.8516 196.352 53.7969 196.977 53.75C197.617 53.6875 198.219 53.6406 198.781 53.6094C199.359 53.5625 199.867 53.5391 200.305 53.5391C200.648 53.5391 200.922 53.6094 201.125 53.75C201.328 53.875 201.484 54.0469 201.594 54.2656C201.719 54.4688 201.797 54.7031 201.828 54.9688C201.875 55.2188 201.898 55.4766 201.898 55.7422C201.898 55.9766 201.852 56.2188 201.758 56.4688C201.68 56.7188 201.562 56.9453 201.406 57.1484C201.266 57.3359 201.086 57.4922 200.867 57.6172C200.648 57.7422 200.398 57.8047 200.117 57.8047C198.758 57.8047 197.383 57.8516 195.992 57.9453C194.617 58.0234 193.242 58.1328 191.867 58.2734C191.164 58.3672 190.812 58.7188 190.812 59.3281C190.812 59.375 190.82 59.4375 190.836 59.5156C190.852 59.5781 190.859 59.6328 190.859 59.6797C191.047 61.0391 191.219 62.3125 191.375 63.5C191.547 64.6875 191.688 65.75 191.797 66.6875C191.922 67.6094 192.016 68.3828 192.078 69.0078C192.156 69.6172 192.195 70.0234 192.195 70.2266C192.195 70.7891 192.141 71.2578 192.031 71.6328C191.922 72.0234 191.742 72.3359 191.492 72.5703C191.242 72.8203 190.906 72.9922 190.484 73.0859C190.078 73.1953 189.562 73.25 188.938 73.25C188.344 73.25 187.906 73.1094 187.625 72.8281C187.344 72.5469 187.188 72.1172 187.156 71.5391C187.062 69.6953 186.914 67.8438 186.711 65.9844C186.508 64.1094 186.273 62.2422 186.008 60.3828C185.867 59.7109 185.516 59.375 184.953 59.375C184.906 59.375 184.852 59.3828 184.789 59.3984C184.727 59.4141 184.672 59.4219 184.625 59.4219C183.656 59.6406 182.742 59.8594 181.883 60.0781C181.023 60.2969 180.219 60.5312 179.469 60.7812C179.047 60.9219 178.672 61.0234 178.344 61.0859C178.016 61.1328 177.719 61.1562 177.453 61.1562C177.094 61.1562 176.828 61 176.656 60.6875C176.484 60.3594 176.398 59.9531 176.398 59.4688C176.398 59.2969 176.414 59.1016 176.445 58.8828C176.477 58.6484 176.539 58.4219 176.633 58.2031C176.711 57.9688 176.836 57.7578 177.008 57.5703C177.164 57.3672 177.383 57.2031 177.664 57.0781C178.32 56.8125 179.195 56.5391 180.289 56.2578C181.383 55.9609 182.617 55.6875 183.992 55.4375C184.305 55.3594 184.547 55.2344 184.719 55.0625C184.906 54.875 185 54.6016 185 54.2422C185 54.1641 185 54.0859 185 54.0078C185 53.9141 184.984 53.8203 184.953 53.7266C184.703 52.2891 184.461 50.9844 184.227 49.8125C184.008 48.625 183.812 47.6094 183.641 46.7656C183.484 45.9219 183.359 45.2578 183.266 44.7734C183.172 44.2891 183.125 44.0078 183.125 43.9297ZM200.844 63.2188C200.844 62.9531 200.875 62.6562 200.938 62.3281C201 62 201.031 61.6406 201.031 61.25C201.031 60.9844 200.914 60.7812 200.68 60.6406C200.461 60.5 200.211 60.3438 199.93 60.1719C199.648 60 199.391 59.7812 199.156 59.5156C198.938 59.25 198.828 58.8672 198.828 58.3672C198.828 58.0078 198.922 57.6484 199.109 57.2891C199.312 56.9297 199.602 56.6016 199.977 56.3047C200.898 55.6172 201.852 55 202.836 54.4531C203.836 53.9062 204.828 53.4453 205.812 53.0703C206.812 52.6953 207.797 52.4062 208.766 52.2031C209.734 52 210.664 51.8984 211.555 51.8984C213.055 51.8984 214.461 52.1797 215.773 52.7422C217.102 53.2891 218.25 54.0469 219.219 55.0156C220.203 55.9688 220.977 57.0938 221.539 58.3906C222.117 59.6719 222.406 61.0469 222.406 62.5156C222.406 63.9531 222.102 65.3203 221.492 66.6172C220.898 67.8984 220.094 69.0234 219.078 69.9922C218.062 70.9609 216.867 71.7266 215.492 72.2891C214.133 72.8672 212.695 73.1562 211.18 73.1562C209.695 73.1562 208.32 72.9062 207.055 72.4062C205.789 71.9062 204.695 71.2188 203.773 70.3438C202.852 69.4531 202.133 68.4062 201.617 67.2031C201.102 65.9844 200.844 64.6562 200.844 63.2188ZM211.695 68.9375C212.352 68.9375 213.031 68.8047 213.734 68.5391C214.438 68.2734 215.078 67.8906 215.656 67.3906C216.25 66.875 216.734 66.25 217.109 65.5156C217.5 64.7812 217.695 63.9531 217.695 63.0312C217.695 62.0938 217.523 61.2188 217.18 60.4062C216.836 59.5938 216.359 58.8906 215.75 58.2969C215.156 57.6875 214.445 57.2109 213.617 56.8672C212.805 56.5234 211.922 56.3516 210.969 56.3516C209.234 56.3516 207.906 56.8047 206.984 57.7109C206.062 58.6016 205.602 59.9766 205.602 61.8359C205.602 62.8516 205.75 63.7969 206.047 64.6719C206.359 65.5312 206.789 66.2812 207.336 66.9219C207.883 67.5469 208.523 68.0391 209.258 68.3984C210.008 68.7578 210.82 68.9375 211.695 68.9375ZM231.312 50.6562C232.359 50.6562 233.438 50.7969 234.547 51.0781C235.656 51.3438 236.672 51.6953 237.594 52.1328C238.516 52.5547 239.273 53.0312 239.867 53.5625C240.461 54.0938 240.758 54.6094 240.758 55.1094C240.758 55.3594 240.648 55.6406 240.43 55.9531C240.211 56.25 239.945 56.5391 239.633 56.8203C239.32 57.0859 238.977 57.3125 238.602 57.5C238.242 57.6719 237.922 57.7578 237.641 57.7578C237.266 57.7578 236.844 57.6016 236.375 57.2891C235.922 56.9766 235.414 56.6328 234.852 56.2578C234.305 55.8672 233.703 55.5156 233.047 55.2031C232.391 54.8906 231.68 54.7344 230.914 54.7344C230.414 54.7344 230 54.8594 229.672 55.1094C229.359 55.3438 229.203 55.6797 229.203 56.1172C229.203 56.5078 229.391 56.9062 229.766 57.3125C230.141 57.7031 230.633 58.1094 231.242 58.5312C231.867 58.9531 232.57 59.3984 233.352 59.8672C234.133 60.3359 234.93 60.8359 235.742 61.3672C236.57 61.8984 237.375 62.4766 238.156 63.1016C238.938 63.7266 239.633 64.4062 240.242 65.1406C240.867 65.875 241.367 66.6797 241.742 67.5547C242.117 68.4141 242.305 69.3516 242.305 70.3672C242.305 71.2422 242.148 72.0391 241.836 72.7578C241.523 73.4766 241.078 74.0938 240.5 74.6094C239.922 75.125 239.234 75.5234 238.438 75.8047C237.641 76.0859 236.766 76.2266 235.812 76.2266C234.609 76.2266 233.5 76.0391 232.484 75.6641C231.469 75.3047 230.594 74.8047 229.859 74.1641C229.125 73.5234 228.547 72.7578 228.125 71.8672C227.719 70.9766 227.516 70 227.516 68.9375C227.516 67.5625 227.758 66.5625 228.242 65.9375C228.742 65.3125 229.523 65 230.586 65C231.242 65 231.766 65.125 232.156 65.375C232.547 65.625 232.742 65.9297 232.742 66.2891C232.742 66.4766 232.711 66.6719 232.648 66.875C232.586 67.0625 232.516 67.2656 232.438 67.4844C232.375 67.6875 232.312 67.9062 232.25 68.1406C232.203 68.375 232.18 68.6094 232.18 68.8438C232.18 69.25 232.273 69.6406 232.461 70.0156C232.648 70.3906 232.898 70.7188 233.211 71C233.539 71.2969 233.914 71.5312 234.336 71.7031C234.758 71.875 235.203 71.9609 235.672 71.9609C236.922 71.9609 237.547 71.4453 237.547 70.4141C237.547 69.6016 237.227 68.8359 236.586 68.1172C235.945 67.3828 235.141 66.6719 234.172 65.9844C233.203 65.2812 232.156 64.5781 231.031 63.875C229.922 63.1719 228.883 62.4375 227.914 61.6719C226.945 60.9062 226.141 60.0938 225.5 59.2344C224.859 58.3594 224.539 57.4141 224.539 56.3984C224.539 55.5547 224.711 54.7812 225.055 54.0781C225.414 53.375 225.898 52.7734 226.508 52.2734C227.117 51.7578 227.828 51.3594 228.641 51.0781C229.469 50.7969 230.359 50.6562 231.312 50.6562Z" fill="#F8A80D"/>
<defs>
<filter id="filter0_b_634_10580" x="1" y="-30" width="342" height="156" filterUnits="userSpaceOnUse" color-interpolation-filters="sRGB">
<feFlood flood-opacity="0" result="BackgroundImageFix"/>
<feGaussianBlur in="BackgroundImageFix" stdDeviation="15"/>
<feComposite in2="SourceAlpha" operator="in" result="effect1_backgroundBlur_634_10580"/>
<feBlend mode="normal" in="SourceGraphic" in2="effect1_backgroundBlur_634_10580" result="shape"/>
</filter>
</defs>
</svg>
