<svg width="343" height="96" viewBox="0 0 343 96" fill="none" xmlns="http://www.w3.org/2000/svg">
<g filter="url(#filter0_b_634_10580)">
<path opacity="0.7" d="M113.762 24.1663C110.114 21.4804 83.238 23.4501 81.3183 22.5548C79.7825 21.4804 82.6621 3.39486 84.1979 0.88796C84.7738 -0.0073624 85.3497 -0.186427 86.6935 0.350767C88.8052 1.24609 117.025 0.708896 117.025 0.708896C117.409 1.24609 118.561 -0.544556 118.753 0.171702C119.329 1.60422 165.21 1.06702 169.05 1.06702C171.353 1.06702 169.434 2.14141 172.313 1.78328C178.264 1.06702 191.127 2.49954 195.734 1.60422C199.381 0.88796 200.149 0.88796 203.605 1.60422C207.06 2.32048 225.874 2.14141 227.985 0.88796C228.561 0.529831 228.945 0.708896 228.945 1.06702C228.945 1.06702 242.191 1.96235 242.191 2.14141C242.191 2.49954 242.767 2.67861 243.151 2.49954C243.919 2.14141 257.933 1.06702 258.125 2.32048C258.701 5.7227 256.589 19.8688 254.861 23.271C253.134 26.8523 243.919 22.3757 236.624 24.3454L202.261 23.271L194.774 24.3454C194.006 23.092 190.743 25.957 188.631 23.8082C187.863 22.9129 181.912 22.5548 180.568 23.4501C179.416 24.1663 149.468 21.3013 146.397 23.6292C141.214 21.8385 118.945 23.9873 113.762 24.1663Z" fill="white"/>
<path opacity="0.7" d="M214.355 6.79658C219.538 8.58723 253.901 1.06652 256.397 1.60371C258.701 2.31997 258.509 20.7636 256.973 23.6286C256.397 24.703 255.629 24.8821 253.901 24.703C251.022 24.3449 214.547 30.7912 214.547 30.7912C213.971 30.254 212.819 32.4028 212.435 31.6865C211.284 30.254 152.348 40.4607 147.357 41.177C144.285 41.7142 146.589 40.2816 142.941 41.177C135.262 43.1467 118.369 44.5792 112.802 46.3698C108.194 47.8024 107.235 47.9814 102.627 47.9814C98.0198 47.9814 73.8313 52.279 71.1437 53.8905C70.5678 54.2487 69.9919 54.2487 69.9919 53.8905C69.9919 53.8905 52.7144 55.8603 52.7144 55.5021C52.5224 55.144 51.9465 54.9649 51.5625 55.3231C50.7946 55.8603 32.7492 59.7997 32.1733 58.7253C30.6375 55.5021 30.6375 40.9979 32.1733 37.4166C33.7091 33.4772 46.3793 35.9841 55.5939 32.4028L100.132 25.9565L109.538 23.2705C110.882 24.3449 114.529 20.7636 117.409 22.5543C118.561 23.2705 126.24 22.3752 127.776 21.3008C129.119 20.4055 168.282 16.8242 171.929 13.9592C179.416 14.8545 207.636 8.05003 214.355 6.79658Z" fill="white"/>
<path opacity="0.7" d="M80.3586 59.2624C74.2155 56.3974 34.4772 59.6205 31.7896 58.9043C29.4859 58.0089 32.7494 39.7444 34.8611 37.0584C35.629 36.1631 36.5889 35.805 38.7006 36.3421C39.4685 36.5212 42.924 36.5212 47.3393 36.5212C53.4825 36.3421 54.0584 36.3421 84.9659 35.6259C85.5418 36.1631 87.2696 34.3724 87.4616 35.0887C87.6535 35.4468 92.2609 35.6259 98.9799 35.805C105.699 35.984 162.331 36.8793 163.867 37.0584C167.514 37.2375 164.634 38.1328 168.858 37.9537C177.881 37.5956 197.462 39.7444 204.373 39.3862C209.94 39.0281 211.092 39.0281 216.275 40.1025C220.498 40.9978 249.87 42.9675 253.326 42.0722C254.094 41.8931 254.669 42.0722 254.669 42.4303C254.669 42.4303 255.053 42.4303 255.437 42.6094C255.821 42.7885 269.451 44.5791 271.371 44.7582C273.291 45.1163 274.443 45.2954 274.443 45.2954C274.635 45.6535 275.211 46.0116 275.786 45.8326C276.938 45.4744 298.247 46.7279 298.439 47.8023C299.015 51.2045 294.024 64.9925 291.144 68.2156C288.073 71.6179 275.402 65.7087 263.884 66.604C208.02 60.6949 211.476 61.7693 201.685 62.3065C200.533 61.053 195.542 63.5599 192.662 61.2321C191.511 60.3368 182.68 59.6205 180.76 60.3368C178.84 61.053 134.879 56.5764 129.695 59.0833C122.401 57.1136 98.02 58.3671 90.3411 58.7252C85.7338 58.9043 82.2783 59.0833 80.3586 59.2624Z" fill="white"/>
<path opacity="0.7" d="M253.518 43.8633C254.669 44.5795 258.125 45.1167 262.348 45.6539C264.46 45.833 266.956 46.0121 269.451 46.1911C275.018 46.7283 297.095 48.1608 299.015 49.0562C301.127 50.3096 294.984 67.8579 292.68 70.3648C291.912 71.2602 290.952 71.2602 289.224 70.5439C286.345 69.4695 262.156 67.6789 248.142 67.4998C247.758 66.9626 246.031 68.7532 245.839 68.037C245.647 67.6789 241.615 67.1417 235.664 66.9626C229.713 66.7835 221.65 66.6045 213.395 66.6045C211.284 66.6045 209.364 66.6045 207.252 66.6045C205.141 66.6045 193.622 66.9626 190.359 67.3207C183.832 67.6789 178.84 68.037 177.688 68.037C174.425 68.2161 176.921 67.1417 173.273 67.6789C165.21 68.9323 147.741 69.2904 141.79 70.902C136.99 72.1555 136.03 72.1555 131.231 72.1555C130.079 72.1555 127.584 72.3345 124.512 72.8717C121.441 73.2299 117.793 73.7671 114.146 74.4833C110.498 75.1996 107.043 75.9158 104.163 76.453C101.283 77.1693 99.3637 77.7065 98.5958 78.2437C98.0199 78.7809 97.444 78.6018 97.252 78.2437C97.252 78.2437 97.0601 78.2437 96.4841 78.2437C95.9082 78.2437 90.533 79.139 88.4213 79.3181C84.0059 80.0343 79.5906 80.7506 79.3986 80.5715C79.2066 80.2134 78.6307 80.0343 78.2468 80.5715C77.2869 81.1087 59.2415 86.4806 58.4736 85.4062C56.7459 82.3621 55.4021 68.037 56.7459 64.0976C57.5138 62.1279 61.1612 61.4116 65.9605 60.6953C70.7598 59.9791 76.519 59.4419 81.5103 57.2931C81.5103 57.2931 82.2782 57.1141 83.622 56.935C84.9658 56.7559 86.6936 56.3978 88.9972 56.0397C128.352 49.2352 118.177 52.8165 139.486 47.8027C140.83 48.8771 145.053 45.4749 147.933 47.4446C149.085 48.1608 157.339 47.6236 159.067 46.7283C159.451 46.5492 162.331 46.3702 166.554 46.1911C188.823 45.1167 204.181 45.4749 207.06 43.8633C213.203 45.2958 239.504 43.8633 253.518 43.8633Z" fill="white"/>
<path opacity="0.7" d="M122.016 91.6734C117.601 89.3455 92.0684 96.5081 90.1487 95.9709C88.4209 95.2547 86.8852 76.9901 87.845 74.1251C88.229 73.0507 88.8049 72.8716 90.1487 73.0507C90.7246 73.2297 93.0283 72.8716 95.9078 72.3344C98.9794 71.7972 120.864 67.6787 120.864 67.6787C121.248 68.2159 122.208 66.2462 122.4 66.7834C122.592 67.1416 125.664 66.9625 130.271 66.4253C134.878 65.8881 172.889 61.2324 173.849 61.2324C176.344 61.0534 174.425 62.3068 177.304 61.5905C183.255 60.3371 196.693 60.5162 201.301 59.4418C204.948 58.5465 205.716 58.5465 209.364 59.0836C211.283 59.4418 216.85 59.0836 222.418 58.9046C227.985 58.5465 233.36 58.0093 234.512 57.4721C235.088 57.1139 235.472 57.293 235.472 57.6511C235.472 57.6511 235.664 57.6511 236.048 57.6511C236.432 57.6511 240.655 57.8302 242.191 58.0093C245.646 58.1883 249.102 58.5465 249.102 58.5465C249.294 58.9046 249.678 59.0836 250.062 58.9046C250.83 58.3674 265.227 57.4721 265.419 58.7255C265.995 62.1277 263.5 76.2738 261.964 79.6761C260.236 83.2574 251.213 78.7807 243.727 80.9295C230.097 80.7505 227.025 80.7505 209.364 81.1086L202.069 82.7202C201.109 81.4667 198.229 84.6899 195.925 82.5411C194.966 81.6458 189.206 81.8248 188.055 82.7202C187.863 82.8992 185.751 83.0783 182.679 83.2574C179.416 83.4364 156.571 84.1527 154.267 86.4805C148.316 85.048 127.967 90.2409 122.016 91.6734Z" fill="white"/>
<path opacity="0.7" d="M280.394 16.2871C283.657 18.794 310.341 17.8987 312.645 18.794C314.181 19.8684 310.341 37.7749 308.614 40.4608C308.038 41.3561 307.462 41.5352 306.118 40.998C303.814 39.9236 281.929 39.9236 277.898 39.9236C277.13 39.9236 276.746 39.9236 276.746 39.9236C276.362 39.3864 275.21 41.1771 275.018 40.4608C274.634 39.5655 263.5 39.3864 251.79 39.5655C243.727 39.7446 233.936 40.2818 226.257 40.6399C223.954 40.8189 225.682 39.5655 222.994 40.1027C217.235 41.1771 204.757 40.6399 200.533 41.8933C197.078 42.9677 196.31 42.9677 193.046 42.4305C191.318 42.2515 185.943 42.6096 180.76 43.3259C175.577 44.0421 170.585 44.9374 169.626 45.6537C169.242 46.0118 168.858 46.0118 168.666 45.4746C168.666 45.4746 168.474 45.4746 168.09 45.4746C167.706 45.4746 163.866 45.6537 162.331 45.8328C159.067 46.0118 155.996 46.1909 155.804 46.0118C155.612 45.6537 155.228 45.4746 154.844 45.8328C154.268 46.1909 141.022 49.414 140.638 48.3397C139.486 45.1165 138.91 30.7913 139.87 27.21C140.446 25.2403 143.133 25.0613 146.589 24.8822C150.044 24.7031 154.268 24.8822 157.723 23.2706C201.493 18.794 185.559 21.8381 199.189 18.4359C200.149 19.5103 203.029 16.4662 205.332 18.4359C206.292 19.3312 212.051 19.1521 213.395 18.2568C213.587 18.0778 215.699 18.0778 218.771 17.8987C225.682 17.7196 229.905 17.8987 235.664 17.7196C237.584 17.7196 239.504 17.7196 241.039 17.5406C244.303 17.3615 246.798 17.0034 247.566 16.4662C250.254 17.5406 257.165 17.3615 264.076 17.0034C270.987 17.0034 277.706 16.4662 280.394 16.2871Z" fill="white"/>
</g>
<path d="M157.545 17.58L160.385 11.32H158.365V11H162.305V11.32H160.985L157.965 18V24.62H159.185V25H152.845V24.62H154.065V18.38L150.665 11.32H149.725V11H156.125V11.32H154.825L157.545 17.58ZM167.183 21.06V19.36C167.183 18.0667 167.11 17.1267 166.963 16.54C166.83 15.94 166.51 15.64 166.003 15.64C165.71 15.64 165.47 15.7267 165.283 15.9C165.11 16.06 164.983 16.3333 164.903 16.72C164.783 17.32 164.723 18.2333 164.723 19.46V21.02C164.723 22.4733 164.763 23.3467 164.843 23.64C164.937 23.9333 165.03 24.1733 165.123 24.36C165.27 24.68 165.557 24.84 165.983 24.84C166.503 24.84 166.843 24.54 167.003 23.94C167.123 23.5133 167.183 22.5533 167.183 21.06ZM165.943 25.2C164.277 25.2 163.017 24.7733 162.163 23.92C161.31 23.0667 160.883 21.8467 160.883 20.26C160.883 18.66 161.337 17.4333 162.243 16.58C163.163 15.7133 164.45 15.28 166.103 15.28C167.757 15.28 168.99 15.68 169.803 16.48C170.617 17.2667 171.023 18.4733 171.023 20.1C171.023 23.5 169.33 25.2 165.943 25.2ZM183.283 25H178.723L178.503 23.54C178.289 24.0733 177.969 24.4867 177.543 24.78C177.129 25.06 176.509 25.2 175.683 25.2C173.616 25.2 172.583 24.0867 172.583 21.86V15.84H171.463V15.48H176.303V22.34C176.303 23.14 176.356 23.6667 176.463 23.92C176.583 24.1733 176.809 24.3 177.143 24.3C177.489 24.3 177.796 24.0933 178.063 23.68C178.329 23.2667 178.463 22.6933 178.463 21.96V15.84H177.543V15.48H182.183V24.64H183.283V25ZM190.372 16.04C189.879 16.04 189.446 16.36 189.072 17C188.699 17.64 188.512 18.4 188.512 19.28V24.64H189.932V25H183.692V24.64H184.792V15.84H183.692V15.48H188.512V17.4C188.686 16.72 189.019 16.2 189.512 15.84C190.006 15.4667 190.566 15.28 191.192 15.28C191.819 15.28 192.326 15.46 192.712 15.82C193.112 16.1667 193.312 16.6667 193.312 17.32C193.312 17.96 193.166 18.4533 192.872 18.8C192.579 19.1467 192.126 19.32 191.512 19.32C190.912 19.32 190.466 19.12 190.172 18.72C189.892 18.32 189.859 17.7667 190.072 17.06H190.792C191.126 16.38 190.986 16.04 190.372 16.04Z" fill="black"/>
<path d="M67.625 49.1094C67.625 48.8281 67.6953 48.5703 67.8359 48.3359C67.9766 48.0859 68.1719 47.875 68.4219 47.7031C68.6719 47.5156 68.9609 47.3672 69.2891 47.2578C69.6328 47.1484 69.9922 47.0938 70.3672 47.0938C71.1016 47.0938 71.6406 47.2109 71.9844 47.4453C72.3281 47.6797 72.5391 48.0469 72.6172 48.5469C72.8828 50.625 73.1016 52.5938 73.2734 54.4531C73.4609 56.2969 73.6094 58.0625 73.7188 59.75C73.8281 61.4219 73.9062 63.0312 73.9531 64.5781C74 66.1094 74.0234 67.5938 74.0234 69.0312C74.0234 69.8125 73.7422 70.3984 73.1797 70.7891C72.6328 71.1797 71.8281 71.375 70.7656 71.375C70.2812 71.375 69.8984 71.2578 69.6172 71.0234C69.3516 70.8047 69.2188 70.4766 69.2188 70.0391C69.2188 67.3516 69.1328 64.8359 68.9609 62.4922C68.8047 60.1328 68.625 58.0391 68.4219 56.2109C68.2188 54.3828 68.0312 52.8594 67.8594 51.6406C67.7031 50.4062 67.625 49.5625 67.625 49.1094ZM79.1094 52.0859C79.1094 51.8516 79.2109 51.625 79.4141 51.4062C79.6172 51.1719 79.8828 50.9688 80.2109 50.7969C80.5391 50.6094 80.9062 50.4609 81.3125 50.3516C81.7344 50.2266 82.1562 50.1641 82.5781 50.1641C82.8125 50.1641 83.0078 50.2266 83.1641 50.3516C83.3359 50.4766 83.4844 50.7188 83.6094 51.0781C83.7344 51.4219 83.8438 51.9141 83.9375 52.5547C84.0469 53.1797 84.1484 54 84.2422 55.0156C84.3047 55.3281 84.3594 55.5703 84.4062 55.7422C84.4688 55.8984 84.5469 55.9766 84.6406 55.9766C84.7812 55.9766 84.9219 55.7344 85.0625 55.25C86.2031 51.9531 87.8516 50.3047 90.0078 50.3047C91.0078 50.3047 91.9141 50.6172 92.7266 51.2422C93.5547 51.8672 94.3203 52.8906 95.0234 54.3125C95.7422 55.7188 96.4219 57.5781 97.0625 59.8906C97.7031 62.1875 98.3438 65.0234 98.9844 68.3984C99.0156 68.5703 99.0391 68.7266 99.0547 68.8672C99.0703 69.0078 99.0781 69.1406 99.0781 69.2656C99.0781 69.625 98.9922 69.9375 98.8203 70.2031C98.6641 70.4531 98.4531 70.6641 98.1875 70.8359C97.9219 70.9922 97.625 71.1094 97.2969 71.1875C96.9688 71.2812 96.6406 71.3281 96.3125 71.3281C95.6562 71.3281 95.1797 71.2578 94.8828 71.1172C94.6016 70.9766 94.4219 70.7109 94.3438 70.3203C93.8906 67.9453 93.4453 65.8359 93.0078 63.9922C92.5859 62.1484 92.1641 60.6016 91.7422 59.3516C91.3359 58.0859 90.9297 57.125 90.5234 56.4688C90.1172 55.8125 89.7109 55.4844 89.3047 55.4844C88.8984 55.4844 88.5156 55.7422 88.1562 56.2578C87.8125 56.7578 87.4766 57.5469 87.1484 58.625C86.8203 59.7031 86.5 61.0703 86.1875 62.7266C85.8906 64.3828 85.6016 66.3594 85.3203 68.6562C85.2422 69.2812 84.9297 69.7812 84.3828 70.1562C83.8359 70.5312 83.1406 70.7188 82.2969 70.7188C81.7344 70.7188 81.3047 70.6016 81.0078 70.3672C80.7109 70.1328 80.5469 69.8125 80.5156 69.4062C80.375 66.1562 80.2188 63.4844 80.0469 61.3906C79.8906 59.2812 79.7422 57.5938 79.6016 56.3281C79.4609 55.0469 79.3438 54.0938 79.25 53.4688C79.1562 52.8438 79.1094 52.3828 79.1094 52.0859ZM99.5469 58.0859C99.1875 58.0547 98.8984 57.8203 98.6797 57.3828C98.4609 56.9453 98.3516 56.4609 98.3516 55.9297C98.3516 55.6797 98.375 55.4375 98.4219 55.2031C98.4531 54.9531 98.5156 54.7344 98.6094 54.5469C98.7031 54.3594 98.8203 54.2109 98.9609 54.1016C99.1016 53.9766 99.2656 53.9141 99.4531 53.9141C100.031 53.9141 100.695 53.8984 101.445 53.8672C102.195 53.8203 103 53.7734 103.859 53.7266C104.297 53.6797 104.539 53.4219 104.586 52.9531C104.727 50.6875 104.922 48.7344 105.172 47.0938C105.422 45.4531 105.727 44.0703 106.086 42.9453C106.445 41.8047 106.852 40.8828 107.305 40.1797C107.773 39.4766 108.289 38.9375 108.852 38.5625C109.023 38.4375 109.227 38.3125 109.461 38.1875C109.695 38.0469 109.914 37.9766 110.117 37.9766C110.508 37.9766 110.914 38.0781 111.336 38.2812C111.773 38.4688 112.172 38.7188 112.531 39.0312C112.906 39.3281 113.211 39.6719 113.445 40.0625C113.68 40.4375 113.797 40.8125 113.797 41.1875C113.797 41.3281 113.766 41.4453 113.703 41.5391C113.641 41.6172 113.562 41.6953 113.469 41.7734C112.859 42.2266 112.32 42.7344 111.852 43.2969C111.383 43.8594 110.984 44.5469 110.656 45.3594C110.328 46.1719 110.055 47.1484 109.836 48.2891C109.617 49.4297 109.453 50.8047 109.344 52.4141C109.344 52.6641 109.383 52.8516 109.461 52.9766C109.555 53.0859 109.719 53.1406 109.953 53.1406C110.562 53.1406 111.172 53.0938 111.781 53C112.406 52.9062 113 52.8125 113.562 52.7188C114.125 52.6094 114.656 52.5078 115.156 52.4141C115.656 52.3203 116.102 52.2734 116.492 52.2734C116.773 52.2734 116.977 52.4453 117.102 52.7891C117.242 53.1172 117.312 53.5234 117.312 54.0078C117.312 54.2891 117.289 54.5781 117.242 54.875C117.195 55.1719 117.117 55.4375 117.008 55.6719C116.914 55.9062 116.789 56.1094 116.633 56.2812C116.477 56.4375 116.281 56.5312 116.047 56.5625L109.812 57.2188C109.484 57.2656 109.281 57.3984 109.203 57.6172C109.141 57.8359 109.109 58.1406 109.109 58.5312C109.109 61.9844 109.195 64.9531 109.367 67.4375C109.539 69.9219 109.727 72.0078 109.93 73.6953C110.148 75.3984 110.344 76.7344 110.516 77.7031C110.688 78.6875 110.773 79.3984 110.773 79.8359C110.773 80.1641 110.641 80.4609 110.375 80.7266C110.125 80.9922 109.797 81.2188 109.391 81.4062C109 81.5938 108.57 81.7344 108.102 81.8281C107.633 81.9375 107.195 81.9922 106.789 81.9922C106.398 81.9922 106.047 81.9219 105.734 81.7812C105.438 81.6562 105.266 81.4375 105.219 81.125C105.062 80.0312 104.93 78.8281 104.82 77.5156C104.711 76.2188 104.617 74.7734 104.539 73.1797C104.477 71.6016 104.43 69.875 104.398 68C104.367 66.1094 104.352 64.0391 104.352 61.7891C104.352 61.2109 104.352 60.6484 104.352 60.1016C104.352 59.5547 104.367 59.0078 104.398 58.4609C104.398 57.9922 104.141 57.7578 103.625 57.7578L99.5469 58.0859ZM116.562 63.2188C116.562 62.9531 116.594 62.6562 116.656 62.3281C116.719 62 116.75 61.6406 116.75 61.25C116.75 60.9844 116.633 60.7812 116.398 60.6406C116.18 60.5 115.93 60.3438 115.648 60.1719C115.367 60 115.109 59.7812 114.875 59.5156C114.656 59.25 114.547 58.8672 114.547 58.3672C114.547 58.0078 114.641 57.6484 114.828 57.2891C115.031 56.9297 115.32 56.6016 115.695 56.3047C116.617 55.6172 117.57 55 118.555 54.4531C119.555 53.9062 120.547 53.4453 121.531 53.0703C122.531 52.6953 123.516 52.4062 124.484 52.2031C125.453 52 126.383 51.8984 127.273 51.8984C128.773 51.8984 130.18 52.1797 131.492 52.7422C132.82 53.2891 133.969 54.0469 134.938 55.0156C135.922 55.9688 136.695 57.0938 137.258 58.3906C137.836 59.6719 138.125 61.0469 138.125 62.5156C138.125 63.9531 137.82 65.3203 137.211 66.6172C136.617 67.8984 135.812 69.0234 134.797 69.9922C133.781 70.9609 132.586 71.7266 131.211 72.2891C129.852 72.8672 128.414 73.1562 126.898 73.1562C125.414 73.1562 124.039 72.9062 122.773 72.4062C121.508 71.9062 120.414 71.2188 119.492 70.3438C118.57 69.4531 117.852 68.4062 117.336 67.2031C116.82 65.9844 116.562 64.6562 116.562 63.2188ZM127.414 68.9375C128.07 68.9375 128.75 68.8047 129.453 68.5391C130.156 68.2734 130.797 67.8906 131.375 67.3906C131.969 66.875 132.453 66.25 132.828 65.5156C133.219 64.7812 133.414 63.9531 133.414 63.0312C133.414 62.0938 133.242 61.2188 132.898 60.4062C132.555 59.5938 132.078 58.8906 131.469 58.2969C130.875 57.6875 130.164 57.2109 129.336 56.8672C128.523 56.5234 127.641 56.3516 126.688 56.3516C124.953 56.3516 123.625 56.8047 122.703 57.7109C121.781 58.6016 121.32 59.9766 121.32 61.8359C121.32 62.8516 121.469 63.7969 121.766 64.6719C122.078 65.5312 122.508 66.2812 123.055 66.9219C123.602 67.5469 124.242 68.0391 124.977 68.3984C125.727 68.7578 126.539 68.9375 127.414 68.9375ZM143.281 72.0078C143.172 69.9297 142.992 68.0156 142.742 66.2656C142.508 64.5 142.258 62.9609 141.992 61.6484C141.742 60.3359 141.516 59.2734 141.312 58.4609C141.125 57.6484 141.031 57.1406 141.031 56.9375C141.031 56.6406 141.141 56.3516 141.359 56.0703C141.594 55.7891 141.883 55.5469 142.227 55.3438C142.57 55.125 142.938 54.9531 143.328 54.8281C143.734 54.7031 144.102 54.6406 144.43 54.6406C144.695 54.6406 144.922 54.6875 145.109 54.7812C145.312 54.875 145.453 55.0312 145.531 55.25C145.609 55.5156 145.68 55.7969 145.742 56.0938C145.82 56.375 145.898 56.7188 145.977 57.125C146.07 57.7031 146.195 57.9922 146.352 57.9922C146.523 57.9922 146.719 57.7344 146.938 57.2188C147.25 56.5 147.586 55.9062 147.945 55.4375C148.305 54.9688 148.688 54.6016 149.094 54.3359C149.516 54.0547 149.945 53.8594 150.383 53.75C150.836 53.6406 151.305 53.5859 151.789 53.5859C153.258 53.5859 154.5 54.1641 155.516 55.3203C156.547 56.4766 157.352 58.1484 157.93 60.3359C158.008 60.5859 158.078 60.75 158.141 60.8281C158.203 60.8906 158.273 60.9219 158.352 60.9219C158.43 60.9219 158.508 60.8906 158.586 60.8281C158.68 60.75 158.766 60.6016 158.844 60.3828C159.219 59.3672 159.656 58.5078 160.156 57.8047C160.656 57.0859 161.172 56.5078 161.703 56.0703C162.25 55.6172 162.805 55.2891 163.367 55.0859C163.93 54.8828 164.469 54.7812 164.984 54.7812C165.938 54.7812 166.797 55.1328 167.562 55.8359C168.344 56.5234 169.031 57.5938 169.625 59.0469C170.234 60.4844 170.758 62.3125 171.195 64.5312C171.648 66.7344 172.023 69.3516 172.32 72.3828C172.32 73.2266 172.062 73.8125 171.547 74.1406C171.031 74.4844 170.328 74.6562 169.438 74.6562C168.859 74.6562 168.406 74.5312 168.078 74.2812C167.75 74.0312 167.562 73.7031 167.516 73.2969C167.312 71.125 167.086 69.1953 166.836 67.5078C166.602 65.8047 166.344 64.375 166.062 63.2188C165.781 62.0469 165.469 61.1562 165.125 60.5469C164.797 59.9375 164.43 59.6328 164.023 59.6328C163.82 59.6328 163.562 59.7812 163.25 60.0781C162.953 60.375 162.633 60.9219 162.289 61.7188C161.945 62.5 161.586 63.5781 161.211 64.9531C160.836 66.3125 160.477 68.0547 160.133 70.1797C160.039 70.7734 159.75 71.2266 159.266 71.5391C158.797 71.8516 158.219 72.0078 157.531 72.0078C156.734 72.0078 156.18 71.8828 155.867 71.6328C155.57 71.3828 155.406 70.9609 155.375 70.3672C155.312 69.3359 155.203 68.3125 155.047 67.2969C154.906 66.2656 154.727 65.2891 154.508 64.3672C154.289 63.4297 154.047 62.5703 153.781 61.7891C153.516 60.9922 153.234 60.3047 152.938 59.7266C152.641 59.1328 152.336 58.6719 152.023 58.3438C151.711 58.0156 151.406 57.8516 151.109 57.8516C150.719 57.8516 150.336 58.125 149.961 58.6719C149.602 59.2188 149.273 59.9922 148.977 60.9922C148.695 61.9922 148.469 63.1953 148.297 64.6016C148.125 66.0078 148.039 67.5781 148.039 69.3125C148.039 69.6094 148.047 69.9062 148.062 70.2031C148.078 70.4844 148.086 70.7812 148.086 71.0938C148.086 71.5625 148.008 71.9453 147.852 72.2422C147.711 72.5391 147.5 72.7734 147.219 72.9453C146.953 73.1172 146.641 73.2344 146.281 73.2969C145.922 73.3594 145.531 73.3906 145.109 73.3906C144.719 73.3906 144.406 73.3594 144.172 73.2969C143.938 73.25 143.758 73.1719 143.633 73.0625C143.508 72.9531 143.422 72.8047 143.375 72.6172C143.328 72.4453 143.297 72.2422 143.281 72.0078ZM189.992 50.5156C190.852 50.5156 191.68 50.6484 192.477 50.9141C193.273 51.1797 193.977 51.5469 194.586 52.0156C195.195 52.4844 195.68 53.0469 196.039 53.7031C196.414 54.3594 196.602 55.0859 196.602 55.8828C196.602 56.2109 196.523 56.5312 196.367 56.8438C196.227 57.1406 196.031 57.4062 195.781 57.6406C195.531 57.8594 195.242 58.0391 194.914 58.1797C194.602 58.3047 194.273 58.3672 193.93 58.3672C193.898 58.3672 193.867 58.375 193.836 58.3906C193.82 58.3906 193.797 58.3906 193.766 58.3906C193.734 58.4062 193.703 58.4141 193.672 58.4141L193.766 60.2891C193.828 62.5234 194.141 64.1562 194.703 65.1875C195.281 66.2188 196.031 66.7344 196.953 66.7344C197.281 66.7344 197.57 66.7031 197.82 66.6406C198.086 66.5781 198.328 66.5078 198.547 66.4297C198.781 66.3359 199 66.2578 199.203 66.1953C199.406 66.1328 199.609 66.1016 199.812 66.1016C200.172 66.1016 200.484 66.2578 200.75 66.5703C201.031 66.8828 201.172 67.2578 201.172 67.6953C201.172 68.1328 201 68.5703 200.656 69.0078C200.328 69.4453 199.891 69.8438 199.344 70.2031C198.797 70.5469 198.18 70.8281 197.492 71.0469C196.805 71.2656 196.109 71.375 195.406 71.375C194.188 71.375 193.117 70.875 192.195 69.875C191.273 68.8594 190.617 67.375 190.227 65.4219C190.133 65.1094 190.008 64.9531 189.852 64.9531C189.664 64.9531 189.5 65.0469 189.359 65.2344C187.812 67.1875 186.164 68.6562 184.414 69.6406C182.664 70.6094 180.938 71.0938 179.234 71.0938C178.438 71.0938 177.719 70.9766 177.078 70.7422C176.438 70.5078 175.891 70.1797 175.438 69.7578C175 69.3203 174.656 68.7969 174.406 68.1875C174.172 67.5625 174.055 66.8672 174.055 66.1016C174.055 65.0234 174.289 63.8906 174.758 62.7031C175.242 61.5156 175.891 60.3438 176.703 59.1875C177.516 58.0312 178.453 56.9297 179.516 55.8828C180.594 54.8359 181.719 53.9141 182.891 53.1172C184.078 52.3203 185.281 51.6875 186.5 51.2188C187.719 50.75 188.883 50.5156 189.992 50.5156ZM189.219 58.625C189.5 58.0938 189.758 57.7109 189.992 57.4766C190.227 57.2266 190.562 57.0625 191 56.9844C191.344 56.9375 191.516 56.8281 191.516 56.6562C191.516 56.5312 191.469 56.3984 191.375 56.2578C191.078 55.8516 190.766 55.5 190.438 55.2031C190.109 54.8906 189.672 54.7344 189.125 54.7344C188.531 54.7344 187.867 54.9062 187.133 55.25C186.398 55.5938 185.648 56.0547 184.883 56.6328C184.133 57.1953 183.391 57.8438 182.656 58.5781C181.938 59.2969 181.297 60.0391 180.734 60.8047C180.172 61.5703 179.719 62.3281 179.375 63.0781C179.031 63.8281 178.859 64.5 178.859 65.0938C178.859 65.625 179 66.0391 179.281 66.3359C179.578 66.6328 179.977 66.7812 180.477 66.7812C181.758 66.7812 183.156 66.1016 184.672 64.7422C186.188 63.3828 187.703 61.3438 189.219 58.625ZM204.125 43.9297C204.125 43.1016 204.359 42.5234 204.828 42.1953C205.297 41.8516 206.07 41.6797 207.148 41.6797C207.539 41.6797 207.867 41.7188 208.133 41.7969C208.414 41.8594 208.648 41.9844 208.836 42.1719C209.039 42.3594 209.195 42.6094 209.305 42.9219C209.43 43.2188 209.531 43.6016 209.609 44.0703C209.797 45.5234 210 47.0234 210.219 48.5703C210.453 50.1172 210.695 51.6719 210.945 53.2344C211.039 53.9375 211.406 54.2891 212.047 54.2891C212.219 54.2891 212.5 54.2734 212.891 54.2422C213.297 54.1953 213.773 54.1484 214.32 54.1016C214.867 54.0391 215.453 53.9766 216.078 53.9141C216.719 53.8516 217.352 53.7969 217.977 53.75C218.617 53.6875 219.219 53.6406 219.781 53.6094C220.359 53.5625 220.867 53.5391 221.305 53.5391C221.648 53.5391 221.922 53.6094 222.125 53.75C222.328 53.875 222.484 54.0469 222.594 54.2656C222.719 54.4688 222.797 54.7031 222.828 54.9688C222.875 55.2188 222.898 55.4766 222.898 55.7422C222.898 55.9766 222.852 56.2188 222.758 56.4688C222.68 56.7188 222.562 56.9453 222.406 57.1484C222.266 57.3359 222.086 57.4922 221.867 57.6172C221.648 57.7422 221.398 57.8047 221.117 57.8047C219.758 57.8047 218.383 57.8516 216.992 57.9453C215.617 58.0234 214.242 58.1328 212.867 58.2734C212.164 58.3672 211.812 58.7188 211.812 59.3281C211.812 59.375 211.82 59.4375 211.836 59.5156C211.852 59.5781 211.859 59.6328 211.859 59.6797C212.047 61.0391 212.219 62.3125 212.375 63.5C212.547 64.6875 212.688 65.75 212.797 66.6875C212.922 67.6094 213.016 68.3828 213.078 69.0078C213.156 69.6172 213.195 70.0234 213.195 70.2266C213.195 70.7891 213.141 71.2578 213.031 71.6328C212.922 72.0234 212.742 72.3359 212.492 72.5703C212.242 72.8203 211.906 72.9922 211.484 73.0859C211.078 73.1953 210.562 73.25 209.938 73.25C209.344 73.25 208.906 73.1094 208.625 72.8281C208.344 72.5469 208.188 72.1172 208.156 71.5391C208.062 69.6953 207.914 67.8438 207.711 65.9844C207.508 64.1094 207.273 62.2422 207.008 60.3828C206.867 59.7109 206.516 59.375 205.953 59.375C205.906 59.375 205.852 59.3828 205.789 59.3984C205.727 59.4141 205.672 59.4219 205.625 59.4219C204.656 59.6406 203.742 59.8594 202.883 60.0781C202.023 60.2969 201.219 60.5312 200.469 60.7812C200.047 60.9219 199.672 61.0234 199.344 61.0859C199.016 61.1328 198.719 61.1562 198.453 61.1562C198.094 61.1562 197.828 61 197.656 60.6875C197.484 60.3594 197.398 59.9531 197.398 59.4688C197.398 59.2969 197.414 59.1016 197.445 58.8828C197.477 58.6484 197.539 58.4219 197.633 58.2031C197.711 57.9688 197.836 57.7578 198.008 57.5703C198.164 57.3672 198.383 57.2031 198.664 57.0781C199.32 56.8125 200.195 56.5391 201.289 56.2578C202.383 55.9609 203.617 55.6875 204.992 55.4375C205.305 55.3594 205.547 55.2344 205.719 55.0625C205.906 54.875 206 54.6016 206 54.2422C206 54.1641 206 54.0859 206 54.0078C206 53.9141 205.984 53.8203 205.953 53.7266C205.703 52.2891 205.461 50.9844 205.227 49.8125C205.008 48.625 204.812 47.6094 204.641 46.7656C204.484 45.9219 204.359 45.2578 204.266 44.7734C204.172 44.2891 204.125 44.0078 204.125 43.9297ZM225.055 47.0938C224.602 47.0938 224.172 47.0312 223.766 46.9062C223.375 46.7656 223.031 46.5781 222.734 46.3438C222.453 46.0938 222.227 45.8047 222.055 45.4766C221.883 45.1484 221.797 44.7891 221.797 44.3984C221.797 43.7422 222.055 43.2109 222.57 42.8047C223.102 42.3984 223.805 42.1953 224.68 42.1953C225.086 42.1953 225.477 42.2734 225.852 42.4297C226.227 42.5703 226.555 42.7656 226.836 43.0156C227.133 43.2656 227.367 43.5625 227.539 43.9062C227.711 44.2344 227.797 44.5781 227.797 44.9375C227.797 45.6094 227.547 46.1406 227.047 46.5312C226.562 46.9062 225.898 47.0938 225.055 47.0938ZM221.844 54.2422C221.844 53.6953 222.078 53.25 222.547 52.9062C223.031 52.5469 223.664 52.3672 224.445 52.3672C225.852 52.3672 226.602 52.8516 226.695 53.8203C226.758 54.4922 226.82 55.25 226.883 56.0938C226.961 56.9375 227.031 57.8359 227.094 58.7891C227.172 59.7266 227.234 60.7031 227.281 61.7188C227.344 62.7188 227.398 63.7109 227.445 64.6953C227.492 65.6641 227.531 66.6016 227.562 67.5078C227.594 68.4141 227.609 69.2422 227.609 69.9922C227.609 70.7734 227.328 71.3594 226.766 71.75C226.219 72.1406 225.414 72.3359 224.352 72.3359C223.867 72.3359 223.484 72.2188 223.203 71.9844C222.938 71.7656 222.805 71.4375 222.805 71C222.805 68.8438 222.75 66.8281 222.641 64.9531C222.547 63.0625 222.438 61.3828 222.312 59.9141C222.203 58.4453 222.094 57.2266 221.984 56.2578C221.891 55.2734 221.844 54.6016 221.844 54.2422ZM232.25 63.2188C232.25 62.9531 232.281 62.6562 232.344 62.3281C232.406 62 232.438 61.6406 232.438 61.25C232.438 60.9844 232.32 60.7812 232.086 60.6406C231.867 60.5 231.617 60.3438 231.336 60.1719C231.055 60 230.797 59.7812 230.562 59.5156C230.344 59.25 230.234 58.8672 230.234 58.3672C230.234 58.0078 230.328 57.6484 230.516 57.2891C230.719 56.9297 231.008 56.6016 231.383 56.3047C232.305 55.6172 233.258 55 234.242 54.4531C235.242 53.9062 236.234 53.4453 237.219 53.0703C238.219 52.6953 239.203 52.4062 240.172 52.2031C241.141 52 242.07 51.8984 242.961 51.8984C244.461 51.8984 245.867 52.1797 247.18 52.7422C248.508 53.2891 249.656 54.0469 250.625 55.0156C251.609 55.9688 252.383 57.0938 252.945 58.3906C253.523 59.6719 253.812 61.0469 253.812 62.5156C253.812 63.9531 253.508 65.3203 252.898 66.6172C252.305 67.8984 251.5 69.0234 250.484 69.9922C249.469 70.9609 248.273 71.7266 246.898 72.2891C245.539 72.8672 244.102 73.1562 242.586 73.1562C241.102 73.1562 239.727 72.9062 238.461 72.4062C237.195 71.9062 236.102 71.2188 235.18 70.3438C234.258 69.4531 233.539 68.4062 233.023 67.2031C232.508 65.9844 232.25 64.6562 232.25 63.2188ZM243.102 68.9375C243.758 68.9375 244.438 68.8047 245.141 68.5391C245.844 68.2734 246.484 67.8906 247.062 67.3906C247.656 66.875 248.141 66.25 248.516 65.5156C248.906 64.7812 249.102 63.9531 249.102 63.0312C249.102 62.0938 248.93 61.2188 248.586 60.4062C248.242 59.5938 247.766 58.8906 247.156 58.2969C246.562 57.6875 245.852 57.2109 245.023 56.8672C244.211 56.5234 243.328 56.3516 242.375 56.3516C240.641 56.3516 239.312 56.8047 238.391 57.7109C237.469 58.6016 237.008 59.9766 237.008 61.8359C237.008 62.8516 237.156 63.7969 237.453 64.6719C237.766 65.5312 238.195 66.2812 238.742 66.9219C239.289 67.5469 239.93 68.0391 240.664 68.3984C241.414 68.7578 242.227 68.9375 243.102 68.9375ZM257.281 52.0859C257.281 51.8516 257.383 51.625 257.586 51.4062C257.789 51.1719 258.055 50.9688 258.383 50.7969C258.711 50.6094 259.078 50.4609 259.484 50.3516C259.906 50.2266 260.328 50.1641 260.75 50.1641C260.984 50.1641 261.18 50.2266 261.336 50.3516C261.508 50.4766 261.656 50.7188 261.781 51.0781C261.906 51.4219 262.016 51.9141 262.109 52.5547C262.219 53.1797 262.32 54 262.414 55.0156C262.477 55.3281 262.531 55.5703 262.578 55.7422C262.641 55.8984 262.719 55.9766 262.812 55.9766C262.953 55.9766 263.094 55.7344 263.234 55.25C264.375 51.9531 266.023 50.3047 268.18 50.3047C269.18 50.3047 270.086 50.6172 270.898 51.2422C271.727 51.8672 272.492 52.8906 273.195 54.3125C273.914 55.7188 274.594 57.5781 275.234 59.8906C275.875 62.1875 276.516 65.0234 277.156 68.3984C277.188 68.5703 277.211 68.7266 277.227 68.8672C277.242 69.0078 277.25 69.1406 277.25 69.2656C277.25 69.625 277.164 69.9375 276.992 70.2031C276.836 70.4531 276.625 70.6641 276.359 70.8359C276.094 70.9922 275.797 71.1094 275.469 71.1875C275.141 71.2812 274.812 71.3281 274.484 71.3281C273.828 71.3281 273.352 71.2578 273.055 71.1172C272.773 70.9766 272.594 70.7109 272.516 70.3203C272.062 67.9453 271.617 65.8359 271.18 63.9922C270.758 62.1484 270.336 60.6016 269.914 59.3516C269.508 58.0859 269.102 57.125 268.695 56.4688C268.289 55.8125 267.883 55.4844 267.477 55.4844C267.07 55.4844 266.688 55.7422 266.328 56.2578C265.984 56.7578 265.648 57.5469 265.32 58.625C264.992 59.7031 264.672 61.0703 264.359 62.7266C264.062 64.3828 263.773 66.3594 263.492 68.6562C263.414 69.2812 263.102 69.7812 262.555 70.1562C262.008 70.5312 261.312 70.7188 260.469 70.7188C259.906 70.7188 259.477 70.6016 259.18 70.3672C258.883 70.1328 258.719 69.8125 258.688 69.4062C258.547 66.1562 258.391 63.4844 258.219 61.3906C258.062 59.2812 257.914 57.5938 257.773 56.3281C257.633 55.0469 257.516 54.0938 257.422 53.4688C257.328 52.8438 257.281 52.3828 257.281 52.0859Z" fill="#406F6C"/>
<defs>
<filter id="filter0_b_634_10580" x="1" y="-30" width="342" height="156" filterUnits="userSpaceOnUse" color-interpolation-filters="sRGB">
<feFlood flood-opacity="0" result="BackgroundImageFix"/>
<feGaussianBlur in="BackgroundImageFix" stdDeviation="15"/>
<feComposite in2="SourceAlpha" operator="in" result="effect1_backgroundBlur_634_10580"/>
<feBlend mode="normal" in="SourceGraphic" in2="effect1_backgroundBlur_634_10580" result="shape"/>
</filter>
</defs>
</svg>
