<svg width="343" height="96" viewBox="0 0 343 96" fill="none" xmlns="http://www.w3.org/2000/svg">
<g filter="url(#filter0_b_634_10580)">
<path opacity="0.7" d="M113.762 24.1663C110.114 21.4804 83.238 23.4501 81.3183 22.5548C79.7825 21.4804 82.6621 3.39486 84.1979 0.88796C84.7738 -0.0073624 85.3497 -0.186427 86.6935 0.350767C88.8052 1.24609 117.025 0.708896 117.025 0.708896C117.409 1.24609 118.561 -0.544556 118.753 0.171702C119.329 1.60422 165.21 1.06702 169.05 1.06702C171.353 1.06702 169.434 2.14141 172.313 1.78328C178.264 1.06702 191.127 2.49954 195.734 1.60422C199.381 0.88796 200.149 0.88796 203.605 1.60422C207.06 2.32048 225.874 2.14141 227.985 0.88796C228.561 0.529831 228.945 0.708896 228.945 1.06702C228.945 1.06702 242.191 1.96235 242.191 2.14141C242.191 2.49954 242.767 2.67861 243.151 2.49954C243.919 2.14141 257.933 1.06702 258.125 2.32048C258.701 5.7227 256.589 19.8688 254.861 23.271C253.134 26.8523 243.919 22.3757 236.624 24.3454L202.261 23.271L194.774 24.3454C194.006 23.092 190.743 25.957 188.631 23.8082C187.863 22.9129 181.912 22.5548 180.568 23.4501C179.416 24.1663 149.468 21.3013 146.397 23.6292C141.214 21.8385 118.945 23.9873 113.762 24.1663Z" fill="white"/>
<path opacity="0.7" d="M214.355 6.79658C219.538 8.58723 253.901 1.06652 256.397 1.60371C258.701 2.31997 258.509 20.7636 256.973 23.6286C256.397 24.703 255.629 24.8821 253.901 24.703C251.022 24.3449 214.547 30.7912 214.547 30.7912C213.971 30.254 212.819 32.4028 212.435 31.6865C211.284 30.254 152.348 40.4607 147.357 41.177C144.285 41.7142 146.589 40.2816 142.941 41.177C135.262 43.1467 118.369 44.5792 112.802 46.3698C108.194 47.8024 107.235 47.9814 102.627 47.9814C98.0198 47.9814 73.8313 52.279 71.1437 53.8905C70.5678 54.2487 69.9919 54.2487 69.9919 53.8905C69.9919 53.8905 52.7144 55.8603 52.7144 55.5021C52.5224 55.144 51.9465 54.9649 51.5625 55.3231C50.7946 55.8603 32.7492 59.7997 32.1733 58.7253C30.6375 55.5021 30.6375 40.9979 32.1733 37.4166C33.7091 33.4772 46.3793 35.9841 55.5939 32.4028L100.132 25.9565L109.538 23.2705C110.882 24.3449 114.529 20.7636 117.409 22.5543C118.561 23.2705 126.24 22.3752 127.776 21.3008C129.119 20.4055 168.282 16.8242 171.929 13.9592C179.416 14.8545 207.636 8.05003 214.355 6.79658Z" fill="white"/>
<path opacity="0.7" d="M80.3586 59.2624C74.2155 56.3974 34.4772 59.6205 31.7896 58.9043C29.4859 58.0089 32.7494 39.7444 34.8611 37.0584C35.629 36.1631 36.5889 35.805 38.7006 36.3421C39.4685 36.5212 42.924 36.5212 47.3393 36.5212C53.4825 36.3421 54.0584 36.3421 84.9659 35.6259C85.5418 36.1631 87.2696 34.3724 87.4616 35.0887C87.6535 35.4468 92.2609 35.6259 98.9799 35.805C105.699 35.984 162.331 36.8793 163.867 37.0584C167.514 37.2375 164.634 38.1328 168.858 37.9537C177.881 37.5956 197.462 39.7444 204.373 39.3862C209.94 39.0281 211.092 39.0281 216.275 40.1025C220.498 40.9978 249.87 42.9675 253.326 42.0722C254.094 41.8931 254.669 42.0722 254.669 42.4303C254.669 42.4303 255.053 42.4303 255.437 42.6094C255.821 42.7885 269.451 44.5791 271.371 44.7582C273.291 45.1163 274.443 45.2954 274.443 45.2954C274.635 45.6535 275.211 46.0116 275.786 45.8326C276.938 45.4744 298.247 46.7279 298.439 47.8023C299.015 51.2045 294.024 64.9925 291.144 68.2156C288.073 71.6179 275.402 65.7087 263.884 66.604C208.02 60.6949 211.476 61.7693 201.685 62.3065C200.533 61.053 195.542 63.5599 192.662 61.2321C191.511 60.3368 182.68 59.6205 180.76 60.3368C178.84 61.053 134.879 56.5764 129.695 59.0833C122.401 57.1136 98.02 58.3671 90.3411 58.7252C85.7338 58.9043 82.2783 59.0833 80.3586 59.2624Z" fill="white"/>
<path opacity="0.7" d="M253.518 43.8633C254.669 44.5795 258.125 45.1167 262.348 45.6539C264.46 45.833 266.956 46.0121 269.451 46.1911C275.018 46.7283 297.095 48.1608 299.015 49.0562C301.127 50.3096 294.984 67.8579 292.68 70.3648C291.912 71.2602 290.952 71.2602 289.224 70.5439C286.345 69.4695 262.156 67.6789 248.142 67.4998C247.758 66.9626 246.031 68.7532 245.839 68.037C245.647 67.6789 241.615 67.1417 235.664 66.9626C229.713 66.7835 221.65 66.6045 213.395 66.6045C211.284 66.6045 209.364 66.6045 207.252 66.6045C205.141 66.6045 193.622 66.9626 190.359 67.3207C183.832 67.6789 178.84 68.037 177.688 68.037C174.425 68.2161 176.921 67.1417 173.273 67.6789C165.21 68.9323 147.741 69.2904 141.79 70.902C136.99 72.1555 136.03 72.1555 131.231 72.1555C130.079 72.1555 127.584 72.3345 124.512 72.8717C121.441 73.2299 117.793 73.7671 114.146 74.4833C110.498 75.1996 107.043 75.9158 104.163 76.453C101.283 77.1693 99.3637 77.7065 98.5958 78.2437C98.0199 78.7809 97.444 78.6018 97.252 78.2437C97.252 78.2437 97.0601 78.2437 96.4841 78.2437C95.9082 78.2437 90.533 79.139 88.4213 79.3181C84.0059 80.0343 79.5906 80.7506 79.3986 80.5715C79.2066 80.2134 78.6307 80.0343 78.2468 80.5715C77.2869 81.1087 59.2415 86.4806 58.4736 85.4062C56.7459 82.3621 55.4021 68.037 56.7459 64.0976C57.5138 62.1279 61.1612 61.4116 65.9605 60.6953C70.7598 59.9791 76.519 59.4419 81.5103 57.2931C81.5103 57.2931 82.2782 57.1141 83.622 56.935C84.9658 56.7559 86.6936 56.3978 88.9972 56.0397C128.352 49.2352 118.177 52.8165 139.486 47.8027C140.83 48.8771 145.053 45.4749 147.933 47.4446C149.085 48.1608 157.339 47.6236 159.067 46.7283C159.451 46.5492 162.331 46.3702 166.554 46.1911C188.823 45.1167 204.181 45.4749 207.06 43.8633C213.203 45.2958 239.504 43.8633 253.518 43.8633Z" fill="white"/>
<path opacity="0.7" d="M122.016 91.6734C117.601 89.3455 92.0684 96.5081 90.1487 95.9709C88.4209 95.2547 86.8852 76.9901 87.845 74.1251C88.229 73.0507 88.8049 72.8716 90.1487 73.0507C90.7246 73.2297 93.0283 72.8716 95.9078 72.3344C98.9794 71.7972 120.864 67.6787 120.864 67.6787C121.248 68.2159 122.208 66.2462 122.4 66.7834C122.592 67.1416 125.664 66.9625 130.271 66.4253C134.878 65.8881 172.889 61.2324 173.849 61.2324C176.344 61.0534 174.425 62.3068 177.304 61.5905C183.255 60.3371 196.693 60.5162 201.301 59.4418C204.948 58.5465 205.716 58.5465 209.364 59.0836C211.283 59.4418 216.85 59.0836 222.418 58.9046C227.985 58.5465 233.36 58.0093 234.512 57.4721C235.088 57.1139 235.472 57.293 235.472 57.6511C235.472 57.6511 235.664 57.6511 236.048 57.6511C236.432 57.6511 240.655 57.8302 242.191 58.0093C245.646 58.1883 249.102 58.5465 249.102 58.5465C249.294 58.9046 249.678 59.0836 250.062 58.9046C250.83 58.3674 265.227 57.4721 265.419 58.7255C265.995 62.1277 263.5 76.2738 261.964 79.6761C260.236 83.2574 251.213 78.7807 243.727 80.9295C230.097 80.7505 227.025 80.7505 209.364 81.1086L202.069 82.7202C201.109 81.4667 198.229 84.6899 195.925 82.5411C194.966 81.6458 189.206 81.8248 188.055 82.7202C187.863 82.8992 185.751 83.0783 182.679 83.2574C179.416 83.4364 156.571 84.1527 154.267 86.4805C148.316 85.048 127.967 90.2409 122.016 91.6734Z" fill="white"/>
<path opacity="0.7" d="M280.394 16.2871C283.657 18.794 310.341 17.8987 312.645 18.794C314.181 19.8684 310.341 37.7749 308.614 40.4608C308.038 41.3561 307.462 41.5352 306.118 40.998C303.814 39.9236 281.929 39.9236 277.898 39.9236C277.13 39.9236 276.746 39.9236 276.746 39.9236C276.362 39.3864 275.21 41.1771 275.018 40.4608C274.634 39.5655 263.5 39.3864 251.79 39.5655C243.727 39.7446 233.936 40.2818 226.257 40.6399C223.954 40.8189 225.682 39.5655 222.994 40.1027C217.235 41.1771 204.757 40.6399 200.533 41.8933C197.078 42.9677 196.31 42.9677 193.046 42.4305C191.318 42.2515 185.943 42.6096 180.76 43.3259C175.577 44.0421 170.585 44.9374 169.626 45.6537C169.242 46.0118 168.858 46.0118 168.666 45.4746C168.666 45.4746 168.474 45.4746 168.09 45.4746C167.706 45.4746 163.866 45.6537 162.331 45.8328C159.067 46.0118 155.996 46.1909 155.804 46.0118C155.612 45.6537 155.228 45.4746 154.844 45.8328C154.268 46.1909 141.022 49.414 140.638 48.3397C139.486 45.1165 138.91 30.7913 139.87 27.21C140.446 25.2403 143.133 25.0613 146.589 24.8822C150.044 24.7031 154.268 24.8822 157.723 23.2706C201.493 18.794 185.559 21.8381 199.189 18.4359C200.149 19.5103 203.029 16.4662 205.332 18.4359C206.292 19.3312 212.051 19.1521 213.395 18.2568C213.587 18.0778 215.699 18.0778 218.771 17.8987C225.682 17.7196 229.905 17.8987 235.664 17.7196C237.584 17.7196 239.504 17.7196 241.039 17.5406C244.303 17.3615 246.798 17.0034 247.566 16.4662C250.254 17.5406 257.165 17.3615 264.076 17.0034C270.987 17.0034 277.706 16.4662 280.394 16.2871Z" fill="white"/>
</g>
<path d="M157.545 17.58L160.385 11.32H158.365V11H162.305V11.32H160.985L157.965 18V24.62H159.185V25H152.845V24.62H154.065V18.38L150.665 11.32H149.725V11H156.125V11.32H154.825L157.545 17.58ZM167.183 21.06V19.36C167.183 18.0667 167.11 17.1267 166.963 16.54C166.83 15.94 166.51 15.64 166.003 15.64C165.71 15.64 165.47 15.7267 165.283 15.9C165.11 16.06 164.983 16.3333 164.903 16.72C164.783 17.32 164.723 18.2333 164.723 19.46V21.02C164.723 22.4733 164.763 23.3467 164.843 23.64C164.937 23.9333 165.03 24.1733 165.123 24.36C165.27 24.68 165.557 24.84 165.983 24.84C166.503 24.84 166.843 24.54 167.003 23.94C167.123 23.5133 167.183 22.5533 167.183 21.06ZM165.943 25.2C164.277 25.2 163.017 24.7733 162.163 23.92C161.31 23.0667 160.883 21.8467 160.883 20.26C160.883 18.66 161.337 17.4333 162.243 16.58C163.163 15.7133 164.45 15.28 166.103 15.28C167.757 15.28 168.99 15.68 169.803 16.48C170.617 17.2667 171.023 18.4733 171.023 20.1C171.023 23.5 169.33 25.2 165.943 25.2ZM183.283 25H178.723L178.503 23.54C178.289 24.0733 177.969 24.4867 177.543 24.78C177.129 25.06 176.509 25.2 175.683 25.2C173.616 25.2 172.583 24.0867 172.583 21.86V15.84H171.463V15.48H176.303V22.34C176.303 23.14 176.356 23.6667 176.463 23.92C176.583 24.1733 176.809 24.3 177.143 24.3C177.489 24.3 177.796 24.0933 178.063 23.68C178.329 23.2667 178.463 22.6933 178.463 21.96V15.84H177.543V15.48H182.183V24.64H183.283V25ZM190.372 16.04C189.879 16.04 189.446 16.36 189.072 17C188.699 17.64 188.512 18.4 188.512 19.28V24.64H189.932V25H183.692V24.64H184.792V15.84H183.692V15.48H188.512V17.4C188.686 16.72 189.019 16.2 189.512 15.84C190.006 15.4667 190.566 15.28 191.192 15.28C191.819 15.28 192.326 15.46 192.712 15.82C193.112 16.1667 193.312 16.6667 193.312 17.32C193.312 17.96 193.166 18.4533 192.872 18.8C192.579 19.1467 192.126 19.32 191.512 19.32C190.912 19.32 190.466 19.12 190.172 18.72C189.892 18.32 189.859 17.7667 190.072 17.06H190.792C191.126 16.38 190.986 16.04 190.372 16.04Z" fill="black"/>
<path d="M86.1406 49.1094C86.1406 48.8281 86.2109 48.5703 86.3516 48.3359C86.4922 48.0859 86.6875 47.875 86.9375 47.7031C87.1875 47.5156 87.4766 47.3672 87.8047 47.2578C88.1484 47.1484 88.5078 47.0938 88.8828 47.0938C89.6172 47.0938 90.1562 47.2109 90.5 47.4453C90.8438 47.6797 91.0547 48.0469 91.1328 48.5469C91.3984 50.625 91.6172 52.5938 91.7891 54.4531C91.9766 56.2969 92.125 58.0625 92.2344 59.75C92.3438 61.4219 92.4219 63.0312 92.4688 64.5781C92.5156 66.1094 92.5391 67.5938 92.5391 69.0312C92.5391 69.8125 92.2578 70.3984 91.6953 70.7891C91.1484 71.1797 90.3438 71.375 89.2812 71.375C88.7969 71.375 88.4141 71.2578 88.1328 71.0234C87.8672 70.8047 87.7344 70.4766 87.7344 70.0391C87.7344 67.3516 87.6484 64.8359 87.4766 62.4922C87.3203 60.1328 87.1406 58.0391 86.9375 56.2109C86.7344 54.3828 86.5469 52.8594 86.375 51.6406C86.2188 50.4062 86.1406 49.5625 86.1406 49.1094ZM97.625 52.0859C97.625 51.8516 97.7266 51.625 97.9297 51.4062C98.1328 51.1719 98.3984 50.9688 98.7266 50.7969C99.0547 50.6094 99.4219 50.4609 99.8281 50.3516C100.25 50.2266 100.672 50.1641 101.094 50.1641C101.328 50.1641 101.523 50.2266 101.68 50.3516C101.852 50.4766 102 50.7188 102.125 51.0781C102.25 51.4219 102.359 51.9141 102.453 52.5547C102.562 53.1797 102.664 54 102.758 55.0156C102.82 55.3281 102.875 55.5703 102.922 55.7422C102.984 55.8984 103.062 55.9766 103.156 55.9766C103.297 55.9766 103.438 55.7344 103.578 55.25C104.719 51.9531 106.367 50.3047 108.523 50.3047C109.523 50.3047 110.43 50.6172 111.242 51.2422C112.07 51.8672 112.836 52.8906 113.539 54.3125C114.258 55.7188 114.938 57.5781 115.578 59.8906C116.219 62.1875 116.859 65.0234 117.5 68.3984C117.531 68.5703 117.555 68.7266 117.57 68.8672C117.586 69.0078 117.594 69.1406 117.594 69.2656C117.594 69.625 117.508 69.9375 117.336 70.2031C117.18 70.4531 116.969 70.6641 116.703 70.8359C116.438 70.9922 116.141 71.1094 115.812 71.1875C115.484 71.2812 115.156 71.3281 114.828 71.3281C114.172 71.3281 113.695 71.2578 113.398 71.1172C113.117 70.9766 112.938 70.7109 112.859 70.3203C112.406 67.9453 111.961 65.8359 111.523 63.9922C111.102 62.1484 110.68 60.6016 110.258 59.3516C109.852 58.0859 109.445 57.125 109.039 56.4688C108.633 55.8125 108.227 55.4844 107.82 55.4844C107.414 55.4844 107.031 55.7422 106.672 56.2578C106.328 56.7578 105.992 57.5469 105.664 58.625C105.336 59.7031 105.016 61.0703 104.703 62.7266C104.406 64.3828 104.117 66.3594 103.836 68.6562C103.758 69.2812 103.445 69.7812 102.898 70.1562C102.352 70.5312 101.656 70.7188 100.812 70.7188C100.25 70.7188 99.8203 70.6016 99.5234 70.3672C99.2266 70.1328 99.0625 69.8125 99.0312 69.4062C98.8906 66.1562 98.7344 63.4844 98.5625 61.3906C98.4062 59.2812 98.2578 57.5938 98.1172 56.3281C97.9766 55.0469 97.8594 54.0938 97.7656 53.4688C97.6719 52.8438 97.625 52.3828 97.625 52.0859ZM122.234 43.9297C122.234 43.1016 122.469 42.5234 122.938 42.1953C123.406 41.8516 124.18 41.6797 125.258 41.6797C125.648 41.6797 125.977 41.7188 126.242 41.7969C126.523 41.8594 126.758 41.9844 126.945 42.1719C127.148 42.3594 127.305 42.6094 127.414 42.9219C127.539 43.2188 127.641 43.6016 127.719 44.0703C127.906 45.5234 128.109 47.0234 128.328 48.5703C128.562 50.1172 128.805 51.6719 129.055 53.2344C129.148 53.9375 129.516 54.2891 130.156 54.2891C130.328 54.2891 130.609 54.2734 131 54.2422C131.406 54.1953 131.883 54.1484 132.43 54.1016C132.977 54.0391 133.562 53.9766 134.188 53.9141C134.828 53.8516 135.461 53.7969 136.086 53.75C136.727 53.6875 137.328 53.6406 137.891 53.6094C138.469 53.5625 138.977 53.5391 139.414 53.5391C139.758 53.5391 140.031 53.6094 140.234 53.75C140.438 53.875 140.594 54.0469 140.703 54.2656C140.828 54.4688 140.906 54.7031 140.938 54.9688C140.984 55.2188 141.008 55.4766 141.008 55.7422C141.008 55.9766 140.961 56.2188 140.867 56.4688C140.789 56.7188 140.672 56.9453 140.516 57.1484C140.375 57.3359 140.195 57.4922 139.977 57.6172C139.758 57.7422 139.508 57.8047 139.227 57.8047C137.867 57.8047 136.492 57.8516 135.102 57.9453C133.727 58.0234 132.352 58.1328 130.977 58.2734C130.273 58.3672 129.922 58.7188 129.922 59.3281C129.922 59.375 129.93 59.4375 129.945 59.5156C129.961 59.5781 129.969 59.6328 129.969 59.6797C130.156 61.0391 130.328 62.3125 130.484 63.5C130.656 64.6875 130.797 65.75 130.906 66.6875C131.031 67.6094 131.125 68.3828 131.188 69.0078C131.266 69.6172 131.305 70.0234 131.305 70.2266C131.305 70.7891 131.25 71.2578 131.141 71.6328C131.031 72.0234 130.852 72.3359 130.602 72.5703C130.352 72.8203 130.016 72.9922 129.594 73.0859C129.188 73.1953 128.672 73.25 128.047 73.25C127.453 73.25 127.016 73.1094 126.734 72.8281C126.453 72.5469 126.297 72.1172 126.266 71.5391C126.172 69.6953 126.023 67.8438 125.82 65.9844C125.617 64.1094 125.383 62.2422 125.117 60.3828C124.977 59.7109 124.625 59.375 124.062 59.375C124.016 59.375 123.961 59.3828 123.898 59.3984C123.836 59.4141 123.781 59.4219 123.734 59.4219C122.766 59.6406 121.852 59.8594 120.992 60.0781C120.133 60.2969 119.328 60.5312 118.578 60.7812C118.156 60.9219 117.781 61.0234 117.453 61.0859C117.125 61.1328 116.828 61.1562 116.562 61.1562C116.203 61.1562 115.938 61 115.766 60.6875C115.594 60.3594 115.508 59.9531 115.508 59.4688C115.508 59.2969 115.523 59.1016 115.555 58.8828C115.586 58.6484 115.648 58.4219 115.742 58.2031C115.82 57.9688 115.945 57.7578 116.117 57.5703C116.273 57.3672 116.492 57.2031 116.773 57.0781C117.43 56.8125 118.305 56.5391 119.398 56.2578C120.492 55.9609 121.727 55.6875 123.102 55.4375C123.414 55.3594 123.656 55.2344 123.828 55.0625C124.016 54.875 124.109 54.6016 124.109 54.2422C124.109 54.1641 124.109 54.0859 124.109 54.0078C124.109 53.9141 124.094 53.8203 124.062 53.7266C123.812 52.2891 123.57 50.9844 123.336 49.8125C123.117 48.625 122.922 47.6094 122.75 46.7656C122.594 45.9219 122.469 45.2578 122.375 44.7734C122.281 44.2891 122.234 44.0078 122.234 43.9297ZM159.594 65.8672C160.047 65.4766 160.492 65.2812 160.93 65.2812C161.18 65.2812 161.406 65.3438 161.609 65.4688C161.812 65.5938 162.039 65.7891 162.289 66.0547C162.523 66.4141 162.688 66.7109 162.781 66.9453C162.891 67.1641 162.945 67.3828 162.945 67.6016C162.945 68.0703 162.711 68.5156 162.242 68.9375C161.492 69.5625 160.68 70.125 159.805 70.625C158.93 71.1094 158.016 71.5234 157.062 71.8672C156.109 72.2109 155.125 72.4688 154.109 72.6406C153.094 72.8281 152.086 72.9219 151.086 72.9219C149.82 72.9219 148.633 72.7578 147.523 72.4297C146.414 72.1172 145.422 71.6641 144.547 71.0703C143.688 70.4766 142.961 69.7656 142.367 68.9375C141.773 68.0938 141.352 67.1484 141.102 66.1016C140.961 65.6641 140.828 65.3828 140.703 65.2578C140.594 65.1172 140.406 65.0469 140.141 65.0469C139.562 65.0469 139.117 64.9062 138.805 64.625C138.492 64.3438 138.336 63.9375 138.336 63.4062C138.336 63.1875 138.352 63.0469 138.383 62.9844L138.43 62.5156C138.508 61.9531 138.656 61.5469 138.875 61.2969C139.109 61.0469 139.469 60.9219 139.953 60.9219H140.305C140.961 60.9219 141.422 60.6172 141.688 60.0078C142.172 58.9297 142.789 57.9453 143.539 57.0547C144.289 56.1641 145.133 55.4062 146.07 54.7812C147.008 54.1406 148.008 53.6484 149.07 53.3047C150.148 52.9453 151.242 52.7656 152.352 52.7656C153.508 52.7656 154.586 52.9375 155.586 53.2812C156.602 53.6094 157.484 54.0703 158.234 54.6641C158.984 55.2578 159.57 55.9531 159.992 56.75C160.43 57.5469 160.648 58.4062 160.648 59.3281C160.648 59.9688 160.523 60.5547 160.273 61.0859C160.023 61.6172 159.664 62.0859 159.195 62.4922C158.727 62.8828 158.156 63.2031 157.484 63.4531C156.828 63.7031 156.078 63.8672 155.234 63.9453L147.102 64.7656C146.789 64.7656 146.531 64.8438 146.328 65C146.141 65.1562 146.047 65.3672 146.047 65.6328C146.047 66.0391 146.195 66.4297 146.492 66.8047C146.805 67.1797 147.211 67.5156 147.711 67.8125C148.227 68.0938 148.812 68.3203 149.469 68.4922C150.141 68.6641 150.828 68.75 151.531 68.75C152.203 68.75 152.891 68.6875 153.594 68.5625C154.312 68.4219 155.016 68.2266 155.703 67.9766C156.406 67.7266 157.086 67.4297 157.742 67.0859C158.398 66.7266 159.016 66.3203 159.594 65.8672ZM154.367 59.8203C154.602 59.7734 154.805 59.6641 154.977 59.4922C155.148 59.3047 155.234 59.0781 155.234 58.8125C155.234 58.5781 155.148 58.3594 154.977 58.1562C154.805 57.9531 154.57 57.7734 154.273 57.6172C153.977 57.4453 153.633 57.3125 153.242 57.2188C152.852 57.125 152.438 57.0781 152 57.0781C151.359 57.0781 150.703 57.1719 150.031 57.3594C149.359 57.5469 148.75 57.7969 148.203 58.1094C147.656 58.4062 147.211 58.7422 146.867 59.1172C146.523 59.4766 146.352 59.8359 146.352 60.1953C146.352 60.5547 146.57 60.7344 147.008 60.7344C147.273 60.7344 147.703 60.7031 148.297 60.6406C148.891 60.5781 149.547 60.5078 150.266 60.4297C150.984 60.3359 151.711 60.2344 152.445 60.125C153.18 60.0156 153.82 59.9141 154.367 59.8203ZM177.148 53.4688C176.57 53.4688 176.062 53.625 175.625 53.9375C175.188 54.2344 174.812 54.6562 174.5 55.2031C174.188 55.7344 173.93 56.3672 173.727 57.1016C173.523 57.8203 173.359 58.6094 173.234 59.4688C173.109 60.3281 173.023 61.2266 172.977 62.1641C172.93 63.1016 172.906 64.0469 172.906 65C172.906 66.25 172.953 67.4844 173.047 68.7031C173.156 69.9062 173.211 71.0234 173.211 72.0547C173.211 72.7266 172.961 73.25 172.461 73.625C171.961 74.0156 171.25 74.2109 170.328 74.2109C170.156 74.2109 169.961 74.1953 169.742 74.1641C169.523 74.1328 169.312 74.0703 169.109 73.9766C168.922 73.8828 168.75 73.75 168.594 73.5781C168.453 73.4219 168.375 73.2031 168.359 72.9219C168.219 71.5469 168.016 70.1406 167.75 68.7031C167.484 67.2656 167.148 65.8359 166.742 64.4141C166.352 62.9766 165.875 61.5547 165.312 60.1484C164.766 58.7422 164.133 57.3672 163.414 56.0234C163.289 55.7891 163.18 55.5703 163.086 55.3672C163.008 55.1641 162.969 54.9688 162.969 54.7812C162.969 54.5469 163.07 54.2969 163.273 54.0312C163.492 53.75 163.758 53.4922 164.07 53.2578C164.398 53.0234 164.75 52.8359 165.125 52.6953C165.516 52.5391 165.891 52.4609 166.25 52.4609C166.844 52.4609 167.367 52.875 167.82 53.7031C168.273 54.5156 168.695 55.8203 169.086 57.6172C169.164 57.9297 169.227 58.1484 169.273 58.2734C169.32 58.3984 169.383 58.4609 169.461 58.4609C169.633 58.4609 169.742 58.1953 169.789 57.6641C169.977 56.1797 170.297 54.9062 170.75 53.8438C171.203 52.7656 171.766 51.8828 172.438 51.1953C173.125 50.4922 173.906 49.9766 174.781 49.6484C175.672 49.3203 176.648 49.1562 177.711 49.1562C178.32 49.1562 178.938 49.2109 179.562 49.3203C180.188 49.4297 180.75 49.5938 181.25 49.8125C181.75 50.0312 182.156 50.2969 182.469 50.6094C182.781 50.9219 182.938 51.2734 182.938 51.6641C182.938 51.9453 182.875 52.2812 182.75 52.6719C182.641 53.0469 182.492 53.4141 182.305 53.7734C182.117 54.1172 181.898 54.4141 181.648 54.6641C181.414 54.8984 181.172 55.0156 180.922 55.0156C180.641 55.0156 180.367 54.9375 180.102 54.7812C179.836 54.6094 179.547 54.4297 179.234 54.2422C178.938 54.0547 178.617 53.8828 178.273 53.7266C177.945 53.5547 177.57 53.4688 177.148 53.4688ZM201.406 65.8672C201.859 65.4766 202.305 65.2812 202.742 65.2812C202.992 65.2812 203.219 65.3438 203.422 65.4688C203.625 65.5938 203.852 65.7891 204.102 66.0547C204.336 66.4141 204.5 66.7109 204.594 66.9453C204.703 67.1641 204.758 67.3828 204.758 67.6016C204.758 68.0703 204.523 68.5156 204.055 68.9375C203.305 69.5625 202.492 70.125 201.617 70.625C200.742 71.1094 199.828 71.5234 198.875 71.8672C197.922 72.2109 196.938 72.4688 195.922 72.6406C194.906 72.8281 193.898 72.9219 192.898 72.9219C191.633 72.9219 190.445 72.7578 189.336 72.4297C188.227 72.1172 187.234 71.6641 186.359 71.0703C185.5 70.4766 184.773 69.7656 184.18 68.9375C183.586 68.0938 183.164 67.1484 182.914 66.1016C182.773 65.6641 182.641 65.3828 182.516 65.2578C182.406 65.1172 182.219 65.0469 181.953 65.0469C181.375 65.0469 180.93 64.9062 180.617 64.625C180.305 64.3438 180.148 63.9375 180.148 63.4062C180.148 63.1875 180.164 63.0469 180.195 62.9844L180.242 62.5156C180.32 61.9531 180.469 61.5469 180.688 61.2969C180.922 61.0469 181.281 60.9219 181.766 60.9219H182.117C182.773 60.9219 183.234 60.6172 183.5 60.0078C183.984 58.9297 184.602 57.9453 185.352 57.0547C186.102 56.1641 186.945 55.4062 187.883 54.7812C188.82 54.1406 189.82 53.6484 190.883 53.3047C191.961 52.9453 193.055 52.7656 194.164 52.7656C195.32 52.7656 196.398 52.9375 197.398 53.2812C198.414 53.6094 199.297 54.0703 200.047 54.6641C200.797 55.2578 201.383 55.9531 201.805 56.75C202.242 57.5469 202.461 58.4062 202.461 59.3281C202.461 59.9688 202.336 60.5547 202.086 61.0859C201.836 61.6172 201.477 62.0859 201.008 62.4922C200.539 62.8828 199.969 63.2031 199.297 63.4531C198.641 63.7031 197.891 63.8672 197.047 63.9453L188.914 64.7656C188.602 64.7656 188.344 64.8438 188.141 65C187.953 65.1562 187.859 65.3672 187.859 65.6328C187.859 66.0391 188.008 66.4297 188.305 66.8047C188.617 67.1797 189.023 67.5156 189.523 67.8125C190.039 68.0938 190.625 68.3203 191.281 68.4922C191.953 68.6641 192.641 68.75 193.344 68.75C194.016 68.75 194.703 68.6875 195.406 68.5625C196.125 68.4219 196.828 68.2266 197.516 67.9766C198.219 67.7266 198.898 67.4297 199.555 67.0859C200.211 66.7266 200.828 66.3203 201.406 65.8672ZM196.18 59.8203C196.414 59.7734 196.617 59.6641 196.789 59.4922C196.961 59.3047 197.047 59.0781 197.047 58.8125C197.047 58.5781 196.961 58.3594 196.789 58.1562C196.617 57.9531 196.383 57.7734 196.086 57.6172C195.789 57.4453 195.445 57.3125 195.055 57.2188C194.664 57.125 194.25 57.0781 193.812 57.0781C193.172 57.0781 192.516 57.1719 191.844 57.3594C191.172 57.5469 190.562 57.7969 190.016 58.1094C189.469 58.4062 189.023 58.7422 188.68 59.1172C188.336 59.4766 188.164 59.8359 188.164 60.1953C188.164 60.5547 188.383 60.7344 188.82 60.7344C189.086 60.7344 189.516 60.7031 190.109 60.6406C190.703 60.5781 191.359 60.5078 192.078 60.4297C192.797 60.3359 193.523 60.2344 194.258 60.125C194.992 60.0156 195.633 59.9141 196.18 59.8203ZM212.094 50.6562C213.141 50.6562 214.219 50.7969 215.328 51.0781C216.438 51.3438 217.453 51.6953 218.375 52.1328C219.297 52.5547 220.055 53.0312 220.648 53.5625C221.242 54.0938 221.539 54.6094 221.539 55.1094C221.539 55.3594 221.43 55.6406 221.211 55.9531C220.992 56.25 220.727 56.5391 220.414 56.8203C220.102 57.0859 219.758 57.3125 219.383 57.5C219.023 57.6719 218.703 57.7578 218.422 57.7578C218.047 57.7578 217.625 57.6016 217.156 57.2891C216.703 56.9766 216.195 56.6328 215.633 56.2578C215.086 55.8672 214.484 55.5156 213.828 55.2031C213.172 54.8906 212.461 54.7344 211.695 54.7344C211.195 54.7344 210.781 54.8594 210.453 55.1094C210.141 55.3438 209.984 55.6797 209.984 56.1172C209.984 56.5078 210.172 56.9062 210.547 57.3125C210.922 57.7031 211.414 58.1094 212.023 58.5312C212.648 58.9531 213.352 59.3984 214.133 59.8672C214.914 60.3359 215.711 60.8359 216.523 61.3672C217.352 61.8984 218.156 62.4766 218.938 63.1016C219.719 63.7266 220.414 64.4062 221.023 65.1406C221.648 65.875 222.148 66.6797 222.523 67.5547C222.898 68.4141 223.086 69.3516 223.086 70.3672C223.086 71.2422 222.93 72.0391 222.617 72.7578C222.305 73.4766 221.859 74.0938 221.281 74.6094C220.703 75.125 220.016 75.5234 219.219 75.8047C218.422 76.0859 217.547 76.2266 216.594 76.2266C215.391 76.2266 214.281 76.0391 213.266 75.6641C212.25 75.3047 211.375 74.8047 210.641 74.1641C209.906 73.5234 209.328 72.7578 208.906 71.8672C208.5 70.9766 208.297 70 208.297 68.9375C208.297 67.5625 208.539 66.5625 209.023 65.9375C209.523 65.3125 210.305 65 211.367 65C212.023 65 212.547 65.125 212.938 65.375C213.328 65.625 213.523 65.9297 213.523 66.2891C213.523 66.4766 213.492 66.6719 213.43 66.875C213.367 67.0625 213.297 67.2656 213.219 67.4844C213.156 67.6875 213.094 67.9062 213.031 68.1406C212.984 68.375 212.961 68.6094 212.961 68.8438C212.961 69.25 213.055 69.6406 213.242 70.0156C213.43 70.3906 213.68 70.7188 213.992 71C214.32 71.2969 214.695 71.5312 215.117 71.7031C215.539 71.875 215.984 71.9609 216.453 71.9609C217.703 71.9609 218.328 71.4453 218.328 70.4141C218.328 69.6016 218.008 68.8359 217.367 68.1172C216.727 67.3828 215.922 66.6719 214.953 65.9844C213.984 65.2812 212.938 64.5781 211.812 63.875C210.703 63.1719 209.664 62.4375 208.695 61.6719C207.727 60.9062 206.922 60.0938 206.281 59.2344C205.641 58.3594 205.32 57.4141 205.32 56.3984C205.32 55.5547 205.492 54.7812 205.836 54.0781C206.195 53.375 206.68 52.7734 207.289 52.2734C207.898 51.7578 208.609 51.3594 209.422 51.0781C210.25 50.7969 211.141 50.6562 212.094 50.6562ZM226.109 43.9297C226.109 43.1016 226.344 42.5234 226.812 42.1953C227.281 41.8516 228.055 41.6797 229.133 41.6797C229.523 41.6797 229.852 41.7188 230.117 41.7969C230.398 41.8594 230.633 41.9844 230.82 42.1719C231.023 42.3594 231.18 42.6094 231.289 42.9219C231.414 43.2188 231.516 43.6016 231.594 44.0703C231.781 45.5234 231.984 47.0234 232.203 48.5703C232.438 50.1172 232.68 51.6719 232.93 53.2344C233.023 53.9375 233.391 54.2891 234.031 54.2891C234.203 54.2891 234.484 54.2734 234.875 54.2422C235.281 54.1953 235.758 54.1484 236.305 54.1016C236.852 54.0391 237.438 53.9766 238.062 53.9141C238.703 53.8516 239.336 53.7969 239.961 53.75C240.602 53.6875 241.203 53.6406 241.766 53.6094C242.344 53.5625 242.852 53.5391 243.289 53.5391C243.633 53.5391 243.906 53.6094 244.109 53.75C244.312 53.875 244.469 54.0469 244.578 54.2656C244.703 54.4688 244.781 54.7031 244.812 54.9688C244.859 55.2188 244.883 55.4766 244.883 55.7422C244.883 55.9766 244.836 56.2188 244.742 56.4688C244.664 56.7188 244.547 56.9453 244.391 57.1484C244.25 57.3359 244.07 57.4922 243.852 57.6172C243.633 57.7422 243.383 57.8047 243.102 57.8047C241.742 57.8047 240.367 57.8516 238.977 57.9453C237.602 58.0234 236.227 58.1328 234.852 58.2734C234.148 58.3672 233.797 58.7188 233.797 59.3281C233.797 59.375 233.805 59.4375 233.82 59.5156C233.836 59.5781 233.844 59.6328 233.844 59.6797C234.031 61.0391 234.203 62.3125 234.359 63.5C234.531 64.6875 234.672 65.75 234.781 66.6875C234.906 67.6094 235 68.3828 235.062 69.0078C235.141 69.6172 235.18 70.0234 235.18 70.2266C235.18 70.7891 235.125 71.2578 235.016 71.6328C234.906 72.0234 234.727 72.3359 234.477 72.5703C234.227 72.8203 233.891 72.9922 233.469 73.0859C233.062 73.1953 232.547 73.25 231.922 73.25C231.328 73.25 230.891 73.1094 230.609 72.8281C230.328 72.5469 230.172 72.1172 230.141 71.5391C230.047 69.6953 229.898 67.8438 229.695 65.9844C229.492 64.1094 229.258 62.2422 228.992 60.3828C228.852 59.7109 228.5 59.375 227.938 59.375C227.891 59.375 227.836 59.3828 227.773 59.3984C227.711 59.4141 227.656 59.4219 227.609 59.4219C226.641 59.6406 225.727 59.8594 224.867 60.0781C224.008 60.2969 223.203 60.5312 222.453 60.7812C222.031 60.9219 221.656 61.0234 221.328 61.0859C221 61.1328 220.703 61.1562 220.438 61.1562C220.078 61.1562 219.812 61 219.641 60.6875C219.469 60.3594 219.383 59.9531 219.383 59.4688C219.383 59.2969 219.398 59.1016 219.43 58.8828C219.461 58.6484 219.523 58.4219 219.617 58.2031C219.695 57.9688 219.82 57.7578 219.992 57.5703C220.148 57.3672 220.367 57.2031 220.648 57.0781C221.305 56.8125 222.18 56.5391 223.273 56.2578C224.367 55.9609 225.602 55.6875 226.977 55.4375C227.289 55.3594 227.531 55.2344 227.703 55.0625C227.891 54.875 227.984 54.6016 227.984 54.2422C227.984 54.1641 227.984 54.0859 227.984 54.0078C227.984 53.9141 227.969 53.8203 227.938 53.7266C227.688 52.2891 227.445 50.9844 227.211 49.8125C226.992 48.625 226.797 47.6094 226.625 46.7656C226.469 45.9219 226.344 45.2578 226.25 44.7734C226.156 44.2891 226.109 44.0078 226.109 43.9297ZM249.359 50.6562C250.406 50.6562 251.484 50.7969 252.594 51.0781C253.703 51.3438 254.719 51.6953 255.641 52.1328C256.562 52.5547 257.32 53.0312 257.914 53.5625C258.508 54.0938 258.805 54.6094 258.805 55.1094C258.805 55.3594 258.695 55.6406 258.477 55.9531C258.258 56.25 257.992 56.5391 257.68 56.8203C257.367 57.0859 257.023 57.3125 256.648 57.5C256.289 57.6719 255.969 57.7578 255.688 57.7578C255.312 57.7578 254.891 57.6016 254.422 57.2891C253.969 56.9766 253.461 56.6328 252.898 56.2578C252.352 55.8672 251.75 55.5156 251.094 55.2031C250.438 54.8906 249.727 54.7344 248.961 54.7344C248.461 54.7344 248.047 54.8594 247.719 55.1094C247.406 55.3438 247.25 55.6797 247.25 56.1172C247.25 56.5078 247.438 56.9062 247.812 57.3125C248.188 57.7031 248.68 58.1094 249.289 58.5312C249.914 58.9531 250.617 59.3984 251.398 59.8672C252.18 60.3359 252.977 60.8359 253.789 61.3672C254.617 61.8984 255.422 62.4766 256.203 63.1016C256.984 63.7266 257.68 64.4062 258.289 65.1406C258.914 65.875 259.414 66.6797 259.789 67.5547C260.164 68.4141 260.352 69.3516 260.352 70.3672C260.352 71.2422 260.195 72.0391 259.883 72.7578C259.57 73.4766 259.125 74.0938 258.547 74.6094C257.969 75.125 257.281 75.5234 256.484 75.8047C255.688 76.0859 254.812 76.2266 253.859 76.2266C252.656 76.2266 251.547 76.0391 250.531 75.6641C249.516 75.3047 248.641 74.8047 247.906 74.1641C247.172 73.5234 246.594 72.7578 246.172 71.8672C245.766 70.9766 245.562 70 245.562 68.9375C245.562 67.5625 245.805 66.5625 246.289 65.9375C246.789 65.3125 247.57 65 248.633 65C249.289 65 249.812 65.125 250.203 65.375C250.594 65.625 250.789 65.9297 250.789 66.2891C250.789 66.4766 250.758 66.6719 250.695 66.875C250.633 67.0625 250.562 67.2656 250.484 67.4844C250.422 67.6875 250.359 67.9062 250.297 68.1406C250.25 68.375 250.227 68.6094 250.227 68.8438C250.227 69.25 250.32 69.6406 250.508 70.0156C250.695 70.3906 250.945 70.7188 251.258 71C251.586 71.2969 251.961 71.5312 252.383 71.7031C252.805 71.875 253.25 71.9609 253.719 71.9609C254.969 71.9609 255.594 71.4453 255.594 70.4141C255.594 69.6016 255.273 68.8359 254.633 68.1172C253.992 67.3828 253.188 66.6719 252.219 65.9844C251.25 65.2812 250.203 64.5781 249.078 63.875C247.969 63.1719 246.93 62.4375 245.961 61.6719C244.992 60.9062 244.188 60.0938 243.547 59.2344C242.906 58.3594 242.586 57.4141 242.586 56.3984C242.586 55.5547 242.758 54.7812 243.102 54.0781C243.461 53.375 243.945 52.7734 244.555 52.2734C245.164 51.7578 245.875 51.3594 246.688 51.0781C247.516 50.7969 248.406 50.6562 249.359 50.6562Z" fill="#FF5117"/>
<defs>
<filter id="filter0_b_634_10580" x="1" y="-30" width="342" height="156" filterUnits="userSpaceOnUse" color-interpolation-filters="sRGB">
<feFlood flood-opacity="0" result="BackgroundImageFix"/>
<feGaussianBlur in="BackgroundImageFix" stdDeviation="15"/>
<feComposite in2="SourceAlpha" operator="in" result="effect1_backgroundBlur_634_10580"/>
<feBlend mode="normal" in="SourceGraphic" in2="effect1_backgroundBlur_634_10580" result="shape"/>
</filter>
</defs>
</svg>
