<svg width="38" height="38" viewBox="0 0 38 38" fill="none" xmlns="http://www.w3.org/2000/svg">
<path d="M34.8333 12.6667H30.0833M3.16666 12.6667H20.5833H3.16666Z" stroke="#EF7E06" stroke-width="2" stroke-linecap="round" stroke-linejoin="round"/>
<path d="M3.16666 25.3333H7.91666M34.8333 25.3333H17.4167H34.8333Z" stroke="#EF7E06" stroke-width="2" stroke-linecap="round" stroke-linejoin="round"/>
<path d="M25.3333 17.4167C27.9567 17.4167 30.0833 15.29 30.0833 12.6667C30.0833 10.0433 27.9567 7.91667 25.3333 7.91667C22.71 7.91667 20.5833 10.0433 20.5833 12.6667C20.5833 15.29 22.71 17.4167 25.3333 17.4167Z" stroke="#EF7E06" stroke-width="2" stroke-linecap="round" stroke-linejoin="round"/>
<path d="M12.6667 30.0833C10.0433 30.0833 7.91666 27.9567 7.91666 25.3333C7.91666 22.71 10.0433 20.5833 12.6667 20.5833C15.29 20.5833 17.4167 22.71 17.4167 25.3333C17.4167 27.9567 15.29 30.0833 12.6667 30.0833Z" stroke="#EF7E06" stroke-width="2" stroke-linecap="round" stroke-linejoin="round"/>
</svg>
