<svg width="25" height="24" viewBox="0 0 25 24" fill="none" xmlns="http://www.w3.org/2000/svg">
<path d="M10.5001 14.9999L11.5001 14.9999C11.5001 14.7347 11.3948 14.4804 11.2072 14.2928C11.0197 14.1053 10.7653 13.9999 10.5001 13.9999L10.5001 14.9999ZM10.5001 18.9999L9.50012 18.9999L10.5001 18.9999ZM13.5001 21.9999L13.5001 22.9999C13.8953 22.9999 14.2534 22.7672 14.4139 22.4061L13.5001 21.9999ZM17.5001 12.9999L18.4139 13.4061C18.4708 13.2782 18.5001 13.1399 18.5001 12.9999L17.5001 12.9999ZM17.5001 1.99994L18.5001 1.99994C18.5001 1.44766 18.0524 0.999939 17.5001 0.999939L17.5001 1.99994ZM6.22012 1.99994L6.20881 2.99994L6.22012 2.99994L6.22012 1.99994ZM4.22012 3.69994L5.20857 3.8515L5.20882 3.84988L4.22012 3.69994ZM2.84012 12.6999L1.85167 12.5484L1.85145 12.5499L2.84012 12.6999ZM4.84012 14.9999L4.84012 13.9999L4.8288 14L4.84012 14.9999ZM17.5001 1.99994L17.5001 0.999939C16.9478 0.999939 16.5001 1.44766 16.5001 1.99994L17.5001 1.99994ZM22.5001 3.99994L21.5001 3.99994L22.5001 3.99994ZM22.5001 10.9999L23.5001 10.9999L22.5001 10.9999ZM17.5001 12.9999L16.5001 12.9999C16.5001 13.5522 16.9478 13.9999 17.5001 13.9999L17.5001 12.9999ZM9.50012 14.9999L9.50012 18.9999L11.5001 18.9999L11.5001 14.9999L9.50012 14.9999ZM9.50012 18.9999C9.50012 21.2091 11.291 22.9999 13.5001 22.9999L13.5001 20.9999C12.3956 20.9999 11.5001 20.1045 11.5001 18.9999L9.50012 18.9999ZM14.4139 22.4061L18.4139 13.4061L16.5863 12.5938L12.5863 21.5938L14.4139 22.4061ZM18.5001 12.9999L18.5001 1.99994L16.5001 1.99994L16.5001 12.9999L18.5001 12.9999ZM17.5001 0.999939L6.22012 0.99994L6.22012 2.99994L17.5001 2.99994L17.5001 0.999939ZM6.23142 1C4.73549 0.983093 3.45573 2.07089 3.23142 3.55L5.20882 3.84988C5.28359 3.35684 5.71017 2.99424 6.20882 2.99988L6.23142 1ZM3.23167 3.54838L1.85167 12.5484L3.82857 12.8515L5.20857 3.8515L3.23167 3.54838ZM1.85145 12.5499C1.71936 13.4201 1.9761 14.3044 2.55366 14.9686L4.06287 13.6562C3.87035 13.4349 3.78477 13.1401 3.8288 12.85L1.85145 12.5499ZM2.55366 14.9686C3.13122 15.6328 3.97132 16.0098 4.85145 15.9999L4.8288 14C4.53542 14.0033 4.25539 13.8776 4.06287 13.6562L2.55366 14.9686ZM4.84012 15.9999L10.5001 15.9999L10.5001 13.9999L4.84012 13.9999L4.84012 15.9999ZM17.5001 2.99994L20.5001 2.99994L20.5001 0.999939L17.5001 0.999939L17.5001 2.99994ZM20.5001 2.99994C21.0524 2.99994 21.5001 3.44765 21.5001 3.99994L23.5001 3.99994C23.5001 2.34308 22.157 0.999939 20.5001 0.999939L20.5001 2.99994ZM21.5001 3.99994L21.5001 10.9999L23.5001 10.9999L23.5001 3.99994L21.5001 3.99994ZM21.5001 10.9999C21.5001 11.5522 21.0524 11.9999 20.5001 11.9999L20.5001 13.9999C22.157 13.9999 23.5001 12.6568 23.5001 10.9999L21.5001 10.9999ZM20.5001 11.9999L17.5001 11.9999L17.5001 13.9999L20.5001 13.9999L20.5001 11.9999ZM18.5001 12.9999L18.5001 1.99994L16.5001 1.99994L16.5001 12.9999L18.5001 12.9999Z" fill="#FF0F00"/>
</svg>
