<svg width="95" height="92" viewBox="0 0 95 92" fill="none" xmlns="http://www.w3.org/2000/svg">
<g filter="url(#filter0_b_101_2815)">
<path d="M8.25 31.0588V76C8.25 80.4183 11.8317 84 16.25 84H61.5181C63.6476 84 65.6893 83.151 67.1908 81.6409L82.9227 65.8204C84.4133 64.3214 85.25 62.2934 85.25 60.1795V16C85.25 11.5817 81.6683 8 77.25 8H31.2136C29.0831 8 27.0405 8.84984 25.5388 10.3611L10.5752 25.42C9.0859 26.9188 8.25 28.9459 8.25 31.0588Z" fill="#222121" fill-opacity="0.5"/>
<path d="M8.75 76V31.0588C8.75 29.078 9.53366 27.1775 10.9299 25.7724L25.8935 10.7136C27.3014 9.29672 29.2162 8.5 31.2136 8.5H77.25C81.3921 8.5 84.75 11.8579 84.75 16V60.1795C84.75 62.1613 83.9656 64.0625 82.5682 65.4678L66.8363 81.2884C65.4286 82.704 63.5145 83.5 61.5181 83.5H16.25C12.1079 83.5 8.75 80.1421 8.75 76Z" stroke="#272727" stroke-opacity="0.49"/>
<g filter="url(#filter1_d_101_2815)">
<path d="M59.25 38.4791L42.75 54.5208L35.25 47.2291" stroke="#44EAC5" stroke-width="2.5" stroke-linecap="round" stroke-linejoin="round"/>
</g>
</g>
<defs>
<filter id="filter0_b_101_2815" x="-9.75" y="-10" width="113" height="112" filterUnits="userSpaceOnUse" color-interpolation-filters="sRGB">
<feFlood flood-opacity="0" result="BackgroundImageFix"/>
<feGaussianBlur in="BackgroundImageFix" stdDeviation="5"/>
<feComposite in2="SourceAlpha" operator="in" result="effect1_backgroundBlur_101_2815"/>
<feBlend mode="normal" in="SourceGraphic" in2="effect1_backgroundBlur_101_2815" result="shape"/>
</filter>
<filter id="filter1_d_101_2815" x="0" y="3.22913" width="94.5" height="86.5416" filterUnits="userSpaceOnUse" color-interpolation-filters="sRGB">
<feFlood flood-opacity="0" result="BackgroundImageFix"/>
<feColorMatrix in="SourceAlpha" type="matrix" values="0 0 0 0 0 0 0 0 0 0 0 0 0 0 0 0 0 0 127 0" result="hardAlpha"/>
<feOffset/>
<feGaussianBlur stdDeviation="17"/>
<feColorMatrix type="matrix" values="0 0 0 0 0.168627 0 0 0 0 0.909804 0 0 0 0 0.701961 0 0 0 1 0"/>
<feBlend mode="normal" in2="BackgroundImageFix" result="effect1_dropShadow_101_2815"/>
<feBlend mode="normal" in="SourceGraphic" in2="effect1_dropShadow_101_2815" result="shape"/>
</filter>
</defs>
</svg>
