<svg width="25" height="24" viewBox="0 0 25 24" fill="none" xmlns="http://www.w3.org/2000/svg">
<path d="M14.4999 9.00006H13.4999C13.4999 9.55235 13.9476 10.0001 14.4999 10.0001V9.00006ZM14.4999 5.00006H15.4999H14.4999ZM11.4999 2.00006V1.00006C11.1047 1.00006 10.7466 1.23279 10.5861 1.59392L11.4999 2.00006ZM7.49988 11.0001L6.58607 10.5939C6.52924 10.7218 6.49988 10.8601 6.49988 11.0001H7.49988ZM7.49988 22.0001H6.49988C6.49988 22.5523 6.94759 23.0001 7.49988 23.0001V22.0001ZM18.7799 22.0001L18.7912 21.0001H18.7799V22.0001ZM20.7799 20.3001L19.7914 20.1485L19.7912 20.1501L20.7799 20.3001ZM22.1599 11.3001L23.1483 11.4516L23.1486 11.4501L22.1599 11.3001ZM20.1599 9.00006V10.0001L20.1712 10L20.1599 9.00006ZM7.49988 22.0001V23.0001C8.05216 23.0001 8.49988 22.5523 8.49988 22.0001H7.49988ZM7.49988 11.0001H8.49988C8.49988 10.4478 8.05216 10.0001 7.49988 10.0001V11.0001ZM15.4999 9.00006V5.00006H13.4999V9.00006H15.4999ZM15.4999 5.00006C15.4999 2.79092 13.709 1.00006 11.4999 1.00006V3.00006C12.6044 3.00006 13.4999 3.89549 13.4999 5.00006H15.4999ZM10.5861 1.59392L6.58607 10.5939L8.41369 11.4062L12.4137 2.4062L10.5861 1.59392ZM6.49988 11.0001V22.0001H8.49988V11.0001H6.49988ZM7.49988 23.0001H18.7799V21.0001H7.49988V23.0001ZM18.7686 23C20.2645 23.0169 21.5443 21.9291 21.7686 20.45L19.7912 20.1501C19.7164 20.6432 19.2898 21.0058 18.7912 21.0001L18.7686 23ZM21.7683 20.4516L23.1483 11.4516L21.1714 11.1485L19.7914 20.1485L21.7683 20.4516ZM23.1486 11.4501C23.2806 10.5799 23.0239 9.69559 22.4463 9.0314L20.9371 10.3438C21.1297 10.5652 21.2152 10.8599 21.1712 11.15L23.1486 11.4501ZM22.4463 9.0314C21.8688 8.36721 21.0287 7.99016 20.1486 8.00012L20.1712 10C20.4646 9.99667 20.7446 10.1224 20.9371 10.3438L22.4463 9.0314ZM20.1599 8.00006H14.4999V10.0001H20.1599V8.00006ZM7.49988 21.0001H4.49988V23.0001H7.49988V21.0001ZM4.49988 21.0001C3.94759 21.0001 3.49988 20.5523 3.49988 20.0001H1.49988C1.49988 21.6569 2.84302 23.0001 4.49988 23.0001V21.0001ZM3.49988 20.0001V13.0001H1.49988V20.0001H3.49988ZM3.49988 13.0001C3.49988 12.4478 3.94759 12.0001 4.49988 12.0001V10.0001C2.84302 10.0001 1.49988 11.3432 1.49988 13.0001H3.49988ZM4.49988 12.0001H7.49988V10.0001H4.49988V12.0001ZM6.49988 11.0001V22.0001H8.49988V11.0001H6.49988Z" fill="#2AAC7A"/>
</svg>
