<svg width="960" height="884" viewBox="0 0 960 884" fill="none" xmlns="http://www.w3.org/2000/svg">
<path d="M583.545 351.828C583.545 351.828 507.25 441.84 535.953 562.035C564.657 682.231 677.864 780.25 821.82 723.256C965.776 666.262 1008.64 392.178 895.737 234.604C782.837 77.0295 604.55 -59.4248 323.11 26.6729C41.6705 112.771 -183.159 573.354 215.779 883.64C215.779 883.64 93.1202 751.732 105.236 582.115C117.351 412.497 228.411 238.84 435.384 197.445C435.384 197.445 261.728 312.543 256.68 504.372C251.632 696.202 361.682 907.214 675.675 878.944C675.675 878.944 515.484 840.408 465.451 678.599C415.419 516.791 533.442 385.931 583.545 351.828Z" fill="url(#paint0_linear_103_290)"/>
<path d="M675.676 878.939C361.682 907.219 251.637 696.201 256.682 504.368C261.604 317.043 427.338 202.881 435.102 197.634C383.284 245.895 304.808 339.742 301.441 467.776C297.178 629.93 375.14 805.788 589.011 839.248C635.448 869.262 675.676 878.939 675.676 878.939Z" fill="url(#paint1_linear_103_290)"/>
<path d="M919.673 628.095C896.293 672.496 863.247 706.873 821.822 723.262C677.869 780.248 564.657 682.228 535.952 562.036C507.436 442.639 582.545 353.009 583.529 351.835C583.541 351.823 583.541 351.823 583.541 351.823C564.098 389.12 542.653 451.118 560.127 524.292C588.832 644.484 702.032 742.503 845.996 685.517C874.723 674.14 899.436 654.116 919.673 628.095Z" fill="url(#paint2_linear_103_290)"/>
<defs>
<linearGradient id="paint0_linear_103_290" x1="56.678" y1="702.951" x2="890.008" y2="221.828" gradientUnits="userSpaceOnUse">
<stop offset="0.1" stop-color="#E94057"/>
<stop offset="0.6" stop-color="#E94057"/>
<stop offset="1" stop-color="#A020F0"/>
</linearGradient>
<linearGradient id="paint1_linear_103_290" x1="259.613" y1="418.585" x2="770.999" y2="713.834" gradientUnits="userSpaceOnUse">
<stop offset="2.42203e-07" stop-color="#8A2387"/>
<stop offset="0.7" stop-color="#8A2387" stop-opacity="0"/>
</linearGradient>
<linearGradient id="paint2_linear_103_290" x1="529.494" y1="545.87" x2="919.673" y2="545.87" gradientUnits="userSpaceOnUse">
<stop stop-color="#8A2387" stop-opacity="0.7"/>
<stop offset="0.5" stop-color="#8A2387" stop-opacity="0"/>
</linearGradient>
</defs>
</svg>
