<svg width="94" height="92" viewBox="0 0 94 92" fill="none" xmlns="http://www.w3.org/2000/svg">
<g filter="url(#filter0_b_101_2806)">
<path d="M85.75 31.0588V76C85.75 80.4183 82.1683 84 77.75 84H32.4819C30.3524 84 28.3107 83.151 26.8092 81.6409L11.0773 65.8204C9.58669 64.3214 8.75 62.2934 8.75 60.1795V16C8.75 11.5817 12.3317 8 16.75 8H62.7864C64.9169 8 66.9595 8.84984 68.4612 10.3611L83.4248 25.42C84.9141 26.9188 85.75 28.9459 85.75 31.0588Z" fill="#222121" fill-opacity="0.5"/>
<path d="M85.25 76V31.0588C85.25 29.078 84.4663 27.1775 83.0701 25.7724L68.1065 10.7136C66.6986 9.29672 64.7838 8.5 62.7864 8.5H16.75C12.6079 8.5 9.25 11.8579 9.25 16V60.1795C9.25 62.1613 10.0344 64.0625 11.4318 65.4678L27.1637 81.2884C28.5714 82.704 30.4855 83.5 32.4819 83.5H77.75C81.8921 83.5 85.25 80.1421 85.25 76Z" stroke="#272727" stroke-opacity="0.49"/>
<g filter="url(#filter1_d_101_2806)">
<path d="M37.6665 37.3719L55.3332 55.0386" stroke="#FE4C6A" stroke-width="2.5" stroke-linecap="round" stroke-linejoin="round"/>
<path d="M55.3332 37.3719L37.6665 55.0386" stroke="#FE4C6A" stroke-width="2.5" stroke-linecap="round" stroke-linejoin="round"/>
</g>
</g>
<defs>
<filter id="filter0_b_101_2806" x="-9.25" y="-10" width="113" height="112" filterUnits="userSpaceOnUse" color-interpolation-filters="sRGB">
<feFlood flood-opacity="0" result="BackgroundImageFix"/>
<feGaussianBlur in="BackgroundImageFix" stdDeviation="5"/>
<feComposite in2="SourceAlpha" operator="in" result="effect1_backgroundBlur_101_2806"/>
<feBlend mode="normal" in="SourceGraphic" in2="effect1_backgroundBlur_101_2806" result="shape"/>
</filter>
<filter id="filter1_d_101_2806" x="-14" y="-14.2947" width="121" height="121" filterUnits="userSpaceOnUse" color-interpolation-filters="sRGB">
<feFlood flood-opacity="0" result="BackgroundImageFix"/>
<feColorMatrix in="SourceAlpha" type="matrix" values="0 0 0 0 0 0 0 0 0 0 0 0 0 0 0 0 0 0 127 0" result="hardAlpha"/>
<feOffset/>
<feGaussianBlur stdDeviation="17"/>
<feColorMatrix type="matrix" values="0 0 0 0 0.996078 0 0 0 0 0.298039 0 0 0 0 0.415686 0 0 0 1 0"/>
<feBlend mode="normal" in2="BackgroundImageFix" result="effect1_dropShadow_101_2806"/>
<feBlend mode="normal" in="SourceGraphic" in2="effect1_dropShadow_101_2806" result="shape"/>
</filter>
</defs>
</svg>
