<svg width="88" height="87" viewBox="0 0 88 87" fill="none" xmlns="http://www.w3.org/2000/svg">
<g filter="url(#filter0_b_101_2802)">
<path d="M69 35.7965V60C69 64.4183 65.4183 68 61 68H36.2942C34.1751 68 32.1426 67.1593 30.6428 65.6623L22.3486 57.3841C20.845 55.8833 20 53.8462 20 51.7218V28C20 23.5817 23.5817 20 28 20H53.1941C55.3142 20 57.3475 20.8415 58.8476 22.3398L66.6535 30.1363C68.1558 31.6368 69 33.6731 69 35.7965Z" fill="#222121" fill-opacity="0.5"/>
<path d="M68.5 60V35.7965C68.5 33.8058 67.7086 31.8968 66.3001 30.49L58.4942 22.6935C57.088 21.2889 55.1817 20.5 53.1941 20.5H28C23.8579 20.5 20.5 23.8579 20.5 28V51.7218C20.5 53.7134 21.2922 55.6232 22.7018 57.0302L30.996 65.3084C32.4021 66.7118 34.3076 67.5 36.2942 67.5H61C65.1421 67.5 68.5 64.1421 68.5 60Z" stroke="#272727" stroke-opacity="0.49"/>
<g filter="url(#filter1_d_101_2802)">
<path d="M43 46.329C47.594 46.329 51.499 48.692 53 52L53 50.993C53 44.977 48.579 40.07 43 39.702L43 35L35 43L43 51L43 46.333" stroke="#FFBC03" stroke-width="2" stroke-linecap="round" stroke-linejoin="round"/>
</g>
</g>
<defs>
<filter id="filter0_b_101_2802" x="2" y="2" width="85" height="84" filterUnits="userSpaceOnUse" color-interpolation-filters="sRGB">
<feFlood flood-opacity="0" result="BackgroundImageFix"/>
<feGaussianBlur in="BackgroundImageFix" stdDeviation="5"/>
<feComposite in2="SourceAlpha" operator="in" result="effect1_backgroundBlur_101_2802"/>
<feBlend mode="normal" in="SourceGraphic" in2="effect1_backgroundBlur_101_2802" result="shape"/>
</filter>
<filter id="filter1_d_101_2802" x="-2" y="-2" width="92" height="92" filterUnits="userSpaceOnUse" color-interpolation-filters="sRGB">
<feFlood flood-opacity="0" result="BackgroundImageFix"/>
<feColorMatrix in="SourceAlpha" type="matrix" values="0 0 0 0 0 0 0 0 0 0 0 0 0 0 0 0 0 0 127 0" result="hardAlpha"/>
<feOffset/>
<feGaussianBlur stdDeviation="17"/>
<feColorMatrix type="matrix" values="0 0 0 0 1 0 0 0 0 0.737255 0 0 0 0 0.0117647 0 0 0 1 0"/>
<feBlend mode="normal" in2="BackgroundImageFix" result="effect1_dropShadow_101_2802"/>
<feBlend mode="normal" in="SourceGraphic" in2="effect1_dropShadow_101_2802" result="shape"/>
</filter>
</defs>
</svg>
